<svg xmlns="http://www.w3.org/2000/svg" viewBox="0 0 220 100" width="220" height="100">
	<style>
		tspan { white-space:pre }
		.shp0 { fill: #007cc3 } 
		.shp1 { fill: #000000 } 
	</style>
	<g id="Symbols">
		<g id="TOP-NAV/Regular">
			<g id="Logo_nav">
				<g id="CPO_logo">
					<g id="cpo_logo">
						<g id="Shape_470_copy">
							<path id="Path" class="shp0" d="M25.03 66.88L25.03 79.56L102.69 70.96L102.69 66.88L25.03 66.88Z" />
						</g>
						<g id="Shape_470">
							<path id="Shape" fill-rule="evenodd" class="shp1" d="M105.03 25.73C105.28 26.11 105.43 26.64 105.43 27.2C105.43 28.35 104.82 29.28 104.04 29.28C103.28 29.28 102.67 28.35 102.67 27.2C102.67 26.05 103.28 25.12 104.04 25.12C104.41 25.12 104.76 25.34 105.03 25.73ZM104.75 28.27C104.94 27.99 105.04 27.6 105.04 27.2C105.04 26.58 104.79 26.02 104.41 25.79C104.03 25.57 103.59 25.7 103.3 26.15C103.02 26.58 102.93 27.25 103.1 27.8C103.27 28.36 103.64 28.73 104.04 28.72C104.31 28.72 104.56 28.55 104.75 28.27ZM104.28 27.42L104.68 28.36L104.28 28.36L103.93 27.43L103.8 27.43L103.8 28.36L103.45 28.36L103.45 26.05L104.06 26.05C104.46 26.05 104.65 26.3 104.65 26.77C104.66 27.11 104.51 27.39 104.28 27.42ZM104.31 26.73C104.31 26.49 104.14 26.46 104.01 26.46L103.79 26.46L103.79 27.04L104.04 27.04C104.2 27.04 104.31 27 104.31 26.73ZM31.31 24.86L47.04 24.86L47.04 33.46L33.6 33.46C32.6 33.48 31.8 34.67 31.79 36.16L31.79 51.52C31.8 53.01 32.6 54.2 33.6 54.22L47.04 54.22L47.04 62.82L31.31 62.82C27.82 62.82 25 58.6 25 53.38L25 34.3C25 29.08 27.82 24.86 31.31 24.86ZM74.95 34.3L74.95 44.78C74.95 49.98 72.12 54.22 68.65 54.22L58.37 54.22L58.37 45.6L66.38 45.6C67.36 45.58 68.16 44.37 68.16 42.9L68.16 36.16C68.16 34.69 67.36 33.48 66.36 33.46L56.02 33.46L56.02 62.82L49.38 62.82L49.38 24.86L68.65 24.86C72.12 24.86 74.95 29.09 74.95 34.3ZM96.36 24.86C99.84 24.86 102.65 29.09 102.67 34.3L102.67 53.38C102.65 58.6 99.84 62.82 96.36 62.82L83.59 62.82C80.1 62.82 77.28 58.6 77.28 53.38L77.28 34.3C77.28 29.08 80.1 24.86 83.59 24.86L96.36 24.86ZM95.87 36.16C95.87 34.67 95.07 33.48 94.07 33.46L85.88 33.46C84.88 33.48 84.08 34.67 84.08 36.16L84.08 51.52C84.08 53.01 84.88 54.2 85.88 54.22L94.07 54.22C95.07 54.2 95.87 53.01 95.87 51.52L95.87 36.16Z" />
						</g>
					</g>
					<g id="tagline">
						<g id="America_s_Leading_online_tool_retailer">
							<g id="America_s_Leading_online_tool_retailer-2">
								<path id="Shape" fill-rule="evenodd" class="shp0" d="M127.59 37.71L129.57 23.65L131.2 23.65L133.18 37.71L131.34 37.71L130.98 34.7L129.77 34.7L129.42 37.71L127.59 37.71ZM129.91 32.97L130.86 32.97L130.39 27.74L129.91 32.97Z" />
								<path id="Path" class="shp0" d="M133.77 37.71L133.77 23.65L135.99 23.65L136.96 33.03L138.03 23.65L140.16 23.65L140.16 37.71L138.8 37.71L138.76 27.82C138.66 28.84 138.48 30.49 138.23 32.76C137.97 35.04 137.79 36.7 137.69 37.71L136.3 37.71L135.18 27.76L135.13 37.71L133.77 37.71Z" />
								<path id="Path" class="shp0" d="M141.26 37.71L141.26 23.65L145.08 23.65L145.08 25.6L143.11 25.6L143.11 29.43L144.51 29.43L144.51 31.43L143.11 31.43L143.11 35.76L145.08 35.76L145.08 37.71L141.26 37.71Z" />
								<path id="Shape" fill-rule="evenodd" class="shp0" d="M145.74 37.71L145.74 23.65L147.77 23.65C148.17 23.65 148.58 23.71 148.97 23.85C149.3 23.98 149.61 24.19 149.89 24.49C150.15 24.77 150.36 25.17 150.49 25.63C150.63 26.18 150.7 26.77 150.69 27.35C150.69 27.65 150.69 27.91 150.67 28.15C150.66 28.41 150.62 28.67 150.58 28.92C150.53 29.2 150.46 29.45 150.38 29.7C150.28 29.94 150.15 30.18 150.01 30.36C149.84 30.59 149.65 30.78 149.45 30.9C150 33.59 150.48 35.85 150.88 37.71L148.96 37.71L147.91 31.23L147.6 31.23L147.6 37.71L145.74 37.71ZM147.61 29.51L148.14 29.51C148.27 29.51 148.41 29.43 148.51 29.29C148.61 29.14 148.68 28.95 148.72 28.75C148.76 28.55 148.79 28.33 148.82 28.13C148.83 27.94 148.85 27.77 148.85 27.6C148.85 27.42 148.85 27.25 148.83 27.08C148.82 26.87 148.79 26.69 148.75 26.49C148.72 26.29 148.65 26.11 148.55 25.96C148.47 25.82 148.36 25.74 148.23 25.76L147.61 25.76L147.61 29.51Z" />
								<path id="Path" class="shp0" d="M151.46 37.71L151.46 23.65L153.33 23.65L153.33 37.71L151.46 37.71Z" />
								<path id="Path" class="shp0" d="M154.3 33.03L154.3 28.36C154.3 25.03 155.18 23.37 156.95 23.37C157.29 23.37 157.63 23.45 157.95 23.6C158.49 23.87 158.92 24.47 159.16 25.25C159.3 25.65 159.38 26.08 159.44 26.53C159.5 27.04 159.52 27.56 159.52 28.07L159.52 29.28L157.7 29.28L157.7 27.97C157.7 27.73 157.7 27.51 157.68 27.32C157.68 27.11 157.67 26.91 157.64 26.69C157.61 26.49 157.57 26.3 157.52 26.11C157.47 25.96 157.39 25.84 157.3 25.73C157.19 25.62 157.08 25.57 156.95 25.57C156.42 25.57 156.15 26.27 156.15 27.65L156.15 33.73C156.15 35.1 156.42 35.79 156.95 35.79C157.09 35.8 157.23 35.72 157.36 35.59C157.47 35.41 157.56 35.21 157.59 34.98C157.63 34.73 157.67 34.48 157.68 34.22C157.7 33.94 157.71 33.66 157.71 33.38L157.71 31.93L159.52 31.93L159.52 33.12C159.52 33.62 159.5 34.11 159.44 34.61C159.4 35.06 159.3 35.51 159.19 35.93C159.08 36.33 158.92 36.7 158.72 37.01C158.51 37.32 158.26 37.57 157.99 37.72C157.66 37.91 157.3 38 156.95 37.99C156.6 38 156.24 37.91 155.9 37.72C155.62 37.57 155.35 37.34 155.14 37.01C154.93 36.7 154.76 36.33 154.65 35.93C154.52 35.51 154.42 35.04 154.38 34.58C154.33 34.07 154.3 33.54 154.3 33.03Z" />
								<path id="Shape" fill-rule="evenodd" class="shp0" d="M159.89 37.71L161.87 23.65L163.51 23.65L165.5 37.71L163.66 37.71L163.29 34.7L162.08 34.7L161.73 37.71L159.89 37.71ZM162.22 32.97L163.16 32.97L162.7 27.74L162.22 32.97Z" />
								<path id="Path" class="shp0" d="M166.55 27.71L166.13 26.39C166.3 26.39 166.47 26.35 166.62 26.24C166.75 26.15 166.84 25.94 166.84 25.71L166.18 25.71L166.18 23.39L167.7 23.39C167.7 23.53 167.7 23.74 167.7 24.01C167.7 24.29 167.72 24.52 167.73 24.72C167.73 24.92 167.73 25.15 167.72 25.43C167.72 25.68 167.69 25.91 167.67 26.15C167.65 26.36 167.6 26.56 167.55 26.75C167.5 26.95 167.43 27.12 167.34 27.28C167.25 27.42 167.14 27.53 167.01 27.6C166.87 27.68 166.7 27.71 166.55 27.71Z" />
								<path id="Path" class="shp0" d="M168.63 33.69L170.51 33.14C170.51 33.42 170.51 33.68 170.53 33.9C170.53 34.13 170.55 34.38 170.57 34.61C170.6 34.83 170.64 35.04 170.69 35.24C170.74 35.4 170.81 35.54 170.9 35.65C170.99 35.76 171.1 35.82 171.21 35.82C171.58 35.82 171.78 35.46 171.78 34.75C171.78 33.76 171.41 32.78 170.68 31.8L170.1 31.06C169.92 30.83 169.78 30.63 169.67 30.47C169.53 30.27 169.4 30.07 169.29 29.83C169.15 29.6 169.04 29.34 168.94 29.08C168.84 28.78 168.77 28.49 168.73 28.18C168.66 27.82 168.63 27.45 168.63 27.06C168.63 25.93 168.87 25.03 169.35 24.36C169.81 23.7 170.44 23.37 171.23 23.37C171.85 23.36 172.45 23.73 172.89 24.43C173.32 25.11 173.57 26.02 173.56 26.98L173.56 27.09L173.56 27.32L171.64 27.73C171.64 27.68 171.64 27.59 171.64 27.46C171.64 27.34 171.65 27.25 171.65 27.17C171.65 26.98 171.64 26.8 171.62 26.63C171.61 26.46 171.58 26.27 171.54 26.11C171.51 25.94 171.44 25.8 171.35 25.7C171.27 25.59 171.17 25.54 171.06 25.54C170.88 25.53 170.69 25.67 170.6 25.91C170.5 26.18 170.44 26.47 170.44 26.78C170.44 27.06 170.47 27.34 170.54 27.6C170.6 27.87 170.68 28.1 170.81 28.32C170.9 28.5 171.02 28.69 171.13 28.86C171.24 29.01 171.37 29.18 171.55 29.4C171.72 29.6 171.83 29.76 171.9 29.87C172.14 30.19 172.37 30.52 172.56 30.87C172.76 31.2 172.93 31.56 173.08 31.93C173.24 32.31 173.36 32.73 173.43 33.18C173.52 33.66 173.56 34.16 173.56 34.66C173.57 35.57 173.34 36.45 172.89 37.06C172.42 37.69 171.83 38.03 171.21 38.02C170.82 38.02 170.44 37.89 170.08 37.66C169.77 37.43 169.5 37.1 169.29 36.67C169.08 36.27 168.92 35.8 168.83 35.31C168.71 34.79 168.64 34.24 168.63 33.69L168.63 33.69Z" />
								<path id="Path" class="shp0" d="M128.08 55.49L128.08 41.43L129.94 41.43L129.94 53.53L131.76 53.53L131.76 55.49L128.08 55.49Z" />
								<path id="Path" class="shp0" d="M132.35 55.49L132.35 41.43L136.17 41.43L136.17 43.38L134.21 43.38L134.21 47.21L135.6 47.21L135.6 49.21L134.21 49.21L134.21 53.53L136.17 53.53L136.17 55.49L132.35 55.49Z" />
								<path id="Shape" fill-rule="evenodd" class="shp0" d="M136.34 55.49L138.32 41.43L139.95 41.43L141.93 55.49L140.11 55.49L139.73 52.48L138.53 52.48L138.17 55.49L136.34 55.49ZM138.66 50.73L139.62 50.73L139.14 45.51L138.66 50.73Z" />
								<path id="Shape" fill-rule="evenodd" class="shp0" d="M142.52 55.49L142.52 41.43L144.45 41.43C144.96 41.41 145.46 41.49 145.95 41.68C146.3 41.82 146.63 42.11 146.88 42.51C147.12 42.92 147.27 43.4 147.34 43.91C147.44 44.59 147.48 45.29 147.48 45.97L147.48 50.59C147.48 51.09 147.47 51.52 147.44 51.89C147.43 52.26 147.39 52.62 147.33 52.99C147.29 53.3 147.22 53.61 147.1 53.89C147.01 54.15 146.88 54.39 146.73 54.59C146.57 54.81 146.37 54.98 146.18 55.1C145.92 55.22 145.67 55.33 145.42 55.38C145.08 55.46 144.76 55.49 144.42 55.49L142.52 55.49ZM144.45 53.49C144.63 53.49 144.76 53.49 144.87 53.47C144.97 53.47 145.08 53.46 145.18 53.43C145.26 53.39 145.33 53.36 145.4 53.29C145.46 53.22 145.5 53.15 145.53 53.05C145.57 52.95 145.6 52.81 145.62 52.68C145.63 52.51 145.63 52.33 145.63 52.15L145.63 44.58C145.63 44.11 145.55 43.82 145.36 43.66C145.08 43.47 144.77 43.4 144.46 43.41L144.45 53.49Z" />
								<path id="Path" class="shp0" d="M148.45 55.49L148.45 41.43L150.32 41.43L150.32 55.49L148.45 55.49Z" />
								<path id="Path" class="shp0" d="M151.4 55.49L151.4 41.41L152.74 41.41L154.75 48.79L154.75 41.41L156.29 41.41L156.29 55.49L155.01 55.49L153.01 47.68L153.01 55.49L151.4 55.49Z" />
								<path id="Path" class="shp0" d="M157.26 51.09L157.26 46.14C157.26 42.81 158.16 41.15 159.97 41.15C160.31 41.13 160.66 41.21 160.99 41.38C161.53 41.63 161.98 42.23 162.22 43.01C162.36 43.43 162.45 43.86 162.5 44.31C162.56 44.81 162.59 45.32 162.59 45.83L162.59 46.67L160.82 46.67L160.82 45.68C160.82 45.44 160.82 45.23 160.8 45.04C160.79 44.82 160.78 44.62 160.75 44.42C160.72 44.22 160.68 44.03 160.61 43.86C160.54 43.71 160.45 43.58 160.35 43.49C160.24 43.4 160.1 43.34 159.97 43.35C159.4 43.35 159.12 44.03 159.12 45.43L159.12 51.49C159.12 52.87 159.4 53.57 159.97 53.57C160.54 53.57 160.82 52.85 160.82 51.43L160.82 50.29L159.76 50.29L159.76 48.26L162.67 48.26L162.67 55.49L161.39 55.49L161.15 54.5C160.99 54.88 160.76 55.19 160.49 55.41C160.21 55.63 159.9 55.75 159.6 55.75C159.29 55.77 158.98 55.67 158.7 55.47C158.44 55.32 158.22 55.05 158.04 54.74C157.85 54.42 157.7 54.06 157.59 53.67C157.47 53.27 157.39 52.84 157.33 52.4C157.29 51.97 157.26 51.53 157.26 51.09Z" />
								<path id="Shape" fill-rule="evenodd" class="shp0" d="M165.66 50.85L165.66 46.14C165.66 42.81 166.55 41.15 168.33 41.15C170.13 41.15 171.02 42.81 171.03 46.14L171.03 50.79C171.03 51.32 171 51.83 170.95 52.34C170.89 52.82 170.79 53.27 170.67 53.7C170.54 54.11 170.37 54.48 170.16 54.79C169.95 55.12 169.68 55.35 169.39 55.5C169.05 55.69 168.7 55.77 168.33 55.77C167.97 55.77 167.62 55.69 167.28 55.5C167 55.36 166.73 55.13 166.51 54.82C166.31 54.51 166.14 54.15 166.02 53.75C165.89 53.33 165.79 52.88 165.73 52.42C165.68 51.91 165.65 51.38 165.66 50.85ZM169.18 51.5L169.18 45.43C169.18 44.03 168.9 43.35 168.33 43.35C168.19 43.34 168.04 43.41 167.91 43.54C167.8 43.68 167.72 43.85 167.66 44.06C167.6 44.28 167.58 44.5 167.55 44.71C167.52 44.95 167.52 45.2 167.52 45.43L167.52 51.5C167.52 52.88 167.79 53.58 168.33 53.58C168.9 53.58 169.16 52.88 169.18 51.5Z" />
								<path id="Path" class="shp0" d="M172 55.49L172 41.41L173.34 41.41L175.34 48.79L175.34 41.41L176.89 41.41L176.89 55.49L175.6 55.49L173.59 47.68L173.59 55.49L172 55.49Z" />
								<path id="Path" class="shp0" d="M177.97 55.49L177.97 41.43L179.84 41.43L179.84 53.53L181.67 53.53L181.67 55.49L177.97 55.49Z" />
								<path id="Path" class="shp0" d="M182.24 55.49L182.24 41.43L184.11 41.43L184.11 55.49L182.24 55.49Z" />
								<path id="Path" class="shp0" d="M185.19 55.49L185.19 41.41L186.53 41.41L188.54 48.79L188.54 41.41L190.08 41.41L190.08 55.49L188.79 55.49L186.78 47.68L186.78 55.49L185.19 55.49Z" />
								<path id="Path" class="shp0" d="M191.16 55.49L191.16 41.43L195 41.43L195 43.38L193.03 43.38L193.03 47.21L194.42 47.21L194.42 49.21L193.03 49.21L193.03 53.53L195 53.53L195 55.49L191.16 55.49Z" />
								<path id="Path" class="shp0" d="M128.95 73.25L128.95 61.32L127.6 61.32L127.6 59.19L132.13 59.19L132.13 61.32L130.81 61.32L130.81 73.25L128.95 73.25Z" />
								<path id="Shape" fill-rule="evenodd" class="shp0" d="M132.62 68.63L132.62 63.9C132.62 60.57 133.52 58.91 135.3 58.91C137.09 58.91 137.99 60.57 137.99 63.9L137.99 68.55C137.99 69.08 137.96 69.61 137.9 70.12C137.86 70.58 137.76 71.03 137.64 71.47C137.51 71.87 137.34 72.24 137.13 72.57C136.9 72.88 136.65 73.13 136.36 73.28C135.67 73.61 134.94 73.61 134.25 73.28C133.97 73.13 133.7 72.89 133.48 72.58C133.28 72.29 133.11 71.92 132.99 71.53C132.86 71.1 132.76 70.65 132.7 70.18C132.65 69.67 132.62 69.14 132.62 68.63ZM136.13 69.27L136.13 63.21C136.13 61.83 135.85 61.13 135.3 61.13C135.15 61.13 135.01 61.19 134.88 61.32C134.76 61.45 134.67 61.63 134.63 61.84C134.57 62.06 134.53 62.28 134.52 62.49C134.49 62.74 134.47 62.97 134.47 63.21L134.47 69.28C134.47 70.66 134.76 71.36 135.3 71.36C135.85 71.36 136.13 70.66 136.13 69.27Z" />
								<path id="Shape" fill-rule="evenodd" class="shp0" d="M138.84 63.9C138.84 60.57 139.74 58.91 141.53 58.91C143.31 58.91 144.21 60.57 144.21 63.9L144.21 68.55C144.21 69.08 144.18 69.61 144.13 70.12C144.07 70.58 143.99 71.03 143.85 71.47C143.73 71.87 143.56 72.24 143.35 72.57C143.13 72.88 142.88 73.13 142.58 73.28C141.89 73.61 141.16 73.61 140.47 73.28C140.18 73.13 139.93 72.89 139.7 72.58C139.5 72.27 139.34 71.92 139.21 71.53C139.08 71.1 138.98 70.65 138.93 70.18C138.87 69.67 138.84 69.14 138.84 68.63L138.84 63.9ZM142.36 69.27L142.36 63.21C142.36 61.83 142.08 61.13 141.53 61.13C141.37 61.13 141.22 61.19 141.11 61.32C140.98 61.45 140.9 61.63 140.84 61.84C140.8 62.06 140.75 62.28 140.73 62.49C140.71 62.74 140.7 62.97 140.7 63.21L140.7 69.28C140.7 70.66 140.98 71.36 141.53 71.36C142.08 71.36 142.36 70.66 142.36 69.27Z" />
								<path id="Path" class="shp0" d="M145.18 73.25L145.18 59.19L147.05 59.19L147.05 71.3L148.86 71.3L148.86 73.25L145.18 73.25Z" />
								<path id="Shape" fill-rule="evenodd" class="shp0" d="M151.54 73.25L151.54 59.19L153.55 59.19C153.96 59.19 154.37 59.25 154.76 59.39C155.1 59.52 155.41 59.72 155.68 60.01C155.94 60.31 156.15 60.71 156.28 61.16C156.42 61.72 156.49 62.31 156.48 62.9C156.48 63.19 156.48 63.45 156.46 63.67C156.45 63.93 156.41 64.2 156.36 64.46C156.32 64.74 156.25 65 156.17 65.24C156.07 65.5 155.94 65.72 155.8 65.9C155.63 66.14 155.44 66.32 155.24 66.46C155.79 69.13 156.27 71.39 156.67 73.25L154.75 73.25L153.69 66.77L153.39 66.77L153.39 73.25L151.54 73.25ZM153.4 65.05L153.93 65.05C154.07 65.05 154.2 64.97 154.3 64.82C154.4 64.68 154.48 64.48 154.52 64.28C154.57 64.07 154.59 63.86 154.62 63.66C154.64 63.49 154.65 63.3 154.65 63.13C154.65 62.94 154.64 62.77 154.62 62.6C154.61 62.42 154.58 62.21 154.54 62.01C154.51 61.81 154.44 61.64 154.34 61.49C154.26 61.35 154.14 61.28 154.02 61.28L153.4 61.28L153.4 65.05Z" />
								<path id="Path" class="shp0" d="M157.26 73.25L157.26 59.19L161.08 59.19L161.08 61.14L159.12 61.14L159.12 64.97L160.51 64.97L160.51 66.97L159.12 66.97L159.12 71.3L161.08 71.3L161.08 73.25L157.26 73.25Z" />
								<path id="Path" class="shp0" d="M162.62 73.25L162.62 61.32L161.27 61.32L161.27 59.19L165.79 59.19L165.79 61.32L164.47 61.32L164.47 73.25L162.62 73.25Z" />
								<path id="Shape" fill-rule="evenodd" class="shp0" d="M165.9 73.25L167.9 59.19L169.53 59.19L171.51 73.25L169.68 73.25L169.3 70.24L168.1 70.24L167.74 73.25L165.9 73.25ZM168.24 68.49L169.18 68.49L168.71 63.28L168.24 68.49Z" />
								<path id="Path" class="shp0" d="M172.1 73.25L172.1 59.19L173.95 59.19L173.95 73.25L172.1 73.25Z" />
								<path id="Path" class="shp0" d="M175.04 73.25L175.04 59.19L176.9 59.19L176.9 71.3L178.72 71.3L178.72 73.25L175.04 73.25Z" />
								<path id="Path" class="shp0" d="M179.32 73.25L179.32 59.19L183.14 59.19L183.14 61.14L181.18 61.14L181.18 64.97L182.57 64.97L182.57 66.97L181.18 66.97L181.18 71.3L183.14 71.3L183.14 73.25L179.32 73.25Z" />
								<path id="Shape" fill-rule="evenodd" class="shp0" d="M183.8 73.25L183.8 59.19L185.83 59.19C186.23 59.19 186.64 59.25 187.03 59.39C187.36 59.52 187.67 59.72 187.95 60.01C188.21 60.31 188.41 60.71 188.54 61.16C188.69 61.72 188.76 62.31 188.75 62.9C188.75 63.19 188.73 63.45 188.72 63.67C188.71 63.93 188.68 64.2 188.64 64.46C188.58 64.74 188.52 65 188.42 65.24C188.33 65.5 188.2 65.72 188.06 65.9C187.89 66.14 187.71 66.32 187.5 66.46C188.05 69.13 188.52 71.39 188.93 73.25L187.01 73.25L185.97 66.77L185.66 66.77L185.66 73.25L183.8 73.25ZM185.67 65.05L186.19 65.05C186.33 65.05 186.47 64.97 186.57 64.82C186.67 64.68 186.74 64.48 186.78 64.28C186.82 64.07 186.87 63.86 186.88 63.66C186.89 63.49 186.91 63.3 186.91 63.13C186.91 62.94 186.91 62.77 186.88 62.6C186.87 62.42 186.84 62.21 186.81 62.01C186.77 61.81 186.71 61.64 186.61 61.49C186.53 61.35 186.4 61.28 186.29 61.28L185.66 61.28L185.67 65.05Z" />
							</g>
						</g>
						<g id="Shape_477">
							<path id="Rectangle" class="shp1" d="M115.38 19L116.17 19L116.17 81L115.38 81L115.38 19Z" />
						</g>
					</g>
				</g>
			</g>
		</g>
	</g>
</svg>