<svg xmlns="http://www.w3.org/2000/svg" viewBox="0 0 500 421" width="500" height="421">
	<style>
		tspan { white-space:pre }
		.shp0 { fill: #02c3ae } 
		.shp1 { fill: #cce9ff } 
		.shp2 { fill: none;stroke: #d3d3d3 } 
		.shp3 { fill: #0b4870 } 
		.shp4 { fill: #ffbe55 } 
		.shp5 { fill: #fcd2b1 } 
		.shp6 { fill: #e54b16 } 
		.shp7 { fill: #2a94f4 } 
		.shp8 { fill: #0e538c } 
		.shp9 { fill: #fbbd98 } 
		.shp10 { fill: #a77860 } 
		.shp11 { fill: #f8e9d6 } 
		.shp12 { fill: #d3d3d3 } 
	</style>
	<g id="BACKGROUND">
	</g>
	<g id="OBJECTS">
	</g>
	<g id="DESIGNED_BY_FREEPIK">
		<path id="Layer" class="shp0" d="M173.66 318.89C178.06 318.81 182.15 319.31 186.47 320.13C190.51 320.89 194.09 320.48 198.03 319.85C200.91 319.4 204.03 318.58 206.97 318.87C210 319.17 210.55 323.55 213.53 323.46C211.01 324.84 208.44 326.45 205.47 326.96C200.12 327.9 194.74 325.32 189.31 325.38C183 325.43 177.92 329.32 171.93 331.02C163.03 333.53 154.09 332.01 145.1 332.8C143.29 332.96 140.23 333.22 139.58 335.47C139.08 337.2 140.19 337.42 138.36 338.48C135.73 340 131.26 339.4 128.44 339.15C124.95 338.85 121.6 337.46 118.17 336.69C103.2 333.34 88.51 339.72 73.51 337.15C67.37 336.1 61.83 332.17 55.71 330.92C49.77 329.72 43.85 330.2 37.86 330.06C35.27 330 25.12 330.9 24 326.87C23.05 323.47 29.47 320.51 31.44 319.82C37.12 317.83 43.9 318.64 49.73 318.84C60.03 319.18 70.27 320.71 80.57 320.94C93.24 321.22 106.17 322.13 118.81 321C127.34 320.24 135.65 317.85 144.12 316.71C151.32 315.74 159 316.63 166.12 318.14C167.63 318.46 169.3 319.07 170.79 319.12C171.84 319.15 173.38 318.19 174.02 319.31L173.66 318.89Z" />
		<g id="Layer">
			<path id="Layer" class="shp1" d="M160.95 319.74L160.94 319.73C160.97 319.71 161 319.69 161.03 319.67C161.04 319.66 161.04 319.66 161.05 319.66C161.09 319.62 161.14 319.59 161.2 319.56C161.25 319.53 161.3 319.49 161.36 319.46L161.36 319.46C161.45 319.4 161.55 319.34 161.64 319.27L161.64 319.27C161.74 319.2 161.84 319.13 161.94 319.05C162 319 162.05 318.96 162.11 318.91C162.16 318.86 162.21 318.82 162.26 318.78L162.26 318.78C162.29 318.75 162.31 318.73 162.34 318.71C162.34 318.7 162.35 318.69 162.36 318.69L162.36 318.69C162.61 318.45 162.86 318.2 163.1 317.93C163.14 317.88 163.19 317.82 163.24 317.77L163.24 317.77C163.4 317.58 163.57 317.37 163.74 317.17L163.74 317.17C163.87 317 164 316.84 164.12 316.67C164.17 316.6 164.23 316.53 164.28 316.47L164.28 316.47C164.38 316.34 164.47 316.21 164.57 316.08L164.57 316.08C164.83 315.73 165.08 315.39 165.35 315.05C165.37 315.01 165.4 314.98 165.42 314.94L165.42 314.94C165.63 314.69 165.82 314.43 166.03 314.19C166.03 314.19 166.03 314.18 166.04 314.18L166.04 314.18C166.05 314.17 166.06 314.16 166.07 314.14C166.17 314.02 166.28 313.9 166.39 313.78C166.4 313.76 166.41 313.75 166.42 313.74L166.42 313.74C166.72 313.4 167.04 313.06 167.35 312.77C167.35 312.77 167.36 312.77 167.36 312.76L167.36 312.77C167.5 312.64 167.63 312.52 167.76 312.42C167.76 312.41 167.75 312.42 167.75 312.42C167.76 312.41 167.76 312.41 167.76 312.41C167.93 312.27 168.1 312.15 168.24 312.06L168.24 312.06L168.24 312.06C169.05 311.57 169.4 312.01 168.24 314.82C168.23 314.83 168.23 314.84 168.22 314.86L168.22 314.86C168.18 314.96 168.13 315.06 168.09 315.15C168.09 315.15 168.09 315.15 168.08 315.15C167.92 315.51 167.73 315.84 167.51 316.15C167.48 316.2 167.45 316.24 167.42 316.29L167.42 316.29C166.39 317.71 164.96 318.67 163.7 319.25C163.7 319.25 163.7 319.25 163.69 319.25L163.69 319.25C163.59 319.3 163.48 319.35 163.38 319.39L163.38 319.39C163.37 319.4 163.36 319.4 163.36 319.4C162.78 319.64 162.26 319.8 161.84 319.89L161.84 319.89L161.84 319.89C161.1 320.04 160.7 319.98 160.95 319.74Z" />
			<path id="Layer" class="shp1" d="M138.45 326.88L138.45 326.88C138.49 326.88 138.52 326.87 138.56 326.87C139.07 326.82 139.56 326.77 140.01 326.71L140.01 326.71C140.11 326.7 140.21 326.69 140.31 326.68C141.05 326.59 141.72 326.49 142.34 326.39C142.55 326.35 142.75 326.32 142.94 326.28L142.94 326.28C144.23 326.04 145.25 325.78 146.09 325.49C146.14 325.47 146.19 325.46 146.24 325.44L146.24 325.44C146.29 325.42 146.35 325.4 146.4 325.38C146.52 325.34 146.63 325.29 146.74 325.25C147.36 325.01 147.88 324.75 148.38 324.48C148.55 324.39 148.71 324.3 148.88 324.21C149.92 323.62 150.91 322.98 152.46 322.33L152.46 322.33C152.56 322.29 152.67 322.24 152.77 322.2L152.77 322.2C152.84 322.17 152.91 322.14 152.98 322.11L152.98 322.11C153.04 322.09 153.11 322.07 153.17 322.04C153.25 322.01 153.33 321.98 153.42 321.95C154.56 321.52 155.44 321.24 156.09 321.09L156.09 321.09C156.1 321.08 156.1 321.08 156.11 321.08C156.19 321.06 156.27 321.04 156.35 321.03C156.36 321.03 156.37 321.02 156.37 321.02L156.37 321.02C156.64 320.97 156.86 320.94 157.04 320.93C157.05 320.93 157.06 320.93 157.06 320.93L157.06 320.93C158.01 320.93 157.54 321.7 156.11 322.99L156.11 322.99C156.05 323.05 155.98 323.12 155.91 323.18C155.62 323.44 155.3 323.71 154.94 324.01C154.55 324.33 154.35 324.53 154.29 324.63C154.28 324.64 154.27 324.65 154.27 324.66C154.27 324.67 154.27 324.68 154.27 324.68C154.27 324.69 154.27 324.7 154.28 324.7C154.28 324.71 154.29 324.71 154.3 324.71C154.31 324.71 154.33 324.71 154.35 324.71C154.36 324.71 154.37 324.7 154.38 324.7C154.41 324.69 154.43 324.69 154.46 324.68C154.62 324.63 154.87 324.52 155.17 324.38C155.24 324.35 155.32 324.31 155.39 324.28C157.31 323.38 160.69 321.68 157.36 325.21C156.31 326.31 154.92 327.03 153.36 327.49C153.3 327.51 153.24 327.53 153.17 327.55C153.17 327.55 153.17 327.55 153.17 327.54C152.74 327.67 152.3 327.76 151.85 327.85L151.85 327.85C151.85 327.85 151.84 327.85 151.83 327.85C151.64 327.88 151.45 327.92 151.26 327.95L151.26 327.95L151.26 327.95C151.16 327.96 151.06 327.97 150.95 327.99L150.95 327.99C150.91 328 150.87 328 150.82 328.01C149.81 328.13 148.77 328.18 147.75 328.17L147.75 328.17C147.71 328.17 147.67 328.17 147.63 328.17C147.4 328.17 147.18 328.16 146.95 328.15L146.95 328.15C146.93 328.15 146.9 328.15 146.87 328.15C146.79 328.15 146.72 328.15 146.64 328.14C146.64 328.14 146.63 328.14 146.62 328.14L146.62 328.14C146.55 328.14 146.48 328.13 146.41 328.13C146.41 328.13 146.41 328.13 146.4 328.13C146.33 328.13 146.26 328.12 146.19 328.12L146.19 328.12C146.14 328.12 146.09 328.11 146.04 328.11L146.04 328.11C146.03 328.11 146.03 328.11 146.02 328.11C145.6 328.09 145.19 328.05 144.79 328.01C144.77 328.01 144.75 328.01 144.73 328.01L144.73 328.01C144.56 327.99 144.39 327.97 144.21 327.95C144.12 327.94 144.02 327.93 143.93 327.92L143.93 327.92C142.8 327.79 141.77 327.62 140.91 327.46C140.84 327.44 140.78 327.43 140.71 327.42L140.71 327.42C140.54 327.38 140.37 327.35 140.21 327.32L140.21 327.32C140.2 327.32 140.2 327.32 140.2 327.31C140.01 327.28 139.83 327.24 139.66 327.2C139.64 327.2 139.62 327.19 139.6 327.19L139.6 327.19C139.25 327.11 138.96 327.04 138.75 326.99L138.75 326.99C138.74 326.99 138.73 326.98 138.72 326.98C138.69 326.97 138.68 326.97 138.66 326.97C138.6 326.95 138.56 326.94 138.52 326.93C138.51 326.93 138.51 326.93 138.51 326.93C138.49 326.92 138.47 326.92 138.45 326.91L138.45 326.91C138.4 326.9 138.36 326.89 138.36 326.89C138.39 326.89 138.42 326.88 138.45 326.88Z" />
			<path id="Layer" class="shp1" d="M131.57 321.33C130.44 321.35 129.79 321.32 129.79 321.32L132.08 317.99C133.17 317.72 134.49 317.3 136 316.67L136 316.67C136.05 316.64 136.11 316.62 136.16 316.6C137.1 316.2 138.11 315.72 139.19 315.13L139.19 315.13C139.28 315.08 139.37 315.04 139.46 314.98L139.46 314.98C139.91 314.74 140.37 314.47 140.84 314.19C140.84 314.19 140.85 314.19 140.85 314.18L140.85 314.18C141.75 313.65 142.68 313.04 143.65 312.37C143.77 312.28 143.89 312.2 144.01 312.11C144.3 311.9 144.59 311.69 144.89 311.47C144.92 311.45 144.95 311.42 144.99 311.4L144.99 311.4C145.01 311.38 145.04 311.36 145.07 311.33L145.07 311.33C145.12 311.3 145.18 311.25 145.23 311.21L145.23 311.21C145.45 311.05 145.67 310.88 145.89 310.71L145.89 310.71C145.91 310.69 145.93 310.67 145.95 310.66C146.72 310.06 147.5 309.42 148.3 308.73C148.31 308.72 148.32 308.71 148.32 308.71L148.32 308.71C148.68 308.4 149.03 308.09 149.38 307.77C149.39 307.76 149.39 307.76 149.4 307.75L149.4 307.75C149.65 307.53 149.9 307.3 150.15 307.07L150.15 307.07C150.21 307.02 150.26 306.96 150.32 306.91C150.39 306.85 150.46 306.78 150.53 306.71L150.53 306.71C150.54 306.7 150.55 306.69 150.57 306.67C150.73 306.52 150.89 306.37 151.05 306.21C151.16 306.11 151.27 306 151.38 305.9C152.65 304.65 153.96 303.29 155.3 301.79C155.33 301.75 155.37 301.71 155.4 301.67L155.4 301.67C155.48 301.58 155.56 301.48 155.64 301.4C155.66 301.37 155.69 301.34 155.71 301.32L155.71 301.32C156.64 300.26 157.58 299.14 158.54 297.94C158.6 297.87 158.65 297.8 158.71 297.73L158.71 297.73C158.77 297.66 158.83 297.58 158.89 297.51L158.89 297.51C162.17 293.43 163.13 292.51 163.02 293.13L163.02 293.13C163.02 293.14 163.02 293.14 163.02 293.14C162.97 293.43 162.69 294.06 162.31 294.86L162.31 294.86C162.3 294.88 162.29 294.9 162.28 294.92C162.04 295.41 161.76 295.97 161.48 296.56L161.48 296.56C161.43 296.66 161.38 296.75 161.34 296.85L161.34 296.85C161.31 296.91 161.28 296.97 161.25 297.04L161.25 297.04C161.2 297.14 161.14 297.25 161.09 297.36C161.07 297.4 161.05 297.44 161.03 297.49C161 297.55 160.97 297.61 160.95 297.67L160.95 297.67C160.88 297.82 160.81 297.96 160.74 298.11C160.67 298.25 160.61 298.39 160.55 298.54L160.55 298.53C160.53 298.58 160.51 298.62 160.49 298.67L160.49 298.67C160.46 298.73 160.44 298.78 160.41 298.84C160.26 299.19 160.12 299.52 159.99 299.85C159.99 299.85 159.99 299.85 160 299.85C159.97 299.9 159.95 299.95 159.93 300.01C159.84 300.24 159.77 300.47 159.7 300.68C159.66 300.78 159.63 300.89 159.61 300.99L159.61 300.99C159.56 301.18 159.51 301.36 159.49 301.52L159.49 301.52C159.47 301.65 159.46 301.76 159.46 301.87L159.46 301.87C159.46 302.2 159.56 302.42 159.79 302.48C159.84 302.49 159.88 302.5 159.93 302.5C159.94 302.5 159.94 302.5 159.94 302.5C159.99 302.5 160.05 302.49 160.11 302.48C160.16 302.48 160.21 302.46 160.26 302.45C160.29 302.44 160.32 302.43 160.35 302.42C160.38 302.41 160.42 302.4 160.45 302.39C160.49 302.37 160.53 302.36 160.58 302.34C160.65 302.3 160.74 302.26 160.83 302.22C160.97 302.14 161.11 302.07 161.23 302.01C161.24 302.01 161.24 302.01 161.25 302L161.25 302C162.8 301.25 162.36 301.87 161.27 303C161.27 303.01 161.27 303.01 161.27 303.01C161.21 303.06 161.16 303.11 161.11 303.17C161.11 303.17 161.11 303.17 161.11 303.16C160.98 303.3 160.84 303.45 160.69 303.59L160.69 303.59C160.67 303.61 160.66 303.62 160.65 303.63C160.16 304.12 159.6 304.67 159.07 305.23L159.07 305.23C159.01 305.28 158.96 305.34 158.9 305.4C158.82 305.48 158.74 305.56 158.67 305.64C158.63 305.68 158.6 305.71 158.56 305.75L158.56 305.75C158.55 305.77 158.53 305.79 158.51 305.81L158.51 305.81C158.45 305.86 158.4 305.92 158.35 305.97L158.35 305.97C157.88 306.48 157.45 306.96 157.13 307.4C157.1 307.43 157.08 307.47 157.05 307.5C157 307.57 156.95 307.65 156.9 307.72L156.9 307.72C156.85 307.8 156.8 307.87 156.76 307.95L156.76 307.95C156.3 308.72 156.37 309.2 157.47 309.08C158.16 309.01 159.12 308.51 160.2 307.78C160.26 307.74 160.32 307.69 160.39 307.65C160.82 307.35 161.27 307.01 161.74 306.65L161.74 306.65C161.78 306.61 161.83 306.58 161.87 306.54C162.04 306.41 162.22 306.27 162.39 306.13C162.44 306.09 162.48 306.05 162.53 306.02C163.19 305.47 163.87 304.89 164.54 304.31C164.59 304.27 164.64 304.23 164.68 304.19C164.69 304.19 164.68 304.19 164.68 304.19C164.81 304.08 164.93 303.97 165.05 303.87L165.05 303.87C165.1 303.82 165.16 303.77 165.21 303.72C165.72 303.27 166.22 302.82 166.7 302.4L166.7 302.4C166.8 302.31 166.9 302.22 167 302.13C167.14 302.01 167.28 301.88 167.41 301.76L167.41 301.76C167.49 301.69 167.57 301.63 167.64 301.56L167.64 301.56C167.65 301.55 167.65 301.55 167.66 301.54L167.66 301.54C167.75 301.47 167.82 301.39 167.91 301.32L167.91 301.32C168.41 300.88 168.87 300.48 169.26 300.16C169.27 300.16 169.28 300.15 169.28 300.14C169.36 300.08 169.44 300.01 169.52 299.95L169.53 299.94L169.53 299.94C169.85 299.69 170.11 299.51 170.3 299.4L170.3 299.4C170.31 299.4 170.31 299.39 170.32 299.39C170.37 299.36 170.42 299.34 170.46 299.33C170.47 299.33 170.48 299.32 170.48 299.32C170.53 299.31 170.56 299.3 170.59 299.3L170.6 299.3L170.6 299.3C170.75 299.3 170.75 299.48 170.57 299.89L170.57 299.89L170.57 299.89C170.56 299.93 170.54 299.97 170.52 300.02C170.51 300.03 170.5 300.05 170.5 300.06C170.37 300.32 170.19 300.66 169.95 301.07C169.94 301.07 169.94 301.08 169.94 301.09L169.94 301.08C169.73 301.44 169.47 301.85 169.17 302.33C169.16 302.35 169.15 302.36 169.14 302.37L169.14 302.37C169.09 302.45 169.04 302.53 168.99 302.61L168.99 302.6C168.97 302.64 168.95 302.67 168.93 302.69C168.91 302.73 168.9 302.76 168.87 302.79C168.86 302.81 168.85 302.83 168.83 302.85L168.83 302.85C168.56 303.28 168.24 303.75 167.9 304.26L167.9 304.26C167.86 304.32 167.82 304.38 167.78 304.43C167.45 304.92 167.1 305.43 166.72 305.99C163.01 311.39 157.77 314.89 152.4 317.17L152.4 317.17C152.39 317.17 152.39 317.17 152.39 317.17C152.36 317.18 152.34 317.19 152.31 317.2C152.3 317.21 152.29 317.21 152.27 317.22L152.27 317.22C151.86 317.39 151.45 317.56 151.04 317.72C151 317.73 150.97 317.74 150.94 317.75L150.94 317.75C150.81 317.8 150.69 317.85 150.56 317.9L150.56 317.9C150.49 317.92 150.41 317.95 150.33 317.98L150.33 317.98C150.15 318.05 149.97 318.11 149.79 318.18L149.79 318.18C149.69 318.21 149.6 318.24 149.5 318.28L149.5 318.28C148.81 318.51 148.13 318.73 147.45 318.93L147.45 318.93C147.32 318.97 147.2 319.01 147.06 319.05L147.06 319.05C146.52 319.21 145.98 319.35 145.45 319.49C145.45 319.49 145.45 319.49 145.44 319.49L145.44 319.49C145.21 319.55 144.99 319.61 144.76 319.66L144.76 319.66C144.74 319.66 144.72 319.67 144.7 319.67C144.37 319.75 144.05 319.83 143.73 319.9C143.66 319.91 143.6 319.93 143.54 319.94L143.54 319.94C143.13 320.03 142.72 320.11 142.31 320.19C142.3 320.19 142.3 320.2 142.29 320.2L142.29 320.2C141.38 320.38 140.49 320.53 139.64 320.65L139.64 320.65C139.62 320.66 139.6 320.66 139.58 320.66C139.51 320.67 139.45 320.68 139.38 320.69L139.38 320.69C139.31 320.7 139.24 320.71 139.17 320.72L139.17 320.72C138.9 320.76 138.64 320.8 138.38 320.83L138.38 320.83C138.27 320.84 138.17 320.86 138.07 320.87C137.99 320.88 137.9 320.89 137.81 320.9C137.81 320.9 137.8 320.9 137.79 320.91C137.79 320.91 137.79 320.91 137.79 320.9C136.86 321.01 135.98 321.1 135.18 321.16C135.17 321.16 135.16 321.16 135.15 321.16L135.15 321.16C134.65 321.2 134.17 321.23 133.73 321.26L133.73 321.26C133.7 321.26 133.67 321.26 133.64 321.26C133.55 321.27 133.47 321.27 133.38 321.28C133.33 321.28 133.27 321.28 133.22 321.28L133.22 321.28C132.64 321.31 132.13 321.33 131.68 321.33L131.68 321.33L131.68 321.33C131.66 321.33 131.64 321.33 131.63 321.33L131.63 321.33C131.6 321.33 131.59 321.33 131.57 321.33Z" />
			<path id="Layer" class="shp1" d="M171.36 294.71L171.36 294.71C171.38 294.6 171.39 294.49 171.41 294.38L171.41 294.38C171.48 293.83 171.53 293.28 171.56 292.75L171.56 292.75C171.56 292.68 171.57 292.61 171.57 292.54L171.57 292.54C171.58 292.41 171.59 292.28 171.59 292.15C171.6 292.02 171.6 291.88 171.61 291.75C171.61 291.44 171.62 291.13 171.62 290.84L171.62 290.84C171.62 290.74 171.62 290.65 171.62 290.55L171.62 290.55C171.63 289.83 171.62 289.19 171.64 288.66L171.64 288.66L171.64 288.66C171.67 287.5 171.8 286.92 172.37 287.36L172.37 287.36L172.37 287.36C172.4 287.38 172.44 287.42 172.47 287.45C172.49 287.46 172.5 287.48 172.52 287.49C172.55 287.52 172.58 287.55 172.61 287.59C172.64 287.62 172.67 287.65 172.7 287.69C172.73 287.72 172.75 287.74 172.77 287.77C172.83 287.84 172.9 287.91 172.96 288C172.99 288.02 173 288.05 173.02 288.08L173.02 288.08C173.03 288.1 173.04 288.11 173.05 288.13C173.05 288.12 173.05 288.12 173.05 288.12C173.06 288.13 173.06 288.13 173.06 288.14C173.13 288.23 173.19 288.33 173.24 288.42C173.24 288.43 173.25 288.43 173.25 288.44C173.3 288.54 173.35 288.63 173.39 288.73C173.4 288.74 173.4 288.74 173.4 288.75L173.4 288.75C173.72 289.53 173.73 290.4 173.56 291.26L173.56 291.26C173.56 291.29 173.55 291.31 173.55 291.33C173.45 291.81 173.29 292.28 173.11 292.74L173.11 292.74C173.09 292.79 173.07 292.85 173.05 292.91C172.92 293.22 172.77 293.53 172.62 293.81L172.62 293.81C172.62 293.82 172.62 293.83 172.62 293.83C172.59 293.88 172.56 293.94 172.54 293.99L172.53 293.99L172.53 293.99C172.47 294.11 172.41 294.22 172.35 294.33L172.34 294.34L172.34 294.34C171.81 295.29 171.28 296 171.1 296.23C171.1 296.24 171.08 296.25 171.08 296.26L171.08 296.26C171.05 296.29 171.04 296.31 171.04 296.31C171.18 295.79 171.28 295.25 171.36 294.71Z" />
		</g>
		<path id="Layer" fill-rule="evenodd" class="shp1" d="M129.1 322.95C131.84 322.16 135.66 322.06 138.46 322.5C141.76 323.03 147.15 323.55 149.93 321.2C148.44 322.82 145.23 323.85 143.13 324.1C140.31 324.43 136.91 324.27 134.06 324.23C135.54 324.92 137.29 325.44 138.86 325.89C136.49 325.27 133.76 326.94 131.42 327.4C127.98 328.09 124.38 327.34 120.95 326.97C117.7 326.63 114.65 328.43 111.38 327.74C110.22 327.5 106.31 326.67 105.65 325.64C103.68 322.58 112.24 322.14 113.63 322.17C117.75 322.26 121.91 323.27 126.07 323.09C127.34 323.04 128.83 323.12 130.06 322.73C130.09 322.93 130.18 322.88 130.29 322.94L129.1 322.95Z" />
		<path id="Layer" class="shp2" d="M128.67 250.03L123.95 254.94" />
		<path id="Layer" class="shp3" d="M136.3 262.92C136.7 263.1 137.21 262.83 137.45 262.31L137.45 262.31C137.69 261.79 137.56 261.23 137.17 261.05L111.6 249.23C111.2 249.05 110.69 249.32 110.45 249.84L110.45 249.84C110.21 250.35 110.34 250.92 110.73 251.1L136.3 262.92Z" />
		<path id="Layer" fill-rule="evenodd" class="shp3" d="M106.22 272.76L106.94 276.2C106.94 276.2 103.66 280.8 92.28 281.8C92.28 281.8 90.73 278.53 91.21 274.95C91.01 275.64 106.22 272.76 106.22 272.76Z" />
		<path id="Layer" class="shp3" d="M98.09 273.26C103.04 272.54 106.41 267.65 105.63 262.33C104.85 257.01 100.22 253.3 95.27 254.03C90.32 254.75 86.95 259.64 87.73 264.96C88.51 270.27 93.14 273.99 98.09 273.26Z" />
		<path id="Layer" class="shp4" d="M80.37 321.48L80.38 321.48C80.36 321.29 80.44 321.08 80.67 320.86C81.26 320.06 81.91 319.28 82.71 318.53L82.71 318.53C82.73 318.52 82.74 318.51 82.75 318.49C82.89 318.37 83.04 318.24 83.18 318.12C83.21 318.09 83.24 318.06 83.27 318.04L83.27 318.04C83.76 317.63 84.3 317.24 84.91 316.86L84.91 316.86L84.91 316.86C85.13 316.72 85.35 316.59 85.58 316.46C85.64 316.43 85.71 316.4 85.77 316.36C85.93 316.27 86.1 316.18 86.28 316.09C86.32 316.07 86.36 316.05 86.41 316.03L86.41 316.03C86.86 315.81 87.34 315.59 87.86 315.39L87.85 315.39C87.9 315.37 87.95 315.35 88 315.33C88.11 315.28 88.23 315.24 88.34 315.2C88.47 315.15 88.6 315.1 88.74 315.05C88.86 315.01 88.99 314.96 89.11 314.92C89.17 314.9 89.23 314.88 89.29 314.86L89.29 314.86C90.94 314.3 92.9 313.81 95.27 313.39L95.27 313.39C95.42 313.36 95.59 313.33 95.75 313.3C95.83 313.29 95.91 313.28 95.99 313.26C96.34 313.2 96.7 313.15 97.07 313.09C97.16 313.08 97.27 313.07 97.37 313.05C97.68 313 98 312.96 98.32 312.92C98.41 312.91 98.49 312.89 98.57 312.88C98.61 312.88 98.64 312.87 98.68 312.87L98.68 312.87C100.63 312.62 102.81 312.41 105.24 312.25L105.24 312.25C105.54 312.22 105.85 312.2 106.17 312.19C106.27 312.18 106.37 312.17 106.47 312.17C106.73 312.15 106.98 312.14 107.24 312.12L107.23 312.12C107.51 312.11 107.79 312.09 108.07 312.08C111.78 311.9 115.25 311.6 118.41 311.28L118.41 311.28C118.61 311.26 118.8 311.24 118.99 311.21C129.87 310.1 137.06 308.84 138.12 311.66L138.14 311.65C140.22 311.63 138.08 315.95 138.08 315.95C130.78 328.19 82.27 323.95 80.98 323.41C79.69 322.86 80.37 321.48 80.37 321.48Z" />
		<g id="Layer">
			<g id="Layer">
				<g id="Layer">
					<path id="Layer" fill-rule="evenodd" class="shp5" d="M119.35 286.59C115.21 283.28 110.79 280.6 105.48 279.97C102.1 282.22 98.48 283.79 94.35 283.79C93.97 285.29 97.2 297.75 99.49 302.22C95.28 304.78 95.98 304 92.6 307.08C89.92 309.5 88.38 310.64 86.5 312.56C87.28 313.39 88.14 314.11 89.16 314.6C90.14 314.63 90.61 313.74 91.34 313.33C94.27 311.42 94.91 311.31 96.71 310.31C98.44 309.34 100.08 308.18 101.77 307.12C105.63 304.7 106.54 302.36 105.2 297.78C104.79 296.33 104.53 294.86 104.25 293.37C103.72 290.6 105.41 290.86 106.58 290.79C107.84 290.72 109 291.02 110.14 291.55C112.02 292.42 113.81 293.56 115.86 294.01C116.91 294.24 117.79 294.71 117.83 295.83C118 300.64 117.62 298.07 118.21 302.8C118.46 304.77 118.63 308.79 119.29 311.81C119.49 312.7 119.36 314.15 120.35 314.79C121.69 315.13 121.11 314.78 122.3 314.06C122.94 313.4 122.99 312.51 123.08 311.65C123.61 306.38 123.5 298.51 124.22 293.26C124.62 290.37 123.75 289.09 121.38 288.14C120.7 287.63 120.02 287.11 119.35 286.59Z" />
				</g>
			</g>
		</g>
		<path id="Layer" class="shp6" d="M93.27 285.7C93.42 286.07 93.58 286.42 93.74 286.75C93.59 286.4 93.43 286.04 93.27 285.7Z" />
		<path id="Layer" class="shp7" d="M92.51 283.8L92.53 283.89C92.53 283.89 92.53 283.89 92.53 283.9L92.53 283.92L92.53 283.92C92.55 284.04 92.58 284.16 92.6 284.28C92.62 284.38 92.63 284.48 92.66 284.58C92.81 285.34 93 286.04 93.21 286.68C93.31 287.01 93.43 287.33 93.55 287.63C93.71 287.97 93.87 288.32 94.03 288.68C95.62 292.38 96.78 296.65 96.78 296.65L96.8 297.58L96.81 298.93C96.91 298.98 97 299.03 97.1 299.07C97.15 299.1 97.2 299.12 97.25 299.15C97.27 299.15 97.27 299.16 97.29 299.16C97.36 299.2 97.45 299.25 97.53 299.28L97.53 299.28C101.22 300.95 104.71 300.5 107.13 299.73L107.13 299.73C108.05 299.44 108.81 299.11 109.38 298.83C109.38 298.82 109.4 298.82 109.41 298.81C110.07 298.47 110.45 298.22 110.45 298.22C110.43 298.19 110.42 298.15 110.41 298.12L110.4 298.12C110.24 297.76 110.1 297.37 109.97 296.96L109.94 296.86C109.79 296.36 109.67 295.8 109.56 295.22C112.5 295.81 114.96 296.53 114.96 296.53L115.76 297.01L116.92 297.71C117.01 297.65 117.1 297.59 117.19 297.53C117.24 297.5 117.29 297.47 117.34 297.44C117.35 297.43 117.36 297.43 117.37 297.42C117.44 297.37 117.52 297.32 117.59 297.28L117.6 297.27C120.94 295 122.38 291.79 122.99 289.33L122.99 289.32C123.23 288.39 123.34 287.56 123.4 286.93C123.4 286.92 123.4 286.91 123.4 286.9C123.46 286.16 123.44 285.7 123.44 285.7C123.41 285.7 123.37 285.69 123.33 285.68L123.33 285.69C122.94 285.64 122.53 285.56 122.11 285.45L122.02 285.43C120.98 285.15 119.85 284.69 118.69 284.13C118.44 284.01 118.19 283.88 117.95 283.75C117.9 283.73 117.85 283.7 117.81 283.68C117.56 283.55 117.31 283.41 117.06 283.27C116.96 283.22 116.87 283.17 116.77 283.11C116.44 282.93 116.11 282.73 115.78 282.53C115.77 282.53 115.77 282.52 115.76 282.52C115.42 282.32 115.09 282.11 114.76 281.9C114.74 281.89 114.72 281.88 114.7 281.87C114.38 281.67 114.06 281.46 113.75 281.25C113.74 281.25 113.74 281.24 113.73 281.24C113.41 281.03 113.09 280.81 112.78 280.6C112.25 280.24 111.73 279.87 111.24 279.52C111.2 279.49 111.15 279.45 111.1 279.42C108.66 277.65 106.94 276.2 106.94 276.2C106.71 276.42 106.47 276.63 106.23 276.83C106.22 276.84 106.21 276.85 106.2 276.86C106.01 277.01 105.82 277.17 105.62 277.31C105.5 277.4 105.39 277.49 105.27 277.58C105.26 277.58 105.25 277.59 105.24 277.6C105.18 277.64 105.13 277.68 105.06 277.72C105.05 277.73 105.04 277.74 105.02 277.75C104.69 277.98 104.35 278.19 104.01 278.39C103.88 278.47 103.74 278.55 103.61 278.62C103.6 278.63 103.58 278.64 103.57 278.64C103.34 278.77 103.12 278.88 102.89 279C102.87 279.01 102.85 279.02 102.83 279.03C102.82 279.03 102.82 279.03 102.82 279.03C102.62 279.13 102.41 279.23 102.21 279.32C102.02 279.41 101.82 279.5 101.62 279.58L101.62 279.58C101.59 279.59 101.56 279.6 101.53 279.62C101.37 279.68 101.21 279.76 101.05 279.82C101.04 279.82 101.03 279.82 101.02 279.83C100.73 279.94 100.44 280.05 100.16 280.15C100.14 280.15 100.12 280.16 100.1 280.17C100.03 280.19 99.97 280.21 99.91 280.24C99.91 280.23 99.91 280.23 99.91 280.23C99.88 280.25 99.84 280.26 99.81 280.27C99.73 280.3 99.65 280.32 99.56 280.35C99.52 280.36 99.47 280.38 99.42 280.4C99.41 280.4 99.41 280.4 99.4 280.4C99.35 280.42 99.3 280.43 99.25 280.45L99.25 280.45C99.21 280.46 99.17 280.47 99.13 280.48C99.11 280.49 99.09 280.5 99.07 280.51C99.07 280.5 99.07 280.51 99.07 280.51C98.95 280.55 98.82 280.58 98.7 280.62C98.67 280.63 98.64 280.63 98.6 280.65C98.54 280.66 98.48 280.68 98.42 280.7C98.39 280.7 98.37 280.71 98.35 280.72L98.33 280.72C98.29 280.73 98.25 280.75 98.21 280.76L98.21 280.76C98.14 280.78 98.08 280.79 98.01 280.81L98.01 280.81C97.99 280.81 97.97 280.82 97.96 280.83C97.91 280.84 97.88 280.85 97.84 280.86L97.83 280.86C97.65 280.9 97.47 280.95 97.29 280.99C97.29 280.99 97.29 280.99 97.29 281C97.22 281.01 97.16 281.03 97.09 281.04L97.09 281.04C97.07 281.05 97.05 281.05 97.02 281.06C96.65 281.15 96.29 281.22 95.95 281.29C95.91 281.3 95.88 281.31 95.84 281.31C93.75 281.72 92.28 281.8 92.28 281.8C92.3 281.95 92.31 282.08 92.32 282.22C92.33 282.26 92.33 282.29 92.33 282.32C92.35 282.44 92.36 282.56 92.37 282.68L92.37 282.69C92.37 282.75 92.38 282.81 92.39 282.87C92.39 282.88 92.39 282.9 92.39 282.91L92.42 283.09C92.43 283.15 92.43 283.2 92.44 283.26L92.46 283.41C92.48 283.54 92.49 283.67 92.51 283.8Z" />
		<path id="Layer" fill-rule="evenodd" class="shp5" d="M119.5 313.17C119.07 313.98 118.73 314.33 118.79 315.33C119.1 316.19 119.35 317.01 120.35 316.63C122.54 315.77 124.48 316.39 126.72 316.49C127.35 316.52 129.29 316.02 129.92 315.87C130.5 314.35 129.22 314.61 128.38 314.47C126.81 314.21 124.11 313.86 122.81 313.01C121.64 313.19 120.67 312.99 119.5 313.17Z" />
		<path id="Layer" fill-rule="evenodd" class="shp5" d="M87.25 312.06C86.96 312.23 86.67 312.39 86.38 312.56C86.28 312.69 86.16 312.82 86.06 312.95C84.87 314.56 85.02 315.22 86.85 316C87.71 316.36 88.41 316.93 89.1 317.56C90.37 318.71 91.95 319.19 93.2 318.26C93.43 318.09 93.83 317.87 94.11 317.63C90.37 316.19 90.02 315.16 89.11 313.5C88.71 312.71 88.1 312.23 87.25 312.06Z" />
		<g id="Layer">
			<path id="Layer" class="shp3" d="M103.03 267.94C103.34 267.89 105.7 266.25 108.32 264.36L108.32 264.36C111.91 261.79 115.71 258.72 115.71 258.72L114.39 256.6C114.39 256.6 109.52 259.22 106.16 260.95C104.58 261.77 103.34 262.39 103.11 262.45C102.4 262.61 101.65 262.29 100.68 261.19C99.71 260.09 94.79 255.8 94.21 255.3C93.64 254.8 91.76 253.99 90.64 255.52C89.52 257.04 89.44 258.14 89.44 258.14C89.44 258.14 89.35 258.64 92.99 261.45C96.63 264.25 102.31 268.03 103.03 267.94Z" />
		</g>
		<g id="Layer">
			<path id="Layer" class="shp5" d="M108.32 264.36L108.32 264.36C111.91 261.79 115.83 258.62 115.83 258.62L114.95 256.22C114.95 256.22 109.51 259.22 106.16 260.95C106.16 260.95 105.99 262.27 108.32 264.36Z" />
		</g>
		<g id="Layer">
			<g id="Layer">
				<g id="Layer">
					<path id="Layer" class="shp5" d="M114.34 257.08C114.34 257.08 115.79 255.12 116.08 254.32C116.31 253.7 117.36 252.47 117.93 252.35C118.5 252.24 121.62 252.73 121.91 252.62C122.19 252.51 122.33 253.05 121.92 253.3C121.92 253.3 122.76 254.32 121.83 254.88C120.89 255.44 119.67 255.43 119.24 255.75C118.81 256.08 115.46 258.92 115.46 258.92C115.46 258.92 113.66 257.56 114.34 257.08Z" />
				</g>
			</g>
		</g>
		<g id="Layer">
			<g id="Layer">
				<path id="Layer" class="shp5" d="M92.72 255.06C92.72 255.06 92.44 253.39 91.3 250.09C90.99 249.21 96.92 251.71 96.92 251.71C96.92 251.71 96.95 252.03 97 252.46C97.03 252.69 97.06 252.95 97.1 253.2C97.11 253.3 97.13 253.39 97.14 253.47C97.18 253.71 97.23 253.94 97.28 254.13C97.33 254.33 97.5 254.67 97.55 254.76C97.86 255.25 94.75 256.11 92.72 255.06Z" />
			</g>
			<g id="Layer">
				<path id="Layer" class="shp5" d="M98.56 242.94C98.56 242.94 100.08 244.99 99.54 245.42C99.09 245.77 100.48 247.79 100.66 248.13C100.86 248.46 99.87 248.87 99.68 249.13C99.5 249.39 99.26 252.31 98.43 252.51C97.6 252.72 93.6 251.96 92.4 251.03C91.21 250.1 89.64 245.36 90.03 243.2C90.42 241.05 95.88 239.38 98.56 242.94Z" />
			</g>
			<g id="Layer">
				<path id="Layer" class="shp8" d="M99.15 243.84C99.15 243.84 99.9 239.98 97.68 239.57C94.86 239.06 91.15 241.63 90.71 241.82C90.26 242 87.68 242.57 89.67 246.96C91.38 250.74 91.56 250.88 91.56 250.88C91.56 250.88 92.07 248.48 92.5 248.06C93.17 247.4 94.83 247.29 94.83 247.29C94.83 247.29 93.75 245.33 94.92 244.86C96.1 244.38 96.51 246.12 99.15 243.84Z" />
			</g>
			<g id="Layer">
				<path id="Layer" class="shp9" d="M93.36 246.29C93.21 246.02 92.68 244.85 91.73 245.73C90.79 246.6 92.83 248.66 93.02 248.66C93.21 248.66 94.62 248.56 93.36 246.29Z" />
			</g>
			<path id="Layer" class="shp10" d="M97.1 253.2C97.12 253.3 97.13 253.39 97.14 253.47C93.88 252.89 93.04 251.4 93.04 251.4C94.11 251.95 97 252.46 97 252.46C97.03 252.69 97.06 252.95 97.1 253.2Z" />
		</g>
		<path id="Layer" class="shp4" d="M101.25 255.44C101.25 255.44 94.55 258.54 102.25 265.45C102.23 265.62 105.11 265.2 105.11 265.2C105.11 265.2 107.58 272.07 106.22 272.76C104.86 273.44 96.69 280.39 90.17 277.9C89.95 278.09 83.74 256.68 89.53 254.4C89.53 254.4 98.52 252.82 101.25 255.44Z" />
		<g id="Layer">
			<g id="Layer">
				<path id="Layer" class="shp3" d="M111.1 270.69C111.41 270.68 113.94 269.32 116.77 267.76L116.77 267.76C120.63 265.62 124.77 263.02 124.77 263.02L123.71 260.76C123.71 260.76 118.56 262.79 115.02 264.12C113.35 264.75 112.05 265.22 111.81 265.24C111.09 265.32 110.38 264.91 109.55 263.71C108.72 262.5 104.34 257.66 103.82 257.1C103.31 256.54 101.54 255.51 100.25 256.9C98.96 258.28 98.75 259.36 98.75 259.36C98.75 259.36 98.59 259.85 101.88 263.06C105.17 266.28 110.37 270.69 111.1 270.69Z" />
			</g>
			<g id="Layer">
				<path id="Layer" class="shp5" d="M116.77 267.76L116.77 267.76C120.63 265.62 124.9 262.94 124.9 262.94L124.31 260.45C124.31 260.45 118.56 262.79 115.02 264.12C115.02 264.12 114.7 265.41 116.77 267.76Z" />
			</g>
			<g id="Layer">
				<g id="Layer">
					<path id="Layer" class="shp5" d="M123.6 261.23C123.6 261.23 125.27 259.46 125.66 258.69C125.95 258.1 127.14 257 127.72 256.96C128.3 256.91 131.34 257.77 131.64 257.69C131.93 257.62 132 258.17 131.57 258.36C131.57 258.36 132.28 259.48 131.29 259.92C130.31 260.37 129.09 260.22 128.62 260.49C128.15 260.77 124.49 263.2 124.49 263.2C124.49 263.2 122.87 261.62 123.6 261.23Z" />
				</g>
			</g>
			<g id="Layer">
				<g id="Layer">
					<path id="Layer" class="shp5" d="M127.39 257.06C127.39 257.06 128.17 256.71 128.43 256.66C128.69 256.61 129.68 256.38 129.92 256.32C130.16 256.26 130.15 256.91 128.73 257.62C127.3 258.34 127.39 257.06 127.39 257.06Z" />
				</g>
			</g>
		</g>
		<g id="Layer">
			<path id="Layer" class="shp4" d="M275.22 79.78C264.2 80.87 254.01 85.11 246.75 92.44C241.71 97.53 259.91 89.97 259.91 89.97C278.77 90.66 292.48 106.12 298.69 131.88C304.69 156.79 294.15 176.77 274.92 178.68C272.21 178.94 278.46 180.81 285.13 180.16C312.57 177.44 332.59 152.78 329.85 125.06C327.11 97.34 302.65 77.07 275.22 79.78Z" />
			<g id="Layer">
				<path id="Layer" class="shp11" d="M254.77 90.48C254.77 90.48 249.88 92.51 245.88 93.76C245.83 95.34 254.1 92.28 257.96 90.76C256.91 90.62 255.85 90.52 254.77 90.48Z" />
				<path id="Layer" class="shp5" d="M274.98 80.08C274.2 80.15 273.43 80.28 272.66 80.39C298.93 79.28 321.82 99.1 324.47 125.86C327.11 152.6 307.9 176.28 281.97 180.38C282.71 180.36 283.46 180.32 284.22 180.25C311.65 177.54 332.35 153.07 329.61 125.35C326.87 97.64 302.41 77.36 274.98 80.08Z" />
			</g>
			<path id="Layer" class="shp5" d="M304.22 131.43C297.89 104.48 284.11 88.25 265.23 87.46C265.23 87.46 247.05 95.27 252.08 89.98C254.43 87.5 257.12 85.39 260.02 83.6C255.02 85.73 250.49 88.67 246.75 92.44C241.71 97.53 259.91 89.98 259.91 89.98C278.77 90.66 292.48 106.12 298.69 131.89C304.69 156.79 294.15 176.78 274.92 178.68C273.75 178.79 274.25 179.2 275.74 179.59C294.97 177.69 310.33 157.48 304.22 131.43Z" />
			<path id="Layer" class="shp12" d="M246.75 92.44C254.01 85.11 264.2 80.87 275.22 79.78C280.5 79.26 285.11 79.55 289.34 80.4C288.85 80.37 288.37 80.35 287.9 80.34C289.63 80.49 290.59 80.67 290.59 80.67C271.21 79.82 266.69 87.33 260.38 90.4C260.38 90.4 247.41 95.35 246.01 94.06C245.7 93.83 245.87 93.33 246.75 92.44Z" />
			<g id="Layer">
				<path id="Layer" class="shp12" d="M129.96 249.9C129.97 249.9 129.99 249.9 130 249.89L275.08 179.1C275.15 179.07 275.18 178.99 275.14 178.92C275.11 178.86 275.03 178.83 274.97 178.86L129.88 249.65C129.82 249.69 129.79 249.77 129.82 249.83C129.85 249.89 129.9 249.91 129.96 249.9Z" />
			</g>
			<g id="Layer">
				<path id="Layer" class="shp12" d="M128.68 248.04C128.71 248.04 128.74 248.02 128.77 247.99L246.87 93.94C246.92 93.88 246.91 93.8 246.85 93.75C246.79 93.7 246.71 93.71 246.66 93.77L128.71 248.66C128.67 248.72 128.65 248.61 128.71 248.66C128.74 248.68 128.64 248.05 128.68 248.04Z" />
			</g>
		</g>
		<g id="Layer">
			<path id="Layer" class="shp7" d="M92.73 264.67C93.65 264.54 94.59 264.29 95.55 263.92C97.88 263.04 99.44 261.79 99.51 261.73C99.86 261.46 99.92 260.94 99.63 260.59C99.35 260.24 98.84 260.19 98.49 260.47C98.41 260.53 92.78 264.94 87.5 262.35C87.1 262.15 86.61 262.32 86.41 262.72C86.22 263.12 86.38 263.61 86.78 263.81C88.59 264.69 90.61 264.98 92.73 264.67Z" />
		</g>
		<g id="Layer">
			<path id="Layer" class="shp7" d="M88.03 272.31C89.84 273.2 91.86 273.49 93.98 273.18C94.9 273.04 95.84 272.79 96.79 272.43C98.68 271.71 100.07 270.75 100.56 270.39L100.56 270.39C101.12 270.09 101.66 269.74 102.2 269.34C104.19 267.85 105.36 266.22 105.41 266.15C105.67 265.79 105.59 265.28 105.22 265.02C104.86 264.76 104.35 264.85 104.09 265.21C104.05 265.26 102.48 267.41 99.95 268.86C99.89 268.89 99.84 268.92 99.79 268.94C99.77 268.95 99.76 268.96 99.74 268.98C99.69 269.02 97.01 271.12 93.62 271.58C92.08 271.79 90.4 271.66 88.75 270.85C88.35 270.66 87.86 270.82 87.66 271.22C87.46 271.63 87.63 272.12 88.03 272.31Z" />
		</g>
		<path id="Layer" class="shp3" d="M129.24 250.88C130.3 250.88 131.16 250.02 131.16 248.96C131.16 247.89 130.3 247.03 129.24 247.03C128.17 247.03 127.31 247.89 127.31 248.96C127.31 250.02 128.17 250.88 129.24 250.88Z" />
	</g>
</svg>