<svg xmlns="http://www.w3.org/2000/svg" viewBox="0 0 1123 972" width="1123" height="972">
	<style>
		tspan { white-space:pre }
		.shp0 { opacity: 0.369;fill: #cce9ff } 
		.shp1 { fill: #0b4870 } 
		.shp2 { fill: #2a94f4 } 
		.shp3 { fill: #ffffff } 
		.shp4 { fill: #0e538c } 
		.shp5 { fill: #f7f7f7 } 
		.shp6 { fill: #0b4870;stroke: #ffffff;stroke-width: 0.5 } 
		.shp7 { fill: #f2f2f2 } 
		.shp8 { fill: #d3d3d3 } 
		.shp9 { fill: #ffb750 } 
		.shp10 { fill: #ffe3ca } 
		.shp11 { fill: #eb4747 } 
		.shp12 { fill: #fcd2b1 } 
		.shp13 { fill: #f2f0f0 } 
		.shp14 { fill: #fcbaa2 } 
		.shp15 { fill: #cce9ff } 
		.shp16 { fill: #ff957e } 
		.shp17 { fill: #e9d6b8 } 
	</style>
	<g id="Layer">
		<g id="Layer">
			<path id="Layer" class="shp0" d="M320.58 653.55C321.85 656.38 323.25 659.21 324.79 661.92C347.64 702.32 394.01 727.79 443.45 732.37C483 735.98 521.49 724.36 554.56 705.39C587.57 686.49 614.03 659.88 650.71 646.03C702.42 626.58 760.08 611.23 800.64 570.05C846.74 523.26 864.51 452.34 842.8 392.49C821.69 334.09 751.6 315.18 697.14 289.47C599.26 243.17 463.69 212.41 361.8 266.77C239.73 331.86 261.92 479.61 300.6 582.15C309.42 605.51 310.49 630.68 320.58 653.55Z" />
			<path id="Layer" fill-rule="evenodd" class="shp1" d="M348.17 431.38L347.5 431.69L346.84 431.38C306.88 412.96 312.09 377.08 312.16 376.72L312.36 375.57L313.63 375.57C338.42 375.57 346.37 368.41 346.44 368.35L347.5 367.26L348.57 368.35C348.64 368.41 356.66 375.57 381.38 375.57L382.65 375.57L382.85 376.72C382.85 377.08 388.26 412.96 348.17 431.38ZM379.98 378.28C359.4 378.04 350.24 373.04 347.44 371.06C344.63 373.1 335.48 378.04 314.9 378.28C314.63 381.23 314.43 389.48 318.04 398.93C322.98 411.82 332.87 421.81 347.44 428.68C362 421.81 371.89 411.82 376.84 398.93C380.44 389.48 380.24 381.29 379.98 378.28Z" />
			<g id="Layer">
				<path id="Layer" fill-rule="evenodd" class="shp1" d="M422.07 330.6L420.67 327.28C419.4 327.16 418.19 326.86 416.99 326.5L414.12 328.91L405.83 323.55L407.44 320.3C406.64 319.4 405.97 318.43 405.43 317.41L401.49 317.29L399.82 308.2L403.5 306.93C403.63 305.79 403.96 304.71 404.36 303.62L401.69 301.03L407.64 293.51L411.25 294.95C412.25 294.23 413.32 293.63 414.45 293.15L414.59 289.59L424.68 288.09L426.08 291.4C427.35 291.52 428.55 291.82 429.75 292.18L432.63 289.77L440.91 295.13L439.31 298.38C440.11 299.29 440.78 300.25 441.31 301.27L445.25 301.39L446.92 310.49L443.25 311.75C443.05 312.89 442.78 313.98 442.38 315.06L445.05 317.65L439.11 325.18L435.5 323.73C434.5 324.45 433.43 325.06 432.29 325.54L432.16 329.09L422.07 330.6ZM416.32 323.61L417.13 323.91C418.6 324.45 420.2 324.76 421.8 324.88L422.67 324.94L423.87 327.77L429.42 326.92L429.55 323.91L430.35 323.61C431.82 323.01 433.16 322.23 434.43 321.32L435.1 320.84L438.17 322.11L441.45 318.01L439.11 315.78L439.44 315.06C440.04 313.74 440.38 312.29 440.51 310.85L440.58 310.06L443.72 308.98L442.78 303.98L439.44 303.86L439.11 303.14C438.44 301.82 437.57 300.61 436.57 299.47L436.03 298.87L437.44 296.1L432.89 293.15L430.42 295.19L429.62 294.89C428.15 294.35 426.55 294.05 424.94 293.93L424.07 293.87L422.87 291.04L417.33 291.88L417.19 294.89L416.39 295.19C414.92 295.8 413.58 296.58 412.31 297.48L411.65 297.96L408.57 296.7L405.3 300.79L407.64 303.02L407.3 303.74C406.7 305.07 406.37 306.51 406.23 307.96L406.17 308.74L403.03 309.82L403.96 314.82L407.3 314.94L407.64 315.66C408.31 316.99 409.17 318.19 410.18 319.34L410.71 319.94L409.31 322.71L413.85 325.66L416.32 323.61ZM423.27 319.4C421 319.4 418.73 318.73 416.86 317.53C411.85 314.34 410.71 308.08 414.25 303.56C417.79 299.05 424.74 298.02 429.75 301.21C432.16 302.78 433.76 305.07 434.3 307.72C434.76 310.37 434.1 313.01 432.43 315.18C430.69 317.35 428.15 318.79 425.21 319.28C424.47 319.34 423.87 319.4 423.27 319.4ZM423.27 301.88C420.67 301.88 418.13 302.96 416.52 305.01C415.25 306.63 414.72 308.62 415.12 310.61C415.52 312.59 416.66 314.28 418.46 315.42C420.27 316.57 422.47 317.05 424.68 316.69C426.88 316.33 428.75 315.3 430.02 313.68C431.29 312.05 431.82 310.06 431.42 308.08C431.02 306.09 429.89 304.4 428.08 303.26C426.61 302.36 424.94 301.88 423.27 301.88Z" />
			</g>
			<g id="Layer">
				<path id="Layer" fill-rule="evenodd" class="shp1" d="M742.38 428.74L739.24 421.33C735.9 420.97 732.56 420.31 729.42 419.28L723 424.7L705.63 413.56L709.24 406.34C707.17 403.99 705.36 401.4 703.89 398.63L695.14 398.39L691.6 379.42L699.82 376.6C700.22 373.58 700.95 370.57 702.09 367.74L696.08 361.96L708.44 346.31L716.45 349.56C719.06 347.69 721.93 346.07 725.01 344.74L725.27 336.86L746.32 333.67L749.46 341.07C752.8 341.43 756.14 342.1 759.28 343.12L765.7 337.7L783.07 348.84L779.46 356.06C781.53 358.41 783.33 361 784.8 363.77L793.56 364.01L797.1 382.98L788.88 385.81C788.48 388.82 787.74 391.83 786.61 394.66L792.62 400.44L780.26 416.09L772.24 412.84C769.64 414.71 766.76 416.33 763.69 417.66L763.42 425.54L742.38 428.74ZM728.48 415.43L729.55 415.79C733.09 417 736.83 417.78 740.64 418.08L741.84 418.2L744.72 424.94L759.68 422.65L759.95 415.43L761.02 415.01C764.49 413.62 767.77 411.76 770.71 409.53L771.58 408.87L778.93 411.82L787.74 400.68L782.27 395.38L782.67 394.42C784 391.23 784.87 387.85 785.21 384.42L785.27 383.34L792.76 380.75L790.22 367.26L782.2 367.02L781.73 366.06C780.19 362.93 778.12 359.98 775.65 357.33L774.92 356.55L778.19 349.92L765.83 341.98L759.95 346.91L758.88 346.55C755.34 345.35 751.6 344.56 747.79 344.26L746.59 344.2L743.71 337.46L728.75 339.75L728.48 346.97L727.41 347.39C723.94 348.78 720.66 350.65 717.72 352.87L716.85 353.54L709.5 350.58L700.82 361.72L706.3 367.02L705.9 367.99C704.56 371.18 703.69 374.55 703.36 377.98L703.29 379.06L695.81 381.65L698.35 395.14L706.36 395.38L706.83 396.34C708.37 399.47 710.44 402.42 712.91 405.07L713.65 405.86L710.37 412.48L722.73 420.43L728.48 415.43ZM744.25 403.03C739.37 403.03 734.49 401.7 730.22 398.99C719.33 392.01 716.79 378.34 724.54 368.53C732.29 358.71 747.46 356.43 758.35 363.41C769.24 370.39 771.78 384.06 764.03 393.87C759.28 399.84 751.8 403.03 744.25 403.03ZM744.32 362.75C737.9 362.75 731.55 365.46 727.61 370.51C724.4 374.55 723.2 379.42 724.07 384.3C725.01 389.18 727.95 393.39 732.42 396.28C741.64 402.18 754.47 400.26 761.02 391.95C764.16 387.91 765.43 383.04 764.56 378.16C763.62 373.28 760.68 369.07 756.21 366.18C752.53 363.83 748.39 362.75 744.32 362.75Z" />
			</g>
			<path id="Layer" class="shp1" d="M417.06 564.21C413.85 556.08 410.18 546.93 414.25 537.53C419.73 524.89 408.11 518.39 397.88 512.55C389.06 507.61 380.78 502.91 383.58 495.15C386.66 486.72 386.46 480.21 382.98 475.94C380.04 472.33 374.83 470.4 367.88 470.46C362.34 470.52 357.39 464.38 352.11 457.94C345.9 450.35 339.55 442.52 331.54 444.27C330.13 444.57 329 445.29 328.33 446.44C325.52 451.19 329.93 462.51 334.68 474.55C339.75 487.56 345.57 502.25 341.76 508.51C337.62 515.38 345.1 521.64 353.05 528.32C361.47 535.37 371.02 543.37 368.48 553.43C366.08 562.82 365.54 566.31 367.01 568.36C368.15 569.99 370.49 570.35 374.03 570.95C376.44 571.37 379.51 571.85 383.25 572.94C399.35 577.45 404.03 586.84 404.1 586.96L404.3 587.39L404.76 587.33C412.52 586.24 417.06 584.25 419.2 581.06C419.33 580.88 419.4 580.7 419.53 580.52C421.8 576.25 419.6 570.65 417.06 564.21Z" />
			<path id="Layer" class="shp2" d="M375.9 546.26C378.57 550 380.51 553.25 380.31 557.82C380.18 562.1 379.44 566.31 379.04 570.53C378.97 571.43 378.91 572.27 378.84 573.12C377.5 572.09 376.23 571.07 374.9 570.05C374.3 569.99 373.7 569.99 373.03 569.99C374.9 571.37 376.84 572.88 378.71 574.38C378.51 577.33 378.44 580.28 378.44 583.23C378.44 584.98 378.37 586.84 378.51 588.59C376.77 587.63 374.97 586.66 373.3 585.7C368.08 582.81 363.21 580.1 359.46 578.66C356.59 577.57 353.38 576.61 350.31 575.7C342.29 573.36 334.08 570.95 331.34 565.83C329.93 563.18 330.07 559.99 331.74 556.14C335.95 546.2 332 544.52 325.39 541.63C320.58 539.52 314.03 536.69 307.48 529.52C304.61 526.39 302.07 523.68 299.8 521.34C293.05 514.17 289.31 510.26 289.78 507.97C289.91 507.43 290.24 506.95 290.91 506.47C291.25 506.22 291.65 505.98 292.18 505.74C294.72 504.48 297.26 505.44 300.13 506.53C304.01 507.97 308.75 509.84 315.37 506.77C320.58 504.36 326.39 502.13 329.87 503.94C332.27 505.14 333.67 508.27 334.14 513.39C334.28 515.01 334.88 516.16 335.88 516.82C337.35 517.78 339.62 517.66 342.23 517.18L342.23 517.18C344.03 519.41 346.37 520.49 349.18 521.4C353.12 522.66 356.06 523.81 358.93 526.7C365.08 532.96 371.02 539.34 375.9 546.26Z" />
			<path id="Layer" class="shp3" d="M354.59 556.2C350.58 553.79 347.1 547.95 343.76 542.29C339.22 534.58 334.48 526.63 327.99 526.82C317.57 527.06 308.28 515.98 308.15 515.92L307.28 516.52C307.68 517 317.04 528.08 327.99 527.84C333.81 527.72 338.42 535.37 342.76 542.83C346.17 548.55 349.71 554.51 353.92 557.1C356.46 558.61 361.13 561.68 366.68 565.59C366.68 565.17 366.68 564.75 366.68 564.33C361.8 560.65 357.46 557.88 354.59 556.2Z" />
			<path id="Layer" class="shp1" d="M706.7 630.8C706.7 630.8 712.71 617.31 701.75 598.16C690.73 579.02 681.84 581.97 708.37 567.22C734.89 552.46 708.5 506.1 731.09 500.2C753.67 494.3 773.25 419.22 790.42 428.8C807.59 438.37 784.67 475.16 796.97 486.23C809.19 497.31 810.86 511.34 785.54 522.72C760.22 534.1 803.51 577.57 769.17 590.82C734.83 604.06 744.72 656.02 706.7 630.8Z" />
			<g id="Layer">
				<path id="Layer" class="shp3" d="M717.19 645.07C717.12 644.88 713.45 627.67 725.14 605.39C737.03 582.69 742.71 557.88 740.37 538.98C739.1 528.74 746.39 524.77 753.4 520.92C760.35 517.12 767.5 513.15 767.1 503.09C766.76 494 771.04 472.69 771.17 471.78L772.71 472.03C772.64 472.27 768.3 494.12 768.64 503.03C769.04 513.93 761.49 518.09 754.2 522.06C747.26 525.85 740.77 529.46 741.91 538.8C744.32 557.88 738.57 582.99 726.54 605.93C715.12 627.79 718.66 644.58 718.73 644.76L717.19 645.07Z" />
			</g>
			<path id="Layer" class="shp4" d="M808.39 533.2C817.94 529.1 828.1 530.97 822.82 539.58C817.54 548.19 809.66 548.85 811.13 555.66C812.6 562.46 816.47 569.86 804.05 574.2C791.62 578.47 785.81 577.75 778.26 590.34C770.64 602.92 768.03 612.25 755.01 609.24C741.98 606.17 752.8 590.7 759.55 584.19C759.55 584.19 768.7 577.21 768.57 564.63C768.44 552.04 762.69 543.61 780.73 544.46C798.77 545.18 801.91 535.97 808.39 533.2Z" />
			<g id="Layer">
				<path id="Layer" class="shp3" d="M752.93 618.03C753.47 616.41 766.03 577.45 776.32 573.24C786.81 568.9 792.49 557.58 794.96 551.26C798.17 543.01 811.86 541.39 812.4 541.33L812.6 542.71C812.47 542.71 799.3 544.28 796.43 551.68C793.36 559.69 787.48 570.17 776.99 574.5C767.37 578.47 754.6 618.03 754.47 618.45L752.93 618.03Z" />
			</g>
			<path id="Layer" class="shp3" d="M422 586.66C401.42 582.03 401.16 572.03 400.89 562.4C400.69 554.51 400.49 547.05 389.33 542.47C374.56 536.39 374.23 525.13 373.9 515.2C373.63 507.79 373.43 500.81 367.28 497.01C352.52 487.92 340.02 465.88 339.89 465.64L341.02 465.1C341.16 465.34 353.45 487.08 368.02 496.05C374.7 500.14 374.97 507.43 375.17 515.14C375.5 525.19 375.83 535.67 389.87 541.39C401.69 546.26 401.96 554.45 402.16 562.34C402.43 571.97 402.69 581.12 422.34 585.52L422 586.66Z" />
			<g id="Layer">
				<g id="Layer">
					<path id="Layer" class="shp5" d="M394.27 577.75L732.29 577.75L732.29 357.87C732.29 354.74 729.48 352.15 725.94 352.15L400.62 352.15C397.15 352.15 394.27 354.68 394.27 357.87L394.27 577.75Z" />
				</g>
				<g id="Layer">
					<path id="Layer" class="shp6" d="M719.71 536.76L406.21 536.76L406.21 363.18L719.71 363.18L719.71 536.76Z" />
				</g>
				<path id="Layer" class="shp7" d="M732.29 545.18L563.32 545.18L394.41 545.18L357.39 669.75L564.45 669.75L769.24 669.75L732.29 545.18Z" />
				<path id="Layer" class="shp6" d="M407.17 567.03L427.95 567.03C428.82 567.03 429.49 567.64 429.29 568.3L427.28 576.43C427.15 576.91 426.61 577.27 425.94 577.27L404.83 577.27C403.96 577.27 403.29 576.67 403.5 575.95L405.83 567.82C405.97 567.4 406.5 567.03 407.17 567.03Z" />
				<path id="Layer" class="shp6" d="M437.44 567.03L453.14 567.03L451.07 577.33L435.03 577.33L437.44 567.03Z" />
				<path id="Layer" class="shp6" d="M460.96 567.03L476.66 567.03L475.05 577.33L459.02 577.33L460.96 567.03Z" />
				<path id="Layer" class="shp6" d="M484.54 567.03L500.24 567.03L499.04 577.33L483 577.33L484.54 567.03Z" />
				<path id="Layer" class="shp6" d="M508.06 567.03L523.76 567.03L523.03 577.33L506.99 577.33L508.06 567.03Z" />
				<path id="Layer" class="shp6" d="M531.58 567.03L547.28 567.03L547.01 577.33L530.98 577.33L531.58 567.03Z" />
				<path id="Layer" class="shp6" d="M719.99 567.03L696.41 567.03L698.95 577.33L722.93 577.33L719.99 567.03Z" />
				<path id="Layer" class="shp6" d="M688.59 567.03L672.89 567.03L674.96 577.33L691 577.33L688.59 567.03Z" />
				<path id="Layer" class="shp6" d="M665.07 567.03L649.37 567.03L650.98 577.33L667.01 577.33L665.07 567.03Z" />
				<path id="Layer" class="shp6" d="M641.49 567.03L625.79 567.03L626.99 577.33L643.02 577.33L641.49 567.03Z" />
				<path id="Layer" class="shp6" d="M617.97 567.03L602.27 567.03L603 577.33L619.04 577.33L617.97 567.03Z" />
				<path id="Layer" class="shp6" d="M594.45 567.03L578.75 567.03L579.02 577.33L595.05 577.33L594.45 567.03Z" />
				<path id="Layer" class="shp6" d="M555.16 567.03L570.87 567.03L571.07 577.33L555.16 577.33L555.16 567.03Z" />
				<path id="Layer" class="shp6" d="M400.29 584.98L433.03 584.98L431.16 595.57L397.75 595.57L400.29 584.98Z" />
				<path id="Layer" class="shp6" d="M725.07 584.98L684.58 584.98L686.85 595.57L728.21 595.57L725.07 584.98Z" />
				<path id="Layer" class="shp6" d="M676.43 584.98L660.26 584.98L662.07 595.57L678.64 595.57L676.43 584.98Z" />
				<path id="Layer" class="shp6" d="M652.11 584.98L635.94 584.98L637.28 595.57L653.85 595.57L652.11 584.98Z" />
				<path id="Layer" class="shp6" d="M627.79 584.98L611.62 584.98L612.56 595.57L629.06 595.57L627.79 584.98Z" />
				<path id="Layer" class="shp6" d="M603.47 584.98L587.3 584.98L587.77 595.57L604.27 595.57L603.47 584.98Z" />
				<path id="Layer" class="shp6" d="M395.34 603.82L428.88 603.82L426.41 614.36L392.27 614.36L395.34 603.82Z" />
				<path id="Layer" class="shp6" d="M437.24 603.82L454.01 603.82L452.07 614.36L434.96 614.36L437.24 603.82Z" />
				<path id="Layer" class="shp6" d="M462.43 603.82L479.2 603.82L588.1 603.82L588.57 614.36L460.55 614.36L462.43 603.82Z" />
				<path id="Layer" class="shp6" d="M596.52 603.82L613.29 603.82L614.23 614.36L597.12 614.36L596.52 603.82Z" />
				<path id="Layer" class="shp6" d="M621.64 603.82L638.41 603.82L639.82 614.36L622.71 614.36L621.64 603.82Z" />
				<path id="Layer" class="shp6" d="M646.83 603.82L663.6 603.82L665.41 614.36L648.37 614.36L646.83 603.82Z" />
				<path id="Layer" class="shp6" d="M671.96 603.82L688.73 603.82L691 614.36L673.96 614.36L671.96 603.82Z" />
				<path id="Layer" class="shp6" d="M697.08 603.82L730.62 603.82L733.69 614.36L699.55 614.36L697.08 603.82Z" />
				<path id="Layer" class="shp6" d="M579.22 584.98L563.11 584.98L563.11 595.57L579.48 595.57L579.22 584.98Z" />
				<path id="Layer" class="shp6" d="M554.9 584.98L538.66 584.98L538.19 595.57L554.76 595.57L554.9 584.98Z" />
				<path id="Layer" class="shp6" d="M530.58 584.98L514.34 584.98L513.4 595.57L529.97 595.57L530.58 584.98Z" />
				<path id="Layer" class="shp6" d="M506.26 584.98L490.02 584.98L488.62 595.57L505.19 595.57L506.26 584.98Z" />
				<path id="Layer" class="shp6" d="M481.94 584.98L465.7 584.98L463.83 595.57L480.4 595.57L481.94 584.98Z" />
				<path id="Layer" class="shp6" d="M457.61 584.98L441.38 584.98L439.11 595.57L455.61 595.57L457.61 584.98Z" />
				<path id="Layer" class="shp6" d="M407.9 560.59L410.58 551.44L418.19 551.44L415.72 560.59L407.9 560.59Z" />
				<path id="Layer" class="shp6" d="M425.81 551.44L441.04 551.44L438.97 560.59L423.41 560.59L425.81 551.44Z" />
				<path id="Layer" class="shp6" d="M448.73 551.44L463.96 551.44L462.22 560.59L446.72 560.59L448.73 551.44Z" />
				<path id="Layer" class="shp6" d="M471.58 551.44L486.81 551.44L485.48 560.59L469.98 560.59L471.58 551.44Z" />
				<path id="Layer" class="shp6" d="M494.43 551.44L509.66 551.44L508.73 560.59L493.23 560.59L494.43 551.44Z" />
				<path id="Layer" class="shp6" d="M517.28 551.44L532.51 551.44L531.98 560.59L516.48 560.59L517.28 551.44Z" />
				<path id="Layer" class="shp6" d="M540.13 551.44L555.36 551.44L555.23 560.59L539.73 560.59L540.13 551.44Z" />
				<path id="Layer" class="shp6" d="M562.98 551.44L578.21 551.44L578.48 560.59L562.98 560.59L562.98 551.44Z" />
				<path id="Layer" class="shp6" d="M585.83 551.44L601.07 551.44L601.73 560.59L586.23 560.59L585.83 551.44Z" />
				<path id="Layer" class="shp6" d="M608.68 551.44L623.98 551.44L624.98 560.59L609.48 560.59L608.68 551.44Z" />
				<path id="Layer" class="shp6" d="M631.6 551.44L646.83 551.44L648.3 560.59L632.8 560.59L631.6 551.44Z" />
				<path id="Layer" class="shp6" d="M654.45 551.44L669.68 551.44L671.55 560.59L656.05 560.59L654.45 551.44Z" />
				<path id="Layer" class="shp6" d="M677.3 551.44L692.53 551.44L694.81 560.59L679.3 560.59L677.3 551.44Z" />
				<path id="Layer" class="shp6" d="M700.15 551.44L715.38 551.44L718.06 560.59L702.56 560.59L700.15 551.44Z" />
				<path id="Layer" class="shp8" d="M758.48 679.44L368.15 679.44C362.2 679.44 357.39 675.11 357.39 669.75L357.39 669.75L769.24 669.75L769.24 669.75C769.24 675.11 764.43 679.44 758.48 679.44Z" />
				<path id="Layer" class="shp8" d="M611.22 629.47C610.82 627.3 608.68 625.68 606.28 625.68L563.38 625.68L520.42 625.68C517.95 625.68 515.88 627.3 515.48 629.47L510.13 658.67C509.6 661.44 512 663.97 515.08 663.97L563.32 663.97L611.56 663.97C614.7 663.97 617.03 661.44 616.5 658.67L611.22 629.47Z" />
				<g id="Layer">
					<g id="Layer">
						<path id="Layer" class="shp5" d="M427.35 377.92L462.29 377.92L462.29 381.17L427.35 381.17L427.35 377.92Z" />
					</g>
					<g id="Layer">
						<path id="Layer" class="shp5" d="M472.11 402.18L497.3 402.18L497.3 405.44L472.11 405.44L472.11 402.18Z" />
					</g>
					<g id="Layer">
						<path id="Layer" class="shp5" d="M501.24 402.18L517.95 402.18L517.95 405.44L501.24 405.44L501.24 402.18Z" />
					</g>
					<g id="Layer">
						<path id="Layer" class="shp5" d="M427.75 463.24L444.45 463.24L444.45 466.49L427.75 466.49L427.75 463.24Z" />
					</g>
					<g id="Layer">
						<path id="Layer" class="shp5" d="M521.29 402.18L561.71 402.18L561.71 405.44L521.29 405.44L521.29 402.18Z" />
					</g>
					<g id="Layer">
						<path id="Layer" class="shp5" d="M427.75 451.01L453.74 451.01L453.74 454.26L427.75 454.26L427.75 451.01Z" />
					</g>
					<g id="Layer">
						<path id="Layer" class="shp5" d="M463.96 475.34L479.8 475.34L479.8 478.59L463.96 478.59L463.96 475.34Z" />
					</g>
					<g id="Layer">
						<path id="Layer" class="shp5" d="M427.75 475.34L459.15 475.34L459.15 478.59L427.75 478.59L427.75 475.34Z" />
					</g>
					<g id="Layer">
						<path id="Layer" class="shp5" d="M427.75 487.5L445.05 487.5L445.05 490.75L427.75 490.75L427.75 487.5Z" />
					</g>
					<g id="Layer">
						<path id="Layer" class="shp5" d="M469.11 377.92L493.9 377.92L493.9 381.17L469.11 381.17L469.11 377.92Z" />
					</g>
					<g id="Layer">
						<path id="Layer" class="shp5" d="M469.11 414.35L493.9 414.35L493.9 417.6L469.11 417.6L469.11 414.35Z" />
					</g>
					<g id="Layer">
						<path id="Layer" class="shp5" d="M456.68 426.45L467.3 426.45L467.3 429.7L456.68 429.7L456.68 426.45Z" />
					</g>
					<g id="Layer">
						<path id="Layer" class="shp5" d="M446.12 438.79L469.91 438.79L469.91 442.04L446.12 442.04L446.12 438.79Z" />
					</g>
					<g id="Layer">
						<path id="Layer" class="shp5" d="M473.52 438.79L506.39 438.79L506.39 442.04L473.52 442.04L473.52 438.79Z" />
					</g>
					<g id="Layer">
						<path id="Layer" class="shp5" d="M427.75 426.57L452.54 426.57L452.54 429.82L427.75 429.82L427.75 426.57Z" />
					</g>
					<g id="Layer">
						<path id="Layer" class="shp5" d="M427.75 438.79L442.45 438.79L442.45 442.04L427.75 442.04L427.75 438.79Z" />
					</g>
					<g id="Layer">
						<path id="Layer" class="shp5" d="M472.31 426.57L486.21 426.57L486.21 429.82L472.31 429.82L472.31 426.57Z" />
					</g>
					<g id="Layer">
						<path id="Layer" class="shp5" d="M428.22 499.6L442.11 499.6L442.11 502.85L428.22 502.85L428.22 499.6Z" />
					</g>
					<g id="Layer">
						<path id="Layer" class="shp5" d="M427.68 402.18L452.47 402.18L452.47 405.44L427.68 405.44L427.68 402.18Z" />
					</g>
					<g id="Layer">
						<path id="Layer" class="shp5" d="M449.6 463.24L474.39 463.24L474.39 466.49L449.6 466.49L449.6 463.24Z" />
					</g>
					<g id="Layer">
						<path id="Layer" class="shp5" d="M449.93 487.5L474.72 487.5L474.72 490.75L449.93 490.75L449.93 487.5Z" />
					</g>
					<g id="Layer">
						<path id="Layer" class="shp5" d="M493.96 487.5L518.75 487.5L518.75 490.75L493.96 490.75L493.96 487.5Z" />
					</g>
					<g id="Layer">
						<path id="Layer" class="shp5" d="M427.68 414.35L463.03 414.35L463.03 417.6L427.68 417.6L427.68 414.35Z" />
					</g>
					<g id="Layer">
						<path id="Layer" class="shp5" d="M593.31 377.92L618.1 377.92L618.1 381.17L593.31 381.17L593.31 377.92Z" />
					</g>
					<g id="Layer">
						<path id="Layer" class="shp5" d="M504.99 499.6L529.77 499.6L529.77 502.85L504.99 502.85L504.99 499.6Z" />
					</g>
					<g id="Layer">
						<path id="Layer" class="shp5" d="M625.79 377.92L642.36 377.92L642.36 381.17L625.79 381.17L625.79 377.92Z" />
					</g>
					<g id="Layer">
						<path id="Layer" class="shp5" d="M681.98 390.08L698.55 390.08L698.55 393.33L681.98 393.33L681.98 390.08Z" />
					</g>
					<g id="Layer">
						<path id="Layer" class="shp5" d="M500.58 377.92L532.18 377.92L532.18 381.17L500.58 381.17L500.58 377.92Z" />
					</g>
					<g id="Layer">
						<path id="Layer" class="shp5" d="M623.65 390.08L655.25 390.08L655.25 393.33L623.65 393.33L623.65 390.08Z" />
					</g>
					<g id="Layer">
						<path id="Layer" class="shp5" d="M584.9 402.18L616.5 402.18L616.5 405.44L584.9 405.44L584.9 402.18Z" />
					</g>
					<g id="Layer">
						<path id="Layer" class="shp5" d="M543.81 414.35L575.41 414.35L575.41 417.6L543.81 417.6L543.81 414.35Z" />
					</g>
					<g id="Layer">
						<path id="Layer" class="shp5" d="M620.44 402.18L642.89 402.18L642.89 405.44L620.44 405.44L620.44 402.18Z" />
					</g>
					<g id="Layer">
						<path id="Layer" class="shp5" d="M555.5 377.92L587.1 377.92L587.1 381.17L555.5 381.17L555.5 377.92Z" />
					</g>
					<g id="Layer">
						<path id="Layer" class="shp5" d="M519.48 414.35L537.99 414.35L537.99 417.6L519.48 417.6L519.48 414.35Z" />
					</g>
					<g id="Layer">
						<path id="Layer" class="shp5" d="M504.99 463.42L523.49 463.42L523.49 466.67L504.99 466.67L504.99 463.42Z" />
					</g>
					<g id="Layer">
						<path id="Layer" class="shp5" d="M537.99 377.92L549.55 377.92L549.55 381.17L537.99 381.17L537.99 377.92Z" />
					</g>
					<g id="Layer">
						<path id="Layer" class="shp5" d="M500.58 414.35L512.14 414.35L512.14 417.6L500.58 417.6L500.58 414.35Z" />
					</g>
					<g id="Layer">
						<path id="Layer" class="shp5" d="M662.87 390.08L674.43 390.08L674.43 393.33L662.87 393.33L662.87 390.08Z" />
					</g>
					<g id="Layer">
						<path id="Layer" class="shp5" d="M427.35 390.08L445.45 390.08L445.45 393.33L427.35 393.33L427.35 390.08Z" />
					</g>
					<g id="Layer">
						<path id="Layer" class="shp5" d="M475.65 451.07L489.95 451.07L489.95 454.32L475.65 454.32L475.65 451.07Z" />
					</g>
					<g id="Layer">
						<path id="Layer" class="shp5" d="M449.93 390.08L455.74 390.08L455.74 393.33L449.93 393.33L449.93 390.08Z" />
					</g>
					<g id="Layer">
						<path id="Layer" class="shp5" d="M569.8 390.08L618.1 390.08L618.1 393.33L569.8 393.33L569.8 390.08Z" />
					</g>
					<g id="Layer">
						<path id="Layer" class="shp5" d="M523.49 487.5L571.8 487.5L571.8 490.75L523.49 490.75L523.49 487.5Z" />
					</g>
					<g id="Layer">
						<path id="Layer" class="shp5" d="M460.02 390.08L465.97 390.08L465.97 393.33L460.02 393.33L460.02 390.08Z" />
					</g>
					<g id="Layer">
						<path id="Layer" class="shp5" d="M549.55 390.08L565.32 390.08L565.32 393.33L549.55 393.33L549.55 390.08Z" />
					</g>
					<g id="Layer">
						<path id="Layer" class="shp5" d="M565.39 402.18L581.15 402.18L581.15 405.44L565.39 405.44L565.39 402.18Z" />
					</g>
					<g id="Layer">
						<path id="Layer" class="shp5" d="M484.14 499.6L499.91 499.6L499.91 502.85L484.14 502.85L484.14 499.6Z" />
					</g>
					<g id="Layer">
						<path id="Layer" class="shp5" d="M511.8 390.08L545.41 390.08L545.41 393.33L511.8 393.33L511.8 390.08Z" />
					</g>
					<g id="Layer">
						<path id="Layer" class="shp5" d="M480.47 463.42L500.11 463.42L500.11 466.67L480.47 466.67L480.47 463.42Z" />
					</g>
					<g id="Layer">
						<path id="Layer" class="shp5" d="M479.26 487.5L489.08 487.5L489.08 490.75L479.26 490.75L479.26 487.5Z" />
					</g>
					<g id="Layer">
						<path id="Layer" class="shp5" d="M495.43 390.08L506.99 390.08L506.99 393.33L495.43 393.33L495.43 390.08Z" />
					</g>
					<g id="Layer">
						<path id="Layer" class="shp5" d="M456.55 402.18L468.1 402.18L468.1 405.44L456.55 405.44L456.55 402.18Z" />
					</g>
					<g id="Layer">
						<path id="Layer" class="shp5" d="M458.82 451.07L470.38 451.07L470.38 454.32L458.82 454.32L458.82 451.07Z" />
					</g>
					<g id="Layer">
						<path id="Layer" class="shp5" d="M470.91 390.08L491.09 390.08L491.09 393.33L470.91 393.33L470.91 390.08Z" />
					</g>
				</g>
			</g>
			<g id="Layer">
				<g id="Layer">
					<g id="Layer">
						<path id="Layer" class="shp9" d="M640.08 414.47C640.08 414.47 645.96 423.44 648.44 424.88C651.78 426.87 649.71 428.86 648.1 428.92C646.5 428.92 638.35 429.46 636.54 427.59C634.74 425.73 633.87 420.25 632.2 418.8C630.53 417.36 628.79 411.64 633 410.25C636.68 408.99 640.08 414.47 640.08 414.47Z" />
					</g>
				</g>
			</g>
			<g id="Layer">
				<g id="Layer">
					<g id="Layer">
						<path id="Layer" class="shp10" d="M637.48 410.55C637.48 410.55 644.23 421.09 645.36 422.59C646.5 424.16 643.16 424.16 641.09 423.44C639.02 422.71 633.8 415.19 633.07 413.8C632.2 412.18 632.94 410.31 632.94 410.31L637.48 410.55Z" />
					</g>
				</g>
			</g>
			<g id="Layer">
				<g id="Layer">
					<g id="Layer">
						<path id="Layer" class="shp9" d="M630.66 416.15L632.27 426.93L633.07 426.99L632.8 419.22L630.66 416.15Z" />
					</g>
				</g>
			</g>
			<g id="Layer">
				<g id="Layer">
					<g id="Layer">
						<path id="Layer" class="shp9" d="M581.76 414.47C581.76 414.47 587.64 423.44 590.11 424.88C593.45 426.87 591.38 428.86 589.77 428.92C588.17 428.92 580.02 429.46 578.21 427.59C576.41 425.73 575.54 420.25 573.87 418.8C572.2 417.36 570.4 411.46 574.67 410.25C578.42 409.17 581.76 414.47 581.76 414.47Z" />
					</g>
				</g>
			</g>
			<g id="Layer">
				<g id="Layer">
					<g id="Layer">
						<path id="Layer" class="shp10" d="M579.55 410.55C579.55 410.55 585.9 421.03 587.1 422.59C588.24 424.16 584.9 424.16 582.82 423.44C580.75 422.71 575.54 415.19 574.81 413.8C573.94 412.18 574.67 410.31 574.67 410.31L579.55 410.55Z" />
					</g>
				</g>
			</g>
			<g id="Layer">
				<g id="Layer">
					<g id="Layer">
						<path id="Layer" class="shp9" d="M572.4 416.15L573.94 426.93L574.81 426.99L574.54 419.22L572.4 416.15Z" />
					</g>
				</g>
			</g>
			<g id="Layer">
				<g id="Layer">
					<g id="Layer">
						<path id="Layer" class="shp10" d="M555.7 332.76L608.88 354.62C608.88 354.62 614.83 356.36 615.5 362.33C617.57 380.87 632.94 410.25 632.94 410.25C637.88 412.42 637.48 410.55 637.48 410.55C634.34 401.52 630.6 364.43 629.19 349.56C628.93 346.43 628.73 344.26 628.66 343.54C628.66 343.06 628.06 342.46 627.06 341.73C619.77 336.38 589.71 325.36 589.71 325.36C567.32 324.82 555.7 332.76 555.7 332.76Z" />
					</g>
				</g>
			</g>
			<g id="Layer">
				<g id="Layer">
					<g id="Layer">
						<path id="Layer" class="shp10" d="M545.68 342.16C547.35 355.1 567.86 353.66 567.86 353.66L592.71 353.66C592.71 353.66 586.17 366.78 583.63 377.8C580.95 389.54 574.61 410.25 574.61 410.25C574.61 410.25 575.01 410.97 579.55 410.55C579.55 410.55 599.06 375.51 606.54 366.66C608.15 364.79 612.76 354.44 613.56 348.3C613.83 346.25 613.69 344.62 612.82 343.96C611.96 343.3 609.95 342.1 607.35 340.59C599.53 336.13 586.03 329.33 578.48 327.83C568.39 325.78 552.42 321.93 552.42 321.93C552.42 321.93 544.01 329.21 545.68 342.16Z" />
					</g>
				</g>
			</g>
			<g id="Layer">
				<path id="Layer" class="shp4" d="M562.58 242.33C562.58 242.33 558.84 235.95 560.64 229.2C562.45 222.4 569.46 215.66 579.68 218.79C589.91 221.92 598.19 229.02 592.05 237.33C585.9 245.58 597.59 249.37 594.58 253.29C591.58 257.2 592.71 261.36 593.98 262.26C595.25 263.16 599.33 266.41 598.86 270.33C598.39 274.18 579.02 259.07 579.02 259.07C579.02 259.07 568.53 239.86 562.58 242.33Z" />
			</g>
			<g id="Layer">
				<path id="Layer" class="shp11" d="M593.78 323.73C593.78 323.73 592.25 330.48 552.49 321.99C552.49 321.99 565.79 318.01 593.78 323.73Z" />
			</g>
			<g id="Layer">
				<g id="Layer">
					<path id="Layer" class="shp3" d="M552.02 323.85C551.42 324.94 550.82 325.96 550.15 327.04C564.65 327.4 579.22 327.83 593.72 328.19C591.44 321.26 592.18 311.87 592.58 304.77C593.05 296.04 598.39 290.02 597.86 281.22C600.73 281.65 601.2 281.71 604.07 282.13C599.66 270.81 598.19 265.21 584.5 260.87C580.02 259.43 577.15 259.19 572.34 259.55C556.5 260.75 551.76 260.87 543.94 273.82C556.1 275.57 554.09 279.48 557.77 290.44C559.57 295.73 561.44 301.7 560.51 307.29C559.57 312.77 552.02 318.86 552.02 323.85Z" />
				</g>
			</g>
			<g id="Layer">
				<g id="Layer">
					<path id="Layer" class="shp10" d="M577.28 263.58C570.8 262.5 572.2 259.25 572.2 259.25C572.2 259.25 572.47 257.44 572.6 255.09C572.6 254.49 572.67 253.89 572.67 253.23C572.67 252.26 572.6 251.3 572.47 250.34C571.93 246.42 584.23 248.77 584.23 248.77C584.23 248.77 583.49 256.72 585.23 259.07C586.9 261.48 583.76 264.73 577.28 263.58Z" />
				</g>
			</g>
			<g id="Layer">
				<g id="Layer">
					<path id="Layer" class="shp10" d="M564.92 259.25C564.92 259.25 578.01 272.86 582.82 275.99C582.82 275.99 588.37 271.47 584.96 259.55C584.96 259.55 578.68 256.66 564.92 259.25Z" />
				</g>
			</g>
			<g id="Layer">
				<path id="Layer" class="shp10" d="M565.32 226.49C565.32 226.49 558.5 238.3 565.25 249.43C572 260.57 585.23 244.56 586.03 242.69C586.9 240.82 591.44 230.17 582.42 226.98C573.4 223.73 567.26 223.3 565.32 226.49Z" />
			</g>
			<g id="Layer">
				<path id="Layer" class="shp12" d="M578.42 250.64C578.42 250.64 577.21 252.99 572.6 255.09C572.6 254.49 572.67 253.89 572.67 253.23C572.67 253.23 575.81 252.93 578.42 250.64Z" />
			</g>
			<g id="Layer">
				<path id="Layer" class="shp10" d="M509.8 313.26C509.8 313.26 506.59 314.52 505.05 313.98C503.52 313.38 501.18 313.26 500.44 313.26C499.44 313.26 496.3 312.23 496.37 313.38C496.43 314.46 501.45 315.24 502.45 315.6C503.45 315.96 499.37 317.95 498.97 318.86C498.57 319.76 503.25 325.66 505.85 323.97C508.46 322.29 509.86 318.92 510.4 318.67C510.93 318.43 512.34 317.53 512.34 317.53L509.8 313.26Z" />
			</g>
			<g id="Layer">
				<path id="Layer" class="shp10" d="M499.51 318.31C499.51 318.31 491.96 323.97 491.82 324.76C491.69 325.54 492.09 325.9 492.83 325.36C493.56 324.88 500.31 320.06 500.31 320.06C500.31 320.06 492.76 328.13 492.49 328.73C492.36 329.09 493.09 329.81 493.49 329.57C493.9 329.33 501.98 321.75 501.98 321.75C501.98 321.75 494.9 329.27 494.9 329.87C494.83 330.35 495.7 330.9 496.3 330.35C496.9 329.81 503.92 323.19 503.92 323.19C503.92 323.19 499.17 328.97 499.51 329.51C499.71 329.81 500.31 330.48 501.45 328.97C502.58 327.46 505.79 324.09 505.79 324.09L499.51 318.31Z" />
			</g>
			<g id="Layer">
				<g id="Layer">
					<path id="Layer" class="shp4" d="M590.11 353.6L567.86 353.6C567.86 353.6 547.35 355.1 545.68 342.1C544.01 329.15 552.42 321.93 552.42 321.93C552.42 321.93 563.25 324.51 572.74 326.56C577.48 325.66 583.16 325.06 589.84 325.24C589.84 325.24 629.93 337.16 628.73 343.48C628.73 343.54 611.96 335.47 590.11 353.6Z" />
				</g>
			</g>
			<g id="Layer">
				<path id="Layer" class="shp7" d="M575.61 331.2L618.1 330.6L596.66 340.41L575.61 331.2Z" />
			</g>
			<g id="Layer">
				<path id="Layer" class="shp3" d="M588.84 326.26C588.84 326.26 579.28 329.57 567.59 326.56L567.06 322.65L591.18 323.85L588.84 326.26Z" />
			</g>
			<g id="Layer">
				<path id="Layer" class="shp8" d="M596.66 340.41L575.61 333.06L575.61 331.2L598.33 338.54L596.66 340.41Z" />
			</g>
			<g id="Layer">
				<g id="Layer">
					<path id="Layer" class="shp1" d="M588.64 328.13C588.5 329.51 590.11 330.54 591.58 329.99L594.05 329.03C594.78 328.73 595.25 328.07 595.12 327.34C594.12 321.56 591.91 299.05 595.12 295.13C596.32 293.69 597.06 292.42 597.46 291.34C599.6 296.28 602.2 302.66 603.27 306.09L623.31 330.17L630.06 331.74C621.64 313.5 614.9 303.86 614.9 303.86C613.56 300.67 609.82 291.04 606.48 282.49C604.34 277.07 602.47 272.07 601.4 269.42C600.86 268.04 599.86 266.89 598.46 266.17C595.32 264.49 590.17 261.84 585.5 259.79L585.43 259.79C585.3 259.73 585.16 259.67 584.96 259.61L584.96 259.61L584.96 259.61C593.92 271.71 590.44 306.09 588.64 328.13C588.64 328.07 588.64 328.07 588.64 328.13Z" />
				</g>
				<g id="Layer">
					<path id="Layer" class="shp1" d="M555.5 260.57C552.62 260.99 545.54 267.2 541.8 273.46C537.52 280.62 533.12 288.75 529.84 291.4C523.83 296.34 506.92 313.74 506.12 313.32C505.79 313.14 510.73 318.49 511.4 318.73C511.73 318.86 539.13 297.42 541.8 294.17C544.27 291.1 550.95 278.09 552.96 278.39L552.96 278.39L552.96 278.39C553.09 278.7 555.56 283.45 557.84 290.38C557.9 290.5 557.9 290.62 557.97 290.74C559.57 295.55 559.44 300.85 558.57 306.75C557.9 311.21 554.23 318.49 552.02 322.05C551.76 322.47 551.82 323.31 552.09 323.91L552.09 323.91C552.29 324.27 552.49 324.57 552.83 324.7L560.91 327.4L562.78 328.01C564.12 328.49 565.59 328.25 566.66 327.53C567.52 326.98 568.19 326.08 568.33 325C570.13 312.59 572.4 299.89 574.21 295.13C582.16 274.18 571.13 258.41 571.13 258.41C571.13 258.41 558.04 259.73 555.5 260.57Z" />
				</g>
			</g>
			<g id="Layer">
				<path id="Layer" class="shp1" d="M596.66 340.41L609.28 309.34L649.97 309.94L637.95 338.6L596.66 340.41Z" />
			</g>
			<g id="Layer">
				<path id="Layer" class="shp13" d="M622.31 323.07C621.04 325.3 621.44 327.77 623.18 328.49C624.92 329.27 627.26 328.07 628.53 325.84C629.8 323.61 629.39 321.14 627.66 320.42C625.92 319.64 623.51 320.84 622.31 323.07Z" />
			</g>
			<path id="Layer" class="shp4" d="M597.59 264.37C594.58 260.27 592.45 257.02 592.18 251.18C591.98 247.33 591.04 242.09 588.1 239.5C591.18 232.28 587.57 230.11 586.1 227.76C584.29 224.81 570.93 217.7 565.65 225.17C560.38 232.58 562.25 240.34 562.25 240.34C562.78 236.25 567.46 230.71 567.46 230.71C568.19 234.98 578.01 241.97 582.29 244.8C582.22 244.86 582.16 244.98 582.16 245.04C579.75 248.17 582.76 251.3 583.29 254.61C583.83 257.92 573.2 266.83 585.03 271.29C596.86 275.81 600.6 268.4 597.59 264.37Z" />
			<g id="Layer">
				<g id="Layer">
					<path id="Layer" class="shp4" d="M382.52 615.08C382.52 615.08 382.25 617.61 369.15 617.61C356.06 617.61 337.01 614.54 337.01 614.54L367.42 611.89C367.42 611.89 379.11 611.35 382.52 615.08Z" />
					<path id="Layer" class="shp4" d="M349.18 615.98C341.76 615.98 338.62 619.42 335.68 620.5C332.74 621.58 329.8 623.21 329.8 623.15C331.47 620.2 333.81 620.14 335.01 619.18C336.21 618.21 335.88 618.69 333.27 618.51C331.8 618.39 329.13 620.86 327.26 622.25C325.59 623.39 324.59 623.51 324.59 623.51C324.59 623.51 326.53 621.04 328.93 619.06C331.87 616.65 335.54 614.66 336.41 614.3C338.02 613.7 342.96 613.58 346.44 614C350.44 614.48 354.52 615.98 349.18 615.98Z" />
					<path id="Layer" class="shp4" d="M336.88 614.42C336.88 614.42 331.2 615.74 330.2 616.47C329.53 616.95 326.59 619.78 326.59 619.78C326.59 619.78 328.73 619.48 329.93 618.39C331.2 617.25 336.88 614.42 336.88 614.42Z" />
				</g>
				<path id="Layer" class="shp4" d="M371.76 609.9C371.76 609.9 386.06 610.75 385.05 618.69C384.52 623.21 381.25 624.78 376.9 624.41C368.89 623.81 359.8 622.73 359.8 622.73L355.72 610.39L371.76 609.9Z" />
				<path id="Layer" class="shp4" d="M374.76 610.99L388.8 570.23C388.8 570.23 390.87 564.27 394.27 565.35C399.15 566.97 396.75 571.85 396.35 574.74C395.48 580.64 396.08 583.23 391.54 597.44C388.73 606.23 386.32 616.35 383.92 622.13C382.25 626.1 379.38 620.38 375.03 618.81C366.88 615.86 374.76 610.99 374.76 610.99Z" />
			</g>
			<path id="Layer" class="shp4" d="M375.83 548.07C378.57 555.17 387.06 558.85 394.88 556.26C402.63 553.67 406.77 545.78 404.03 538.68C401.29 531.57 392.8 527.9 384.99 530.49C377.24 533.08 373.09 540.96 375.83 548.07Z" />
			<path id="Layer" class="shp4" d="M360.47 548.73C364.74 554.51 373.3 555.96 379.51 551.98L378.64 545.18C384.85 541.15 386.39 533.2 382.11 527.42L379.17 523.5C374.9 517.72 366.35 516.28 360.13 520.25L357.33 522.06C351.11 526.09 349.58 534.04 353.85 539.82L360.47 548.73Z" />
			<path id="Layer" class="shp10" d="M354.85 529.77C355.59 530.73 356.39 531.63 357.33 532.54C363.47 538.56 371.69 540.84 376.9 538.38C379.31 541.33 382.05 543.67 384.52 545.48C387.39 547.59 394.74 548.43 394.74 548.43C399.02 552.65 382.98 577.27 381.85 577.15C379.51 576.97 376.5 563.36 378.71 558.43C379.71 556.2 381.31 553.55 380.85 552.34C379.17 548.19 376.84 548.91 376.84 548.91C376.84 548.91 373.76 552.16 371.36 552.04C368.89 551.86 364.61 548.37 364.41 548.31C363.67 547.77 363.01 547.11 362.4 546.32L355.99 537.65C354.32 535.24 353.92 532.35 354.85 529.77Z" />
			<path id="Layer" class="shp13" d="M403.9 633.51C403.9 633.51 398.68 639.16 397.08 639.77C394.94 640.61 388.4 638.8 388.4 638.8C388.4 638.8 386.66 612.85 384.65 602.74C382.65 592.62 379.71 589.97 379.58 586.78C379.38 581.67 374.63 579.62 375.43 575.64C376.23 571.67 377.64 557.46 378.11 559.33C382.18 575.46 387.19 562.04 388.33 559.93C388.93 558.79 403.9 633.51 403.9 633.51Z" />
			<path id="Layer" class="shp4" d="M380.18 554.51C380.18 554.51 373.83 560.77 374.3 563.24C374.7 565.71 371.56 573.42 374.7 584.13C378.24 596.36 380.11 604.67 380.78 612.67C381.45 620.68 378.44 628.03 379.64 637.84C380.58 645.55 382.52 645.97 382.52 645.97C382.52 645.97 386.32 646.81 389 643.8C391.67 640.85 387.66 614.6 386.32 608.1C384.99 601.53 380.71 586.24 379.58 581.73C378.17 576.19 378.44 570.53 378.51 568.9C378.84 563.18 379.64 559.63 380.31 557.46C380.38 557.16 380.71 553.79 380.18 554.51Z" />
			<path id="Layer" class="shp4" d="M391.27 561.86C394.74 570.89 405.57 575.52 415.45 572.21C425.34 568.9 430.55 558.91 427.08 549.88C423.61 540.84 412.78 536.21 402.89 539.52C393.01 542.77 387.79 552.83 391.27 561.86Z" />
			<path id="Layer" class="shp14" d="M357.26 717.07L360.8 742.54L345.43 749.11L336.95 750.79L352.05 740.26L347.1 717.26L357.26 717.07Z" />
			<path id="Layer" class="shp4" d="M361.8 746.4L358.46 747.18L356.19 745.31L343.9 750.85L333.01 753.2C333.01 753.2 332.87 752.42 333.21 752C334.54 750.37 342.23 746.82 342.23 746.82C342.23 746.82 342.36 749.17 343.43 749.23C344.5 749.29 353.92 744.83 356.12 743.63C359.87 741.52 360.6 740.13 360.87 740.32C361.67 740.68 361.8 746.4 361.8 746.4Z" />
			<path id="Layer" class="shp14" d="M320.18 681.67L307.95 703.35L291.11 702.62L282.69 700.4L301.34 697.57L311.49 679.02L320.18 681.67Z" />
			<path id="Layer" class="shp4" d="M306.95 707.2L303.61 706.48L302.54 703.83L287.37 703.65L278.35 701.72C278.35 701.72 279.42 700.64 280.09 700.34C282.09 699.55 289.24 699.19 289.24 699.19C289.24 699.19 288.51 701.06 289.44 701.54C290.38 702.08 300.8 702.38 303.34 702.2C307.75 701.9 309.02 701.06 309.15 701.3C309.62 702.14 306.95 707.2 306.95 707.2Z" />
			<path id="Layer" class="shp9" d="M409.37 616.83L400.29 620.5L400.35 631.76L337.75 622.55C337.75 622.55 331.8 620.8 327.99 629.65C322.58 642.18 308.82 681.13 308.82 681.13L317.51 689.62L344.83 645.61C344.83 645.61 400.82 670.11 419.26 664.81C426.35 662.77 431.76 651.09 430.76 639.29C429.95 630.01 427.95 621.52 427.95 621.52L409.37 616.83Z" />
			<path id="Layer" class="shp9" d="M401.42 664.57L356.59 661.56L360.47 726.11L347.24 726.53L337.48 650.91C337.48 650.91 340.09 639.65 348.64 641.33C357.26 643.08 377.97 657.89 401.42 664.57Z" />
			<path id="Layer" class="shp2" d="M431.62 680.77C431.62 680.77 408.11 656.99 402.03 643.56C394.74 627.48 395.34 607.31 394.01 600.63C391.54 588.35 388.53 564.51 387.99 561.56C387.39 558.61 389.46 555.29 389.46 555.29C389.46 555.29 387.93 546.38 392.34 547.35C398.68 548.73 404.97 551.86 407.17 552.83C411.31 554.51 419.8 599.43 420.27 601.59C422 609.42 428.35 616.53 432.89 623.81C443.58 641.09 446.32 661.5 446.32 661.5C446.32 661.5 444.99 676.43 431.62 680.77Z" />
			<g id="Layer">
				<path id="Layer" class="shp10" d="M407.37 618.57C407.37 618.57 407.17 621.46 392.2 620.8C377.24 620.08 355.32 615.56 355.32 615.56L390 614.12C390 614.12 403.29 614.18 407.37 618.57Z" />
				<path id="Layer" class="shp10" d="M367.08 617.13C359.93 617.01 356.86 620.32 354.05 621.34C351.25 622.37 348.37 623.87 348.37 623.87C349.98 621.04 352.25 620.98 353.45 620.08C354.59 619.18 354.32 619.66 351.78 619.42C350.31 619.3 347.77 621.64 345.97 622.97C344.36 624.11 343.36 624.17 343.36 624.17C343.36 624.17 345.23 621.76 347.57 619.84C350.44 617.55 353.92 615.62 354.79 615.32C356.32 614.78 361.07 614.72 364.48 615.2C368.28 615.68 372.23 617.25 367.08 617.13Z" />
				<path id="Layer" class="shp10" d="M355.12 615.38C355.12 615.38 349.64 616.59 348.71 617.25C348.04 617.73 345.23 620.44 345.23 620.44C345.23 620.44 347.24 620.14 348.44 619.12C349.64 618.15 355.12 615.38 355.12 615.38Z" />
			</g>
			<path id="Layer" class="shp4" d="M395.41 615.38L417.59 604.85C417.59 604.85 417.66 617.61 417.79 622.49C417.93 627.36 420.2 634.23 415.92 635.25C411.65 636.27 409.44 635.73 413.85 638.08C418.26 640.37 417.26 642.78 415.59 644.76C413.92 646.75 421.2 666.98 419.46 668.13C412.58 660.3 405.17 650.6 401.96 643.56C397.88 634.41 396.28 623.93 395.41 615.38Z" />
			<path id="Layer" class="shp2" d="M402.56 610.26L401.69 569.56C401.69 569.56 401.76 556.86 402.03 553.13C402.29 549.27 409.58 553.79 409.58 553.79C409.58 553.79 419.8 566.25 420 596.3C420.13 616.41 418.93 626.88 408.64 626.04C399.09 625.26 388.19 623.93 388.19 623.93L383.45 612.79L402.56 610.26Z" />
			<g id="Layer">
				<path id="Layer" class="shp8" d="M400.29 631.76L323.92 623.15L324.12 621.7L400.49 630.31L400.29 631.76Z" />
				<path id="Layer" class="shp8" d="M366.81 626.46C366.68 627.6 365.68 628.45 364.61 628.33L325.46 623.93C324.39 623.81 323.05 622.91 322.12 619.9L307.02 584.68C307.22 583.23 308.49 582.51 309.55 582.87L349.58 588.53C350.64 588.89 351.38 589.73 351.78 591.3L366.81 626.46Z" />
				<path id="Layer" class="shp8" d="M361.87 627.42L362.27 627.48L400.49 631.82C399.02 632.36 396.68 632.54 394.07 632.24L362.07 628.63L361.67 628.57L329.67 624.96C327.06 624.65 324.85 623.93 323.52 623.15L361.87 627.42Z" />
			</g>
			<path id="Layer" class="shp4" d="M402.56 610.26L401.69 569.56C401.69 569.56 402.36 566.13 403.7 563.06C404.03 567.52 406.3 599.61 406.57 603.82C406.9 608.4 411.05 608.88 411.91 610.39C412.85 611.83 412.05 612.13 408.97 611.59C405.97 610.99 407.04 611.47 407.7 612.91C408.37 614.42 406.7 614 400.82 612.07C396.55 610.69 388.33 612.07 384.19 612.91L402.56 610.26Z" />
			<path id="Layer" class="shp15" d="M666.61 510.38C659.26 512.12 645.7 518.27 642.82 528.8C638.55 544.64 647.1 567.82 633.6 590.58C629.26 597.8 708.24 607.56 708.24 607.56L723.47 527.6C723.47 527.6 704.43 510.26 700.55 509.05C692.47 506.65 681.31 506.89 666.61 510.38Z" />
			<path id="Layer" class="shp2" d="M723.54 527.66C726.28 534.04 733.22 572.03 725.47 581C724.61 582.03 729.48 583.65 728.61 588.35C728.48 589.13 727.01 592.92 727.01 592.92L720.73 594.43L707.03 580.16C707.03 580.16 712.58 572.39 719.86 542.95C722 534.28 722.93 526.21 723.54 527.66Z" />
			<path id="Layer" class="shp12" d="M671.69 573.06C671.69 573.06 678.3 588.77 694.27 592.98C697.01 593.71 698.75 596.48 697.41 597.38C695.67 598.52 693.4 598.76 689.39 598.76C681.04 598.76 669.68 596.36 661.87 589.25C650.24 578.78 646.57 573.96 647.77 568.72C648.84 563.36 671.69 573.06 671.69 573.06Z" />
			<path id="Layer" class="shp2" d="M645.1 523.5C641.69 528.68 639.75 536.99 639.82 548.91C639.82 558.12 648.37 573.24 649.64 577.87C649.84 578.66 650.37 581.97 650.37 581.97L659.8 590.64L678.7 578.66L672.96 570.41L671.22 570.59C671.22 570.59 670.15 566.01 670.42 564.27C670.69 562.52 665.21 538.74 662.47 523.5C660.93 514.65 648.44 518.39 645.1 523.5Z" />
			<path id="Layer" class="shp4" d="M662.07 570.23L667.61 568.66L669.88 568.12C670.02 569.56 671.35 570.53 671.35 570.53L667.01 571.01L662 572.45L656.12 576.25L662.07 570.23Z" />
			<path id="Layer" class="shp12" d="M693.07 592.92L702.69 590.46C702.69 590.46 705.43 593.89 704.89 594.73C704.36 595.57 704.89 600.63 704.89 600.63L700.22 604.36L696.41 603.16C696.41 603.16 696.14 601.59 697.41 601.47C698.75 601.29 696.54 600.45 695.87 600.09C695.21 599.67 689.66 597.02 693.07 592.92Z" />
			<path id="Layer" class="shp16" d="M678.24 509.6C677.17 512.43 678.77 515.62 681.84 516.58L687.32 518.39C690.4 519.41 693.74 517.84 694.81 515.01L699.68 502.01C700.75 499.18 699.15 495.99 696.08 494.97L690.6 493.16C687.52 492.14 684.18 493.7 683.11 496.53L678.24 509.6Z" />
			<path id="Layer" class="shp12" d="M702.16 521.04C701.62 522.9 699.48 524.05 697.48 523.5L680.98 519.23C678.97 518.69 677.77 516.76 678.3 514.83L685.05 492.02C685.59 490.15 687.72 489 689.73 489.55L706.23 493.76C708.24 494.3 709.44 496.23 708.9 498.16L702.16 521.04Z" />
			<path id="Layer" class="shp1" d="M710.71 495.87L710.71 495.87C710.84 495.75 709.17 494.06 710.04 490.75C711.18 486.3 707.5 484.49 704.76 484.43C703.16 484.37 697.75 486.72 694.87 487.5C692 488.28 692.27 487.26 687.06 486.42C683.58 485.81 682.78 487.56 681.58 489.97C680.37 492.44 680.24 501.83 680.24 501.83C680.71 502.43 681.44 502.91 681.91 502.43C682.38 501.95 684.25 494.42 685.79 492.2C687.26 489.97 693.27 493.52 696.54 495.27C699.75 497.01 702.62 497.31 707.77 496.35C708.37 496.95 708.9 497.61 708.9 497.92C708.9 498.52 707.43 502.79 707.43 502.79C707.43 502.79 710.31 501.17 711.11 499.9C711.51 499.48 711.64 497.43 710.71 495.87Z" />
			<path id="Layer" class="shp12" d="M683.51 510.08C683.31 510.68 682.65 511.1 681.98 510.92L678.44 510.02C677.77 509.84 677.37 509.17 677.57 508.57L679.37 502.49C679.57 501.89 680.24 501.47 680.91 501.65L684.45 502.55C685.12 502.73 685.52 503.39 685.32 504L683.51 510.08Z" />
			<path id="Layer" class="shp1" d="M681.31 504.3C681.31 504.3 678.64 513.27 677.77 516.28C676.97 518.99 676.37 525.25 692.73 529.46C702.42 531.93 704.03 525.19 704.69 523.02C705.16 521.34 704.63 515.86 703.89 514.65C703.89 514.59 702.82 518.39 702.82 518.39C702.82 518.39 701.89 514.23 697.28 513.09C689.86 511.16 686.92 514.83 683.71 513.87C681.18 513.09 680.44 508.75 681.31 504.3Z" />
			<path id="Layer" class="shp12" d="M692.47 518.09L697.55 519.41C698.21 519.59 698.95 519.23 699.08 518.57L699.28 517.9L691.73 515.98L691.53 516.64C691.4 517.3 691.8 517.9 692.47 518.09Z" />
			<path id="Layer" class="shp1" d="M772.98 609.3C770.64 615.38 729.48 637.72 715.65 636.4L674.03 638.26C638.68 634.23 621.91 582.93 621.91 582.93C623.31 570.05 658.19 588.71 670.62 594.49C690.26 603.64 702.76 604.12 702.76 604.12C715.92 605.39 731.15 595.87 747.79 595.57C766.03 595.15 776.72 599.73 772.98 609.3Z" />
			<g id="Layer">
				<path id="Layer" class="shp8" d="M682.51 603.16C682.51 603.1 682.51 603.1 682.51 603.16L682.51 601.47L754.07 600.27L754.07 601.9L754.07 601.96L753.87 602.26C753 603.7 751.33 603.94 749.46 604L687.19 605.09C685.32 605.15 683.65 604.91 682.71 603.52L682.51 603.16Z" />
				<path id="Layer" class="shp8" d="M699.75 603.1C699.75 603.1 699.75 603.16 699.75 603.1L699.55 603.4C699.28 603.76 698.95 604.06 698.55 604.24L687.66 604.42C685.85 604.48 684.25 604.3 683.31 603.16L683.11 602.92C683.11 602.92 683.11 602.92 683.05 602.86L683.05 602.08L699.62 601.78L699.75 603.1Z" />
				<g id="Layer">
					<path id="Layer" class="shp8" d="M709.44 602.5L745.18 601.9L745.18 600.75L709.37 601.41L709.44 602.5Z" />
				</g>
				<g id="Layer">
					<path id="Layer" class="shp8" d="M700.15 601.11L708.77 568.12C708.97 567.28 709.91 566.55 710.84 566.49L761.09 565.65C762.02 565.65 762.56 566.31 762.36 567.22L753.74 600.21L700.15 601.11Z" />
				</g>
			</g>
			<path id="Layer" class="shp12" d="M667.75 646.75C672.69 647.53 676.5 642.18 676.5 642.18L689.33 632.78L686.59 626.4L661.6 636.88C661.6 636.88 662.73 645.97 667.75 646.75Z" />
			<path id="Layer" class="shp9" d="M676.43 641.81C676.43 641.81 676.43 642.36 675.5 644.82C674.56 647.29 673.36 648.14 672.16 648.5C667.35 649.82 663.94 649.16 652.45 651.21C640.95 653.25 637.48 651.69 634.14 646.75C630.8 641.81 634.27 637.9 639.88 637.54C647.97 637 652.51 637.84 656.72 637.24C661.13 636.64 661.4 635.67 664 634.17C666.41 632.78 668.68 641.09 666.41 643.02C664.34 644.7 674.76 644.94 676.43 641.81Z" />
			<path id="Layer" class="shp3" d="M674.03 646.57C669.28 647.9 665.81 647.23 654.32 649.28C642.82 651.33 639.35 649.76 636.01 644.82C634.47 642.54 634.41 640.49 635.27 638.92C632.74 640.55 631.87 643.38 634.14 646.75C637.48 651.69 640.95 653.25 652.45 651.21C663.94 649.16 667.41 649.82 672.16 648.5C673.09 648.26 674.03 647.65 674.83 646.27C674.56 646.39 674.29 646.51 674.03 646.57Z" />
			<path id="Layer" class="shp17" d="M676.43 641.99C676.43 641.87 676.43 641.87 676.43 641.87C676.43 641.93 676.37 641.99 676.3 642.05C676.37 641.99 676.43 641.99 676.43 641.99Z" />
			<g id="Layer">
				<path id="Layer" class="shp3" d="M651.64 645.67C651.31 645.79 650.98 645.13 650.84 644.22C650.64 642.36 650.17 640.55 649.51 638.68C649.17 637.78 649.17 637 649.57 636.88C649.97 636.76 650.64 637.42 650.91 638.32C651.58 640.13 651.98 641.99 652.18 643.8C652.31 644.7 651.98 645.55 651.64 645.67Z" />
				<path id="Layer" class="shp3" d="M655.18 645.07C654.78 645.13 654.45 644.52 654.32 643.68C654.12 641.93 653.65 640.19 652.98 638.5C652.65 637.66 652.65 636.94 653.11 636.88C653.51 636.82 654.18 637.48 654.52 638.32C655.12 640.01 655.59 641.75 655.79 643.44C655.85 644.28 655.59 645.01 655.18 645.07Z" />
				<path id="Layer" class="shp3" d="M658.93 644.94C658.53 645.01 658.12 644.34 657.99 643.44C657.66 641.63 657.19 639.89 656.45 638.08C656.12 637.18 656.12 636.46 656.52 636.46C656.99 636.46 657.66 637.12 657.99 638.02C658.73 639.77 659.19 641.57 659.46 643.32C659.59 644.16 659.33 644.88 658.93 644.94Z" />
			</g>
			<path id="Layer" class="shp4" d="M668.61 631.4C668.61 631.4 756.61 597.62 761.62 597.56C778.59 597.44 774.72 613.46 766.1 621.04C755.94 629.95 678.7 646.27 678.7 646.27L668.61 631.4Z" />
			<path id="Layer" class="shp12" d="M703.49 637.3L679.44 615.98L689.73 606.53L715.92 632.3L703.49 637.3Z" />
			<path id="Layer" class="shp4" d="M708.44 620.56C708.44 620.56 647.3 568.24 643.23 566.67C629.26 561.38 620.64 575.77 621.11 580.76C621.78 587.2 683.85 639.59 683.85 639.59L708.44 620.56Z" />
			<g id="Layer">
				<path id="Layer" class="shp9" d="M744.65 638.92C746.05 640.13 746.32 643.8 746.32 643.8C746.32 643.8 725.94 651.03 718.79 651.15C716.92 651.21 713.58 650.48 710.37 649.64C709.84 649.52 708.57 648.2 708.04 648.08C707.03 647.83 706.83 648.68 706.03 648.44C703.89 647.77 702.29 647.23 702.22 647.11C697.88 638.56 699.35 634.35 699.35 634.35C699.35 634.35 708.7 636.88 707.1 634.89C703.69 630.68 713.51 626.4 715.65 628.63C724.47 637.6 740.51 635.37 744.65 638.92Z" />
				<path id="Layer" class="shp3" d="M745.79 640.73C739.5 643.08 726.34 647.83 723.74 648.02C712.98 648.74 705.5 645.19 700.49 643.08C700.95 644.28 701.49 645.67 702.22 647.11C702.29 647.23 703.83 647.77 706.03 648.44C706.9 648.68 707.1 647.77 708.04 648.08C708.57 648.2 709.77 649.52 710.37 649.64C713.58 650.48 716.92 651.15 718.79 651.15C725.94 651.03 746.32 643.8 746.32 643.8C746.32 643.8 746.32 642.12 745.79 640.73Z" />
				<g id="Layer">
					<path id="Layer" class="shp3" d="M731.42 635.19C731.62 635.55 730.82 635.91 729.68 636.15C727.34 636.58 725.07 637.24 722.8 638.08C721.67 638.5 720.66 638.62 720.53 638.26C720.4 637.9 721.13 637.24 722.27 636.82C724.47 635.97 726.81 635.37 729.08 634.95C730.15 634.65 731.22 634.83 731.42 635.19Z" />
					<path id="Layer" class="shp3" d="M726.81 633.69C727.01 634.05 726.21 634.53 725.07 634.83C722.8 635.43 720.6 636.27 718.39 637.3C717.32 637.78 716.32 637.96 716.19 637.6C716.05 637.24 716.79 636.46 717.86 635.97C719.99 635.01 722.2 634.17 724.47 633.63C725.61 633.2 726.68 633.32 726.81 633.69Z" />
					<path id="Layer" class="shp3" d="M722.4 632.36C722.53 632.72 721.8 633.26 720.73 633.63C718.52 634.41 716.39 635.37 714.32 636.52C713.31 637.12 712.38 637.3 712.24 636.88C712.11 636.52 712.78 635.67 713.85 635.07C715.92 633.93 718.06 632.96 720.2 632.24C721.26 631.94 722.27 632 722.4 632.36Z" />
				</g>
			</g>
		</g>
	</g>
</svg>