<svg xmlns="http://www.w3.org/2000/svg" viewBox="0 0 1920 1080" width="1920" height="1080">
	<style>
		tspan { white-space:pre }
		.shp0 { fill: #fcd2b1 } 
		.shp1 { fill: #ffbe55 } 
		.shp2 { fill: #f7b690 } 
		.shp3 { fill: #0b4870 } 
		.shp4 { fill: #0e538c } 
		.shp5 { fill: #ffe3ca } 
	</style>
	<g id="Character">
		<g id="Layer">
			<g id="Layer">
				<path id="Layer" class="shp0" d="M863.35 807.27C862.31 816.87 861.74 827.07 866.15 835.65C870.56 844.24 881.74 850.05 890.19 845.38C894.95 842.76 897.69 837.64 900.16 832.79C914.04 805.59 927.93 778.39 941.81 751.19C953.26 728.77 965.01 704.97 963.56 679.84C962.88 668.22 959.24 656.64 952.22 647.37C946.09 639.27 932.76 626.37 923.59 635.84C914.47 645.27 908.2 661.73 902.42 673.41C889.08 700.36 878.8 728.83 871.83 758.09C867.97 774.28 865.13 790.72 863.35 807.27Z" />
				<path id="Layer" fill-rule="evenodd" class="shp1" d="M963.45 685.17C962.7 672.25 958.64 659.36 950.83 649.04C944.01 640.03 940.02 617.38 929.82 627.92C919.66 638.41 901.85 665.03 895.42 678.02C886.96 695.11 879.65 712.76 873.45 730.8L940.01 763.07C952.5 738.56 965.03 712.58 963.45 685.17Z" />
				<path id="Layer" class="shp2" d="M865.43 805.4C872.18 797.18 883.82 794.3 894.39 795.47C904.97 796.65 914.81 801.27 924.42 805.83C942.05 814.2 959.65 822.6 977.26 831.01C995.44 839.68 1013.61 848.35 1031.79 857.02C1034.62 858.38 1037.74 860.04 1038.65 863.05C1039.63 866.26 1037.49 869.77 1034.58 871.45C1031.67 873.13 1028.18 873.4 1024.82 873.58C997.55 875 970.08 872.4 943.53 866.04C930.11 862.83 916.93 858.67 904.11 853.57C893.1 849.2 877.48 844.36 868.58 836.28C860.08 828.55 857.93 814.55 865.43 805.4Z" />
			</g>
			<g id="Layer">
				<path id="Layer" fill-rule="evenodd" class="shp3" d="M979.58 866.7C999.84 863.73 1095.99 863.73 1116.24 866.7C1141.44 870.38 1137.65 901.74 1134.47 920.5C1131.01 940.97 1126.77 962.95 1111.73 977.25C1097.03 991.23 998.79 991.23 984.1 977.25C969.05 962.95 964.82 940.97 961.35 920.5C958.18 901.74 954.39 870.38 979.58 866.7Z" />
				<path id="Layer" fill-rule="evenodd" class="shp3" d="M1332.38 952.68C1342.96 964.34 1349.86 983.47 1340.69 995.59C1332.93 1005.86 1115.85 985.66 1083.75 985.66C1060.94 956.59 1061.84 912.43 1120.29 882.68C1132.8 876.31 1146.53 883 1160.12 885.86C1199.44 894.13 1306.11 923.71 1332.38 952.68Z" />
				<path id="Layer" fill-rule="evenodd" class="shp3" d="M863 745.49C847.32 744.12 830 750.22 822.37 763.99C816.12 775.24 817.46 789.48 822.72 801.23C827.98 812.97 836.7 822.77 845.29 832.36C969.42 971.02 971.42 977.3 992.17 982.87C1027.54 992.36 1070.24 982.72 1038.89 901.51C1033.84 888.42 901.97 748.88 863 745.49Z" />
				<path id="Layer" class="shp0" d="M973.46 1029.05C965.19 1024.23 948.81 1002.93 929.63 974.88L965.73 962.16C977.53 1004.04 982.12 1034.11 973.46 1029.05Z" />
				<path id="Layer" fill-rule="evenodd" class="shp4" d="M831.57 747.8C853.59 737.18 875.29 739.95 892.88 768.44C916.58 806.86 948.39 900.63 965.73 962.16L924.31 980.93C898.1 921.1 846.41 843.5 826.39 808.26C815.17 788.49 814.2 756.18 831.57 747.8Z" />
				<g id="Layer">
					<path id="Layer" class="shp0" d="M1082.95 989.92L1100.88 1023.43C1074.1 1025.2 1052.56 1025.5 1043.47 1021.74C1034.34 1017.95 1052.57 1004.6 1082.95 989.92Z" />
					<path id="Layer" fill-rule="evenodd" class="shp4" d="M1294.9 952.11C1328.38 952.11 1344.91 969.33 1344.91 981.45C1344.91 1002.07 1332.18 1024.12 1300.48 1024.12C1260.16 1024.12 1159.14 1022.74 1097.18 1026.97L1082.95 989.93C1128.67 967.84 1245.92 952.11 1294.9 952.11Z" />
					<path id="Layer" fill-rule="evenodd" class="shp3" d="M1030.21 1017.04C1031.43 1016.28 1040.66 1002.68 1046.68 1000.27C1050.17 998.87 1054.88 996.66 1058.63 998.49C1062.87 1000.57 1063.07 1006.46 1065.59 1010.01C1067.48 1012.68 1070.06 1014.87 1073.01 1016.32L1078.86 1008.45C1099.59 1018.03 1083.13 1042.13 1103.92 1052.04C1109.42 1054.67 1115.47 1056.43 1119.93 1060.7C1122.21 1062.9 1123.82 1065.77 1124.06 1068.94C1124.42 1073.83 1121.68 1076.79 1118.15 1078.17L1083.08 1061.15C1062.12 1050.98 1043.97 1035.84 1030.21 1017.04L1030.21 1017.04Z" />
				</g>
				<path id="Layer" fill-rule="evenodd" class="shp3" d="M928.15 1030.83C927.93 1025.29 930.24 1020.69 932.62 1019.4C935 1018.11 938.71 1008.82 943.64 995.23C945.89 989.01 958.45 987.27 964.72 997.98C966.75 1001.45 968.64 1003.7 970.92 1003.63C972.84 1003.56 974.98 1000.24 976.82 1002.44C978.44 1004.38 978.88 1009.49 979.29 1013.13C980 1019.41 980.64 1025.73 981.31 1032.03C981.46 1033.43 981.61 1034.89 981.66 1036.32L929.3 1036.32C928.67 1034.78 928.23 1032.91 928.15 1030.83Z" />
			</g>
			<g id="Layer">
				<path id="Layer" class="shp0" d="M1232.48 807.27C1233.51 816.87 1234.09 827.07 1229.68 835.65C1225.27 844.24 1214.08 850.05 1205.63 845.38C1200.87 842.76 1198.14 837.64 1195.67 832.79C1181.78 805.59 1167.9 778.39 1154.01 751.19C1142.57 728.77 1130.82 704.97 1132.27 679.84C1132.94 668.22 1136.59 656.64 1143.61 647.37C1149.74 639.27 1163.06 626.37 1172.23 635.84C1181.36 645.27 1187.63 661.73 1193.4 673.41C1206.74 700.36 1217.03 728.83 1224 758.09C1227.85 774.28 1230.7 790.72 1232.48 807.27Z" />
				<path id="Layer" fill-rule="evenodd" class="shp1" d="M1132.28 685.17C1133.03 672.25 1137.09 659.36 1144.9 649.04C1151.72 640.03 1155.71 617.38 1165.91 627.92C1176.07 638.41 1193.88 665.03 1200.31 678.02C1208.77 695.11 1216.08 712.76 1222.28 730.8L1155.72 763.07C1143.23 738.56 1130.7 712.58 1132.28 685.17Z" />
				<path id="Layer" class="shp0" d="M1228.62 810.15C1221.87 801.93 1210.23 799.05 1199.65 800.22C1189.08 801.4 1179.24 806.02 1169.63 810.58C1152 818.95 1134.39 827.35 1116.79 835.75C1098.61 844.43 1080.44 853.1 1062.26 861.77C1059.43 863.12 1056.31 864.79 1055.4 867.8C1054.42 871.01 1056.56 874.52 1059.47 876.2C1062.38 877.88 1065.87 878.15 1069.22 878.33C1096.5 879.75 1123.97 877.15 1150.52 870.79C1163.94 867.58 1177.12 863.42 1189.94 858.32C1200.95 853.95 1216.57 849.11 1225.47 841.03C1233.97 833.29 1236.12 819.3 1228.62 810.15Z" />
			</g>
			<path id="Layer" fill-rule="evenodd" class="shp1" d="M927.1 630.92C933.59 623.07 943.35 618.78 952.92 615.27C981.02 604.97 1045.48 578.01 1047.91 578.06C1050.35 578.01 1114.81 604.97 1142.91 615.27C1152.47 618.78 1162.24 623.07 1168.72 630.92C1177.38 641.39 1178.5 656.45 1175.39 669.67C1172.28 682.9 1165.5 694.91 1159.57 707.13C1152.18 722.39 1146.07 738.26 1141.27 754.51C1132.6 783.88 1128.22 814.51 1128.35 845.14C1128.39 854.52 1133.38 870.4 1130.5 879.26C1126.87 890.38 1107.69 892.9 1098 894.15C1081.41 896.29 1064.63 897 1047.91 896.3C1031.19 897 1014.42 896.29 997.82 894.15C988.13 892.9 968.95 890.38 965.33 879.26C962.44 870.4 967.43 854.52 967.47 845.14C967.61 814.52 963.23 783.88 954.56 754.51C949.76 738.26 943.64 722.39 936.25 707.13C930.33 694.91 923.54 682.9 920.43 669.67C917.32 656.45 918.45 641.39 927.1 630.92Z" />
			<g id="Layer">
				<path id="Layer" class="shp0" d="M1026.72 574.78C1029.34 566.34 1030.75 550.58 1035.96 544.97C1039.09 541.6 1055.43 541.6 1058.56 544.97C1063.77 550.58 1065.18 566.34 1067.8 574.78C1070.73 584.22 1073.29 595.55 1070.22 604.89C1068.08 611.44 1063.53 615.36 1058.93 616.68C1055.09 617.79 1039.43 617.79 1035.59 616.68C1030.98 615.36 1026.44 611.44 1024.29 604.89C1021.23 595.55 1023.79 584.22 1026.72 574.78Z" />
				<path id="Layer" class="shp5" d="M1012.67 503.76C1017.92 488.44 1076.6 488.44 1081.85 503.76C1086.04 515.95 1086.63 529.7 1084.25 542.53C1082 554.65 1077.11 565.63 1070.24 574.73C1065.56 580.93 1028.96 580.93 1024.28 574.73C1017.41 565.63 1012.52 554.65 1010.27 542.53C1007.89 529.7 1008.49 515.95 1012.67 503.76Z" />
			</g>
			<path id="Layer" class="shp4" d="M960.65 882.72L1138.59 882.72C1146.91 882.72 1153.84 876.34 1154.54 868.05L1163.77 758.09C1164.56 748.75 1157.19 740.74 1147.82 740.74L951.41 740.74C942.04 740.74 934.67 748.75 935.46 758.09L944.7 868.05C945.39 876.34 952.33 882.72 960.65 882.72Z" />
			<path id="Layer" class="shp3" d="M1163.38 762.79C1161.69 755.83 1155.41 750.57 1147.82 750.57L951.41 750.57C943.82 750.57 937.55 755.83 935.85 762.79L935.46 758.09C934.67 748.75 942.04 740.74 951.41 740.74L1147.82 740.74C1157.19 740.74 1164.56 748.75 1163.77 758.09L1163.38 762.79Z" />
		</g>
		<path id="Layer" class="shp5" d="M1058.37 583.49L1037.27 583.49C1025.85 583.49 1016.59 574.23 1016.59 562.81L1016.59 522.07C1016.59 510.65 1025.85 501.39 1037.27 501.39L1058.37 501.39C1069.78 501.39 1079.04 510.65 1079.04 522.07L1079.04 562.81C1079.04 574.23 1069.78 583.49 1058.37 583.49Z" />
		<path id="Layer" fill-rule="evenodd" class="shp3" d="M1033.78 469.54C1039.24 470.83 1044.86 468.62 1050.09 466.51C1055.32 464.4 1060.82 462.18 1066.35 463.02C1071.89 463.87 1077.29 469 1076.57 474.93C1084.04 471.98 1093.1 474.45 1098.33 480.85C1103.57 487.26 1104.64 497.18 1100.91 504.69C1098.65 509.22 1094.87 512.85 1093.23 517.67C1091.34 523.19 1093.51 536.43 1086.94 538.96C1081.86 540.92 1079.04 500.56 1064.8 499.54C1057.25 507.62 1044.67 509.68 1035.19 504.4C1031.64 502.42 1027.87 499.43 1024.05 500.72C1021.5 501.58 1018.36 502.81 1016.71 505.08C1012.74 510.56 1013.9 535.54 1008.42 539.67C1005.49 530.84 1004.34 521.36 1004.98 512.02C1002.5 512.09 1000.01 511.69 997.69 510.75C990.97 507.99 991.14 459.38 1033.78 469.54Z" />
		<path id="Layer" class="shp5" d="M1090.87 541.55C1092.29 538.93 1093.46 535.95 1093.07 532.96C1092.67 529.96 1090.19 527.12 1087.38 527.46C1085.65 527.68 1084.18 529.02 1083.28 530.63C1082.39 532.23 1081.98 534.08 1081.58 535.89C1080.88 539.06 1080.19 542.23 1079.49 545.39C1078.9 548.06 1078.55 551.44 1080.67 552.99C1084.53 555.82 1089.33 544.4 1090.87 541.55Z" />
		<path id="Layer" class="shp5" d="M1004.1 541.55C1002.68 538.93 1001.51 535.95 1001.9 532.96C1002.3 529.96 1004.78 527.12 1007.59 527.46C1009.33 527.68 1010.79 529.02 1011.69 530.63C1012.58 532.23 1012.99 534.08 1013.39 535.89C1014.09 539.06 1014.79 542.23 1015.48 545.39C1016.07 548.06 1016.42 551.44 1014.31 552.99C1010.44 555.82 1005.64 544.4 1004.1 541.55Z" />
	</g>
</svg>