<svg xmlns="http://www.w3.org/2000/svg" viewBox="0 0 279 66" width="279" height="66">
	<style>
		tspan { white-space:pre }
		.shp0 { fill: #007cc3 } 
		.shp1 { fill: #000000 } 
	</style>
	<g id="Symbols">
		<g id="TOP-NAV/Regular">
			<g id="Logo_nav">
				<g id="CPO_logo">
					<g id="cpo_logo">
						<g id="Shape_470_copy">
							<path id="Path" class="shp0" d="M78.02 43.89L78.02 52.07L133.3 46.52L133.3 43.89L78.02 43.89Z" />
						</g>
						<g id="Shape_470">
							<path id="Shape" fill-rule="evenodd" class="shp1" d="M134.26 16.95C134.52 16.95 134.77 17.09 134.96 17.34C135.14 17.59 135.25 17.93 135.25 18.29C135.25 19.03 134.81 19.63 134.26 19.63C133.72 19.63 133.28 19.03 133.28 18.29C133.28 17.55 133.72 16.95 134.26 16.95L134.26 16.95ZM134.26 19.27C134.45 19.27 134.63 19.16 134.76 18.98C134.9 18.8 134.97 18.55 134.97 18.29C134.97 17.89 134.79 17.53 134.52 17.38C134.25 17.24 133.94 17.32 133.73 17.61C133.53 17.89 133.47 18.32 133.59 18.68C133.71 19.04 133.97 19.28 134.26 19.27L134.26 19.27ZM134.43 18.43L134.71 19.04L134.43 19.04L134.18 18.44L134.09 18.44L134.09 19.04L133.84 19.04L133.84 17.55L134.27 17.55C134.56 17.55 134.69 17.71 134.69 18.01C134.7 18.23 134.59 18.41 134.43 18.43ZM134.45 17.99C134.45 17.83 134.33 17.81 134.24 17.81L134.08 17.81L134.08 18.19L134.26 18.19C134.37 18.19 134.45 18.16 134.45 17.99ZM82.49 16.78L93.69 16.78L93.69 22.33L84.12 22.33C83.41 22.34 82.84 23.11 82.83 24.07L82.83 33.98C82.84 34.94 83.41 35.71 84.12 35.72L93.69 35.72L93.69 41.27L82.49 41.27C80.01 41.27 78 38.55 78 35.18L78 22.87C78 19.5 80.01 16.78 82.49 16.78ZM113.55 22.87L113.55 29.63C113.55 32.99 111.54 35.72 109.07 35.72L101.75 35.72L101.75 30.16L107.45 30.16C108.15 30.15 108.72 29.37 108.72 28.42L108.72 24.07C108.72 23.12 108.15 22.34 107.44 22.33L100.08 22.33L100.08 41.27L95.35 41.27L95.35 16.78L109.07 16.78C111.54 16.78 113.55 19.51 113.55 22.87ZM128.79 16.78C131.27 16.78 133.27 19.51 133.28 22.87L133.28 35.18C133.27 38.55 131.27 41.27 128.79 41.27L119.7 41.27C117.22 41.27 115.21 38.55 115.21 35.18L115.21 22.87C115.21 19.5 117.22 16.78 119.7 16.78L128.79 16.78ZM128.44 24.07C128.44 23.11 127.87 22.34 127.16 22.33L121.33 22.33C120.62 22.34 120.05 23.11 120.05 24.07L120.05 33.98C120.05 34.94 120.62 35.71 121.33 35.72L127.16 35.72C127.87 35.71 128.44 34.94 128.44 33.98L128.44 24.07Z" />
						</g>
					</g>
					<g id="tagline">
						<g id="America_s_Leading_online_tool_retailer">
							<g id="America_s_Leading_online_tool_retailer-2">
								<path id="Shape" fill-rule="evenodd" class="shp0" d="M151.02 25.07L152.43 16L153.59 16L155 25.07L153.69 25.07L153.43 23.13L152.57 23.13L152.32 25.07L151.02 25.07ZM152.67 22.01L153.35 22.01L153.01 18.64L152.67 22.01Z" />
								<path id="Path" class="shp0" d="M155.42 25.07L155.42 16L157 16L157.69 22.05L158.45 16L159.97 16L159.97 25.07L159 25.07L158.97 18.69C158.9 19.35 158.77 20.41 158.59 21.88C158.41 23.35 158.28 24.42 158.21 25.07L157.22 25.07L156.42 18.65L156.39 25.07L155.42 25.07Z" />
								<path id="Path" class="shp0" d="M160.75 25.07L160.75 16L163.47 16L163.47 17.26L162.07 17.26L162.07 19.73L163.06 19.73L163.06 21.02L162.07 21.02L162.07 23.81L163.47 23.81L163.47 25.07L160.75 25.07Z" />
								<path id="Shape" fill-rule="evenodd" class="shp0" d="M163.94 25.07L163.94 16L165.38 16C165.67 16 165.96 16.04 166.24 16.13C166.47 16.21 166.69 16.35 166.89 16.54C167.08 16.72 167.23 16.98 167.32 17.28C167.42 17.63 167.47 18.01 167.46 18.39C167.46 18.58 167.46 18.75 167.45 18.9C167.44 19.07 167.41 19.24 167.38 19.4C167.35 19.58 167.3 19.74 167.24 19.9C167.17 20.06 167.08 20.21 166.98 20.33C166.86 20.48 166.72 20.6 166.58 20.68C166.97 22.41 167.31 23.87 167.6 25.07L166.23 25.07L165.48 20.89L165.26 20.89L165.26 25.07L163.94 25.07ZM165.27 19.78L165.65 19.78C165.74 19.78 165.84 19.73 165.91 19.64C165.98 19.54 166.03 19.42 166.06 19.29C166.09 19.16 166.11 19.02 166.13 18.89C166.14 18.77 166.15 18.66 166.15 18.55C166.15 18.43 166.15 18.32 166.14 18.21C166.13 18.08 166.11 17.96 166.08 17.83C166.06 17.7 166.01 17.59 165.94 17.49C165.88 17.4 165.8 17.35 165.71 17.36L165.27 17.36L165.27 19.78Z" />
								<path id="Path" class="shp0" d="M168.01 25.07L168.01 16L169.34 16L169.34 25.07L168.01 25.07Z" />
								<path id="Path" class="shp0" d="M170.03 22.05L170.03 19.04C170.03 16.89 170.66 15.82 171.92 15.82C172.16 15.82 172.4 15.87 172.63 15.97C173.01 16.14 173.32 16.53 173.49 17.03C173.59 17.29 173.65 17.57 173.69 17.86C173.73 18.19 173.75 18.52 173.75 18.85L173.75 19.63L172.45 19.63L172.45 18.79C172.45 18.63 172.45 18.49 172.44 18.37C172.44 18.23 172.43 18.1 172.41 17.96C172.39 17.83 172.36 17.71 172.32 17.59C172.29 17.49 172.23 17.41 172.17 17.34C172.09 17.27 172.01 17.24 171.92 17.24C171.54 17.24 171.35 17.69 171.35 18.58L171.35 22.5C171.35 23.39 171.54 23.83 171.92 23.83C172.02 23.84 172.12 23.79 172.21 23.7C172.29 23.59 172.35 23.46 172.37 23.31C172.4 23.15 172.43 22.99 172.44 22.82C172.45 22.64 172.46 22.46 172.46 22.28L172.46 21.34L173.75 21.34L173.75 22.11C173.75 22.43 173.73 22.75 173.69 23.07C173.66 23.36 173.59 23.65 173.51 23.92C173.43 24.18 173.32 24.42 173.18 24.62C173.03 24.82 172.85 24.98 172.66 25.08C172.42 25.2 172.17 25.26 171.92 25.25C171.67 25.26 171.41 25.2 171.17 25.08C170.97 24.98 170.78 24.83 170.63 24.62C170.48 24.42 170.36 24.18 170.28 23.92C170.19 23.65 170.12 23.35 170.09 23.05C170.05 22.72 170.03 22.38 170.03 22.05Z" />
								<path id="Shape" fill-rule="evenodd" class="shp0" d="M174.01 25.07L175.42 16L176.59 16L178 25.07L176.69 25.07L176.43 23.13L175.57 23.13L175.32 25.07L174.01 25.07ZM175.67 22.01L176.34 22.01L176.01 18.64L175.67 22.01Z" />
								<path id="Path" class="shp0" d="M178.75 18.62L178.45 17.77C178.57 17.77 178.69 17.74 178.8 17.67C178.89 17.61 178.96 17.48 178.96 17.33L178.49 17.33L178.49 15.83L179.57 15.83C179.57 15.92 179.57 16.06 179.57 16.23C179.57 16.41 179.58 16.56 179.59 16.69C179.59 16.82 179.59 16.97 179.58 17.15C179.58 17.31 179.56 17.46 179.55 17.61C179.53 17.75 179.5 17.88 179.46 18C179.43 18.13 179.38 18.24 179.31 18.34C179.25 18.43 179.17 18.5 179.08 18.55C178.98 18.6 178.86 18.62 178.75 18.62Z" />
								<path id="Path" class="shp0" d="M180.23 22.48L181.57 22.12C181.57 22.3 181.57 22.47 181.58 22.61C181.58 22.76 181.6 22.92 181.61 23.07C181.63 23.21 181.66 23.35 181.7 23.48C181.73 23.58 181.78 23.67 181.85 23.74C181.91 23.81 181.99 23.85 182.07 23.85C182.33 23.85 182.47 23.62 182.47 23.16C182.47 22.52 182.21 21.89 181.69 21.26L181.28 20.78C181.15 20.63 181.05 20.5 180.97 20.4C180.87 20.27 180.78 20.14 180.7 19.99C180.6 19.84 180.52 19.67 180.45 19.5C180.38 19.31 180.33 19.12 180.3 18.92C180.25 18.69 180.23 18.45 180.23 18.2C180.23 17.47 180.4 16.89 180.74 16.46C181.07 16.03 181.52 15.82 182.08 15.82C182.52 15.81 182.95 16.05 183.26 16.5C183.57 16.94 183.75 17.53 183.74 18.15L183.74 18.22L183.74 18.37L182.37 18.63C182.37 18.6 182.37 18.54 182.37 18.46C182.37 18.38 182.38 18.32 182.38 18.27C182.38 18.15 182.37 18.03 182.36 17.92C182.35 17.81 182.33 17.69 182.3 17.59C182.28 17.48 182.23 17.39 182.17 17.32C182.11 17.25 182.04 17.22 181.96 17.22C181.83 17.21 181.7 17.3 181.63 17.46C181.56 17.63 181.52 17.82 181.52 18.02C181.52 18.2 181.54 18.38 181.59 18.55C181.63 18.72 181.69 18.87 181.78 19.01C181.85 19.13 181.93 19.25 182.01 19.36C182.09 19.46 182.18 19.57 182.31 19.71C182.43 19.84 182.51 19.94 182.56 20.01C182.73 20.22 182.89 20.43 183.03 20.66C183.17 20.87 183.29 21.1 183.4 21.34C183.51 21.59 183.6 21.86 183.65 22.15C183.71 22.46 183.74 22.78 183.74 23.1C183.75 23.69 183.58 24.26 183.26 24.65C182.93 25.06 182.51 25.28 182.07 25.27C181.79 25.27 181.52 25.19 181.26 25.04C181.04 24.89 180.85 24.68 180.7 24.4C180.55 24.14 180.44 23.84 180.37 23.52C180.29 23.19 180.24 22.83 180.23 22.48L180.23 22.48Z" />
								<path id="Path" class="shp0" d="M151.37 36.54L151.37 27.47L152.69 27.47L152.69 35.28L153.99 35.28L153.99 36.54L151.37 36.54Z" />
								<path id="Path" class="shp0" d="M154.41 36.54L154.41 27.47L157.13 27.47L157.13 28.73L155.73 28.73L155.73 31.2L156.72 31.2L156.72 32.49L155.73 32.49L155.73 35.28L157.13 35.28L157.13 36.54L154.41 36.54Z" />
								<path id="Shape" fill-rule="evenodd" class="shp0" d="M157.25 36.54L158.66 27.47L159.82 27.47L161.23 36.54L159.93 36.54L159.66 34.6L158.81 34.6L158.55 36.54L157.25 36.54ZM158.9 33.47L159.58 33.47L159.24 30.1L158.9 33.47Z" />
								<path id="Shape" fill-rule="evenodd" class="shp0" d="M161.65 36.54L161.65 27.47L163.02 27.47C163.38 27.46 163.74 27.51 164.09 27.63C164.34 27.72 164.57 27.91 164.75 28.17C164.92 28.43 165.03 28.74 165.08 29.07C165.15 29.51 165.18 29.96 165.18 30.4L165.18 33.38C165.18 33.7 165.17 33.98 165.15 34.22C165.14 34.46 165.11 34.69 165.07 34.93C165.04 35.13 164.99 35.33 164.91 35.51C164.84 35.68 164.75 35.83 164.64 35.96C164.53 36.1 164.39 36.21 164.25 36.29C164.07 36.37 163.89 36.44 163.71 36.47C163.47 36.52 163.24 36.54 163 36.54L161.65 36.54ZM163.02 35.25C163.15 35.25 163.24 35.25 163.32 35.24C163.39 35.24 163.47 35.23 163.54 35.21C163.6 35.19 163.65 35.17 163.7 35.12C163.74 35.08 163.77 35.03 163.79 34.97C163.82 34.9 163.84 34.81 163.85 34.73C163.86 34.62 163.86 34.5 163.86 34.39L163.86 29.5C163.86 29.2 163.8 29.01 163.67 28.91C163.47 28.79 163.25 28.74 163.03 28.75L163.02 35.25Z" />
								<path id="Path" class="shp0" d="M165.87 36.54L165.87 27.47L167.2 27.47L167.2 36.54L165.87 36.54Z" />
								<path id="Path" class="shp0" d="M167.97 36.54L167.97 27.46L168.92 27.46L170.35 32.22L170.35 27.46L171.45 27.46L171.45 36.54L170.54 36.54L169.11 31.5L169.11 36.54L167.97 36.54Z" />
								<path id="Path" class="shp0" d="M172.14 33.7L172.14 30.51C172.14 28.36 172.78 27.29 174.07 27.29C174.31 27.28 174.56 27.33 174.79 27.44C175.18 27.6 175.5 27.99 175.67 28.49C175.77 28.76 175.83 29.04 175.87 29.33C175.91 29.65 175.93 29.98 175.93 30.31L175.93 30.85L174.67 30.85L174.67 30.21C174.67 30.06 174.67 29.92 174.66 29.8C174.65 29.66 174.64 29.53 174.62 29.4C174.6 29.27 174.57 29.15 174.52 29.04C174.47 28.94 174.41 28.86 174.34 28.8C174.26 28.74 174.16 28.7 174.07 28.71C173.66 28.71 173.46 29.15 173.46 30.05L173.46 33.96C173.46 34.85 173.66 35.3 174.07 35.3C174.47 35.3 174.67 34.84 174.67 33.92L174.67 33.19L173.92 33.19L173.92 31.88L175.99 31.88L175.99 36.54L175.08 36.54L174.91 35.9C174.79 36.15 174.63 36.35 174.44 36.49C174.24 36.63 174.02 36.71 173.8 36.71C173.58 36.72 173.36 36.66 173.16 36.53C172.98 36.43 172.82 36.26 172.69 36.06C172.56 35.85 172.45 35.62 172.37 35.37C172.29 35.11 172.23 34.83 172.19 34.55C172.16 34.27 172.14 33.99 172.14 33.7Z" />
								<path id="Shape" fill-rule="evenodd" class="shp0" d="M178.12 33.55L178.12 30.51C178.12 28.36 178.75 27.29 180.02 27.29C181.3 27.29 181.93 28.36 181.94 30.51L181.94 33.51C181.94 33.85 181.92 34.18 181.88 34.51C181.84 34.82 181.77 35.11 181.68 35.39C181.59 35.65 181.47 35.89 181.32 36.09C181.17 36.3 180.98 36.45 180.77 36.55C180.53 36.67 180.28 36.72 180.02 36.72C179.76 36.72 179.51 36.67 179.27 36.55C179.07 36.46 178.88 36.31 178.72 36.11C178.58 35.91 178.46 35.68 178.37 35.42C178.28 35.15 178.21 34.86 178.17 34.56C178.13 34.23 178.11 33.89 178.12 33.55ZM180.62 33.97L180.62 30.05C180.62 29.15 180.42 28.71 180.02 28.71C179.92 28.7 179.81 28.75 179.72 28.83C179.64 28.92 179.58 29.03 179.54 29.17C179.5 29.31 179.48 29.45 179.46 29.59C179.44 29.74 179.44 29.9 179.44 30.05L179.44 33.97C179.44 34.86 179.63 35.31 180.02 35.31C180.42 35.31 180.61 34.86 180.62 33.97Z" />
								<path id="Path" class="shp0" d="M182.63 36.54L182.63 27.46L183.58 27.46L185.01 32.22L185.01 27.46L186.11 27.46L186.11 36.54L185.19 36.54L183.76 31.5L183.76 36.54L182.63 36.54Z" />
								<path id="Path" class="shp0" d="M186.88 36.54L186.88 27.47L188.21 27.47L188.21 35.28L189.51 35.28L189.51 36.54L186.88 36.54Z" />
								<path id="Path" class="shp0" d="M189.92 36.54L189.92 27.47L191.25 27.47L191.25 36.54L189.92 36.54Z" />
								<path id="Path" class="shp0" d="M192.02 36.54L192.02 27.46L192.97 27.46L194.4 32.22L194.4 27.46L195.5 27.46L195.5 36.54L194.58 36.54L193.15 31.5L193.15 36.54L192.02 36.54Z" />
								<path id="Path" class="shp0" d="M196.27 36.54L196.27 27.47L199 27.47L199 28.73L197.6 28.73L197.6 31.2L198.59 31.2L198.59 32.49L197.6 32.49L197.6 35.28L199 35.28L199 36.54L196.27 36.54Z" />
								<path id="Path" class="shp0" d="M151.99 48L151.99 40.3L151.03 40.3L151.03 38.93L154.25 38.93L154.25 40.3L153.31 40.3L153.31 48L151.99 48Z" />
								<path id="Shape" fill-rule="evenodd" class="shp0" d="M154.6 45.02L154.6 41.97C154.6 39.82 155.24 38.75 156.51 38.75C157.78 38.75 158.42 39.82 158.42 41.97L158.42 44.97C158.42 45.31 158.4 45.65 158.36 45.98C158.33 46.28 158.26 46.57 158.17 46.85C158.08 47.11 157.96 47.35 157.81 47.56C157.65 47.76 157.47 47.92 157.26 48.02C156.77 48.23 156.25 48.23 155.76 48.02C155.56 47.92 155.37 47.77 155.21 47.57C155.07 47.38 154.95 47.14 154.86 46.89C154.77 46.61 154.7 46.32 154.66 46.02C154.62 45.69 154.6 45.35 154.6 45.02ZM157.1 45.43L157.1 41.52C157.1 40.63 156.9 40.18 156.51 40.18C156.4 40.18 156.3 40.22 156.21 40.3C156.12 40.39 156.06 40.5 156.03 40.64C155.99 40.78 155.96 40.92 155.95 41.06C155.93 41.22 155.92 41.37 155.92 41.52L155.92 45.44C155.92 46.33 156.12 46.78 156.51 46.78C156.9 46.78 157.1 46.33 157.1 45.43Z" />
								<path id="Shape" fill-rule="evenodd" class="shp0" d="M159.03 41.97C159.03 39.82 159.67 38.75 160.94 38.75C162.21 38.75 162.85 39.82 162.85 41.97L162.85 44.97C162.85 45.31 162.83 45.65 162.79 45.98C162.75 46.28 162.69 46.57 162.59 46.85C162.51 47.11 162.39 47.35 162.24 47.56C162.08 47.76 161.9 47.92 161.69 48.02C161.2 48.23 160.68 48.23 160.19 48.02C159.98 47.92 159.8 47.77 159.64 47.57C159.5 47.37 159.38 47.14 159.29 46.89C159.2 46.61 159.13 46.32 159.09 46.02C159.05 45.69 159.03 45.35 159.03 45.02L159.03 41.97ZM161.53 45.43L161.53 41.52C161.53 40.63 161.33 40.18 160.94 40.18C160.83 40.18 160.72 40.22 160.64 40.3C160.55 40.39 160.49 40.5 160.45 40.64C160.42 40.78 160.39 40.92 160.37 41.06C160.36 41.22 160.35 41.37 160.35 41.52L160.35 45.44C160.35 46.33 160.55 46.78 160.94 46.78C161.33 46.78 161.53 46.33 161.53 45.43Z" />
								<path id="Path" class="shp0" d="M163.54 48L163.54 38.93L164.87 38.93L164.87 46.74L166.16 46.74L166.16 48L163.54 48Z" />
								<path id="Shape" fill-rule="evenodd" class="shp0" d="M168.07 48L168.07 38.93L169.5 38.93C169.79 38.93 170.08 38.97 170.36 39.06C170.6 39.14 170.82 39.27 171.01 39.46C171.2 39.65 171.35 39.91 171.44 40.2C171.54 40.56 171.59 40.94 171.58 41.32C171.58 41.51 171.58 41.68 171.57 41.82C171.56 41.99 171.53 42.16 171.5 42.33C171.47 42.51 171.42 42.68 171.36 42.83C171.29 43 171.2 43.14 171.1 43.26C170.98 43.41 170.84 43.53 170.7 43.62C171.09 45.34 171.43 46.8 171.72 48L170.35 48L169.6 43.82L169.38 43.82L169.38 48L168.07 48ZM169.39 42.71L169.77 42.71C169.87 42.71 169.96 42.66 170.03 42.56C170.1 42.47 170.16 42.34 170.19 42.21C170.22 42.08 170.24 41.94 170.26 41.81C170.27 41.7 170.28 41.58 170.28 41.47C170.28 41.35 170.27 41.24 170.26 41.13C170.25 41.01 170.23 40.88 170.2 40.75C170.18 40.62 170.13 40.51 170.06 40.41C170 40.32 169.92 40.28 169.83 40.28L169.39 40.28L169.39 42.71Z" />
								<path id="Path" class="shp0" d="M172.14 48L172.14 38.93L174.86 38.93L174.86 40.19L173.46 40.19L173.46 42.66L174.45 42.66L174.45 43.95L173.46 43.95L173.46 46.74L174.86 46.74L174.86 48L172.14 48Z" />
								<path id="Path" class="shp0" d="M175.95 48L175.95 40.3L174.99 40.3L174.99 38.93L178.21 38.93L178.21 40.3L177.27 40.3L177.27 48L175.95 48Z" />
								<path id="Shape" fill-rule="evenodd" class="shp0" d="M178.29 48L179.71 38.93L180.87 38.93L182.28 48L180.98 48L180.71 46.06L179.85 46.06L179.6 48L178.29 48ZM179.95 44.93L180.62 44.93L180.29 41.57L179.95 44.93Z" />
								<path id="Path" class="shp0" d="M182.7 48L182.7 38.93L184.02 38.93L184.02 48L182.7 48Z" />
								<path id="Path" class="shp0" d="M184.79 48L184.79 38.93L186.12 38.93L186.12 46.74L187.41 46.74L187.41 48L184.79 48Z" />
								<path id="Path" class="shp0" d="M187.84 48L187.84 38.93L190.56 38.93L190.56 40.19L189.16 40.19L189.16 42.66L190.15 42.66L190.15 43.95L189.16 43.95L189.16 46.74L190.56 46.74L190.56 48L187.84 48Z" />
								<path id="Shape" fill-rule="evenodd" class="shp0" d="M191.03 48L191.03 38.93L192.47 38.93C192.76 38.93 193.05 38.97 193.33 39.06C193.56 39.14 193.78 39.27 193.98 39.46C194.17 39.65 194.31 39.91 194.4 40.2C194.51 40.56 194.56 40.94 194.55 41.32C194.55 41.51 194.54 41.68 194.53 41.82C194.52 41.99 194.5 42.16 194.47 42.33C194.43 42.51 194.39 42.68 194.32 42.83C194.25 43 194.16 43.14 194.06 43.26C193.94 43.41 193.81 43.53 193.66 43.62C194.05 45.34 194.39 46.8 194.68 48L193.31 48L192.57 43.82L192.35 43.82L192.35 48L191.03 48ZM192.36 42.71L192.73 42.71C192.83 42.71 192.93 42.66 193 42.56C193.07 42.47 193.12 42.34 193.15 42.21C193.18 42.08 193.21 41.94 193.22 41.81C193.23 41.7 193.24 41.58 193.24 41.47C193.24 41.35 193.24 41.24 193.22 41.13C193.21 41.01 193.19 40.88 193.17 40.75C193.14 40.62 193.1 40.51 193.03 40.41C192.97 40.32 192.88 40.28 192.8 40.28L192.35 40.28L192.36 42.71Z" />
							</g>
						</g>
						<g id="Shape_477">
							<path id="Rectangle" class="shp1" d="M142.33 13L142.89 13L142.89 53L142.33 53L142.33 13Z" />
						</g>
					</g>
				</g>
			</g>
		</g>
	</g>
</svg>