<?xml version="1.0" encoding="UTF-8"?>
<svg width="279px" height="66px" viewBox="0 0 279 66" version="1.1" xmlns="http://www.w3.org/2000/svg" xmlns:xlink="http://www.w3.org/1999/xlink">
    <!-- Generator: Sketch 55.2 (78181) - https://sketchapp.com -->
    <title>CPO_logo</title>
    <desc>Created with Sketch.</desc>
    <g id="Symbols" stroke="none" stroke-width="1" fill="none" fill-rule="evenodd">
        <g id="TOP-NAV/Regular" transform="translate(-81.000000, -57.000000)">
            <g id="Logo_nav" transform="translate(0.000000, 40.000000)">
                <g id="CPO_logo" transform="translate(81.000000, 17.000000)">
                    <g id="cpo_logo" transform="translate(0.000000, 6.000000)">
                        <g id="Shape_470_copy" transform="translate(0.000000, 44.888669)" fill="#007CC3">
                            <polygon id="Path" points="0.0384466019 0.0598515586 0.0384466019 13.5488966 127.28132 4.39160811 127.28132 0.0598515586"></polygon>
                        </g>
                        <g id="Shape_470" fill="#000000" fill-rule="nonzero">
                            <path d="M130.503146,2.26687778 C130.503146,1.76811479 130.19301,1.49878278 129.534291,1.49878278 L128.537243,1.49878278 L128.537243,3.9551905 L129.111379,3.9551905 L129.111379,2.97761504 L129.324117,2.97761504 L129.893126,3.9551905 L130.528777,3.9551905 L129.898252,2.95766452 C130.258156,2.92342554 130.525565,2.61804512 130.503146,2.26687778 Z M129.513786,2.55117269 L129.098563,2.55117269 L129.098563,1.92771895 L129.459961,1.92771895 C129.659883,1.92771895 129.92901,1.95764473 129.92901,2.23445819 C129.92901,2.51127165 129.757282,2.55117269 129.513786,2.55117269 Z M129.513786,0.518690908 C128.262427,0.518690908 127.248,1.50571629 127.248,2.72324592 C127.248,3.94077555 128.262427,4.92777833 129.513786,4.92777833 C130.765146,4.92777833 131.779573,3.94077555 131.779573,2.72324592 C131.779573,2.13683514 131.539456,1.57458666 131.112319,1.16086869 C130.685181,0.747150717 130.106232,0.516060066 129.503534,0.518690908 L129.513786,0.518690908 Z M129.513786,4.33425037 C128.840813,4.34945832 128.225361,3.96673867 127.956922,3.36611187 C127.688483,2.76548507 127.820496,2.06651864 128.290865,1.59798655 C128.761234,1.12945447 129.476322,0.984627972 130.099773,1.23162935 C130.723224,1.47863072 131.130925,2.06828911 131.131107,2.72324592 C131.13867,3.14796811 130.970538,3.55783931 130.664486,3.86077644 C130.358433,4.16371356 129.940123,4.33431411 129.503534,4.33425037 L129.513786,4.33425037 Z M0,10.2720238 L0,30.5866403 C0.00706386159,36.1311352 4.62564116,40.6237368 10.3241942,40.6292331 L36.119301,40.6292331 L36.119301,31.466957 L14.0765825,31.466957 C12.4501839,31.4601272 11.1334661,30.179006 11.1264466,28.596576 L11.1264466,12.2620881 C11.1334758,10.6800669 12.4505986,9.39966502 14.0765825,9.39420089 L36.119301,9.39420089 L36.119301,0.229430975 L10.3241942,0.229430975 C4.62564116,0.23492721 0.00706386159,4.72752878 0,10.2720238 Z M71.5106796,0.229430975 L39.9280777,0.229430975 L39.9280777,40.6292331 L50.8340971,40.6292331 L50.8340971,9.39420089 L67.7685437,9.39420089 C69.391104,9.40376783 70.7028327,10.683373 70.7084272,12.2620881 L70.7084272,19.431806 C70.702926,21.0047426 69.4004706,22.2819828 67.7839223,22.2996932 L54.6582524,22.2996932 L54.6582524,31.466957 L71.5106796,31.466957 C77.2092326,31.4614607 81.8278099,26.9688591 81.8348738,21.4243642 L81.8348738,10.2745176 C81.8278127,4.72961764 77.2096473,0.236301135 71.5106796,0.229430975 Z M116.903301,0.229430975 L95.9780971,0.229430975 C90.2791276,0.234924376 85.6598155,4.72712546 85.6513398,10.2720238 L85.6513398,30.5866403 C85.6598155,36.1315386 90.2791276,40.6237397 95.9780971,40.6292331 L116.91099,40.6292331 C122.609543,40.6237368 127.228121,36.1311352 127.235184,30.5866403 L127.235184,10.2745176 C127.228123,4.72961764 122.609958,0.236301135 116.91099,0.229430975 L116.903301,0.229430975 Z M116.108738,28.596576 C116.103122,30.1772252 114.788291,31.457624 113.163728,31.4644631 L99.7330485,31.4644631 C98.1070701,31.4576239 96.7910917,30.1761087 96.7854757,28.5940821 L96.7854757,12.2620881 C96.7911006,10.6804702 98.1074846,9.39967367 99.7330485,9.39420089 L113.156039,9.39420089 C114.783023,9.39829778 116.1017,10.6790974 116.108738,12.2620881 L116.108738,28.596576 Z" id="Shape"></path>
                        </g>
                    </g>
                    <g id="tagline" transform="translate(148.000000, 0.000000)" fill-rule="nonzero">
                        <g id="America_s_Leading_online_tool_retailer" transform="translate(20.072109, 4.551724)" fill="#007CC3">
                            <g id="America_s_Leading_online_tool_retailer-2">
                                <path d="M0,15.3570115 L3.2471082,0.402068966 L5.9352463,0.402068966 L9.17219141,15.3570115 L6.16645666,15.3570115 L5.54904876,12.1581609 L3.58757182,12.1581609 L3.00319397,15.3570115 L0,15.3570115 Z M3.81115986,10.2995402 L5.36357232,10.2995402 L4.60134034,4.74896552 L3.81115986,10.2995402 Z" id="Shape"></path>
                                <path d="M10.1326037,15.3570115 L10.1326037,0.402068966 L13.770991,0.402068966 L15.3742189,10.3678161 L17.1019447,0.397011494 L20.6158341,0.397011494 L20.6158341,15.3570115 L18.3799536,15.3570115 L18.3138935,4.83747126 C18.1445087,5.91977011 17.8523197,7.67302682 17.4373268,10.0972414 C17.0223338,12.5214559 16.7301449,14.2747126 16.56076,15.3570115 L14.2893087,15.3570115 L12.4497889,4.77172414 L12.381188,15.3570115 L10.1326037,15.3570115 Z" id="Path"></path>
                                <polygon id="Path" points="22.4045385 15.3570115 22.4045385 0.402068966 28.672626 0.402068966 28.672626 2.47816092 25.4433033 2.47816092 25.4433033 6.54942529 27.7299992 6.54942529 27.7299992 8.67609195 25.4433033 8.67609195 25.4433033 13.2809195 28.672626 13.2809195 28.672626 15.3570115"></polygon>
                                <path d="M29.7575362,15.3570115 L29.7575362,0.402068966 L33.0605414,0.402068966 C33.7281855,0.392765385 34.394499,0.464090806 35.0448853,0.614482759 C35.581401,0.740255414 36.0891671,0.965908732 36.5414008,1.27954023 C36.9760482,1.58736481 37.3150053,2.01058718 37.5195985,2.50091954 C37.756418,3.08454476 37.8713931,3.71004004 37.8575213,4.33931034 C37.8575213,4.65034483 37.8575213,4.92850575 37.8244913,5.17126437 C37.7949188,5.45304322 37.7430962,5.73206669 37.6695041,6.00574713 C37.599763,6.29257362 37.4921122,6.56892888 37.3493667,6.82758621 C37.187554,7.09456835 36.9843207,7.33439101 36.7472034,7.53816092 C36.4705488,7.77911963 36.1576148,7.97537668 35.8198212,8.11977011 C36.7209488,10.9671264 37.5060477,13.3761686 38.175118,15.3468966 L35.0169368,15.3468966 L33.2968333,8.45862069 L32.7886787,8.45862069 L32.7886787,15.3570115 L29.7575362,15.3570115 Z M32.8064641,6.62528736 L33.6754086,6.62528736 C33.8982704,6.62937829 34.1137511,6.54577529 34.275031,6.39264368 C34.4412643,6.23440626 34.5630167,6.03564345 34.6281985,5.81609195 C34.6984772,5.60136167 34.7519924,5.38155132 34.7882672,5.15862069 C34.8177373,4.97206329 34.8330253,4.78355912 34.8340012,4.59471264 C34.837824,4.41144168 34.8293359,4.2281213 34.8085934,4.04597701 C34.7791016,3.83395167 34.734095,3.62435234 34.6739324,3.41885057 C34.6200889,3.20602414 34.5115105,3.01081182 34.3588766,2.85241379 C34.2174606,2.70833933 34.0225699,2.62873952 33.8202326,2.63241379 L32.8039233,2.63241379 L32.8064641,6.62528736 Z" id="Shape"></path>
                                <polygon id="Path" points="39.1279079 15.3570115 39.1279079 0.402068966 42.1768358 0.402068966 42.1768358 15.3570115"></polygon>
                                <path d="M43.7571968,10.3678161 L43.7571968,5.41149425 C43.7571968,1.87126437 45.2096722,0.101149425 48.1146229,0.101149425 C48.6695416,0.0943460617 49.2217068,0.179812497 49.7483401,0.354022989 C50.6281849,0.631168766 51.351408,1.26202238 51.7428471,2.0937931 C51.9553454,2.52790344 52.1066766,2.98910624 52.192564,3.46436782 C52.2899947,4.00168793 52.3367788,4.54689178 52.3323065,5.09287356 L52.3323065,6.38252874 L49.3418164,6.38252874 L49.3418164,5.00436782 C49.3418164,4.7337931 49.3418164,4.49862069 49.3265717,4.30390805 C49.3108987,4.07724559 49.2812,3.85176041 49.2376447,3.62873563 C49.2026027,3.4162119 49.1384879,3.2094642 49.0470867,3.01425287 C48.9619291,2.85270273 48.8379953,2.71458919 48.6862969,2.61218391 C48.5182556,2.49780733 48.318116,2.43937786 48.1146229,2.44528736 C47.2355154,2.44528736 46.7959616,3.18199234 46.7959616,4.6554023 L46.7959616,11.1112644 C46.7959616,12.5813027 47.2355154,13.3154789 48.1146229,13.3137931 C48.3549308,13.3207985 48.5896387,13.2408369 48.7752239,13.0887356 C48.9639065,12.9200276 49.0975273,12.6989685 49.1588807,12.454023 C49.2345991,12.1901428 49.2873038,11.9202533 49.3164086,11.6473563 C49.3465497,11.3482332 49.3609671,11.047747 49.3596018,10.7471264 L49.3596018,9.20965517 L52.3399288,9.20965517 L52.3399288,10.474023 C52.3307223,11.0027228 52.2831709,11.5300709 52.1976455,12.051954 C52.1132982,12.5361356 51.9699576,13.0082773 51.7707956,13.457931 C51.5889887,13.8843204 51.3306997,14.2742028 51.0085636,14.6085057 C50.6684385,14.943241 50.26045,15.2018751 49.8118594,15.3671264 C49.2722163,15.5658416 48.7000953,15.6627443 48.124786,15.6528736 C47.5352342,15.662404 46.9486236,15.5682376 46.3919786,15.3747126 C45.9288784,15.2115273 45.5055326,14.9530364 45.1495405,14.616092 C44.8108755,14.2853185 44.537662,13.8941667 44.3441154,13.4629885 C44.1312958,13.0044663 43.9809097,12.519728 43.8969393,12.0216092 C43.8041566,11.475181 43.7574131,10.9219921 43.7571968,10.3678161 Z" id="Path"></path>
                                <path d="M52.931929,15.3570115 L56.1790372,0.402068966 L58.8671753,0.402068966 L62.1066611,15.3570115 L59.1085487,15.3570115 L58.4911408,12.1581609 L56.5296639,12.1581609 L55.945286,15.3570115 L52.931929,15.3570115 Z M56.7430888,10.2995402 L58.2955013,10.2995402 L57.5332693,4.74896552 L56.7430888,10.2995402 Z" id="Shape"></path>
                                <path d="M63.84455,4.71356322 L63.1432966,3.31011494 C63.4201315,3.32120401 63.6957916,3.26841032 63.9487217,3.15586207 C64.1732097,3.05435638 64.3179906,2.83229221 64.3196746,2.58689655 L63.2500091,2.58689655 L63.2500091,0.118850575 L65.7221815,0.118850575 C65.7221815,0.267203065 65.727263,0.487203065 65.7374261,0.778850575 C65.7374261,1.06965517 65.7577523,1.32252874 65.7628338,1.53747126 C65.7679154,1.75241379 65.7628338,2.00022989 65.75013,2.29609195 C65.7413984,2.55046483 65.7150815,2.80393766 65.671366,3.05471264 C65.6284454,3.27626856 65.5637688,3.49309439 65.4782672,3.70206897 C65.4030596,3.90535658 65.2882175,4.09184282 65.1403444,4.2508046 C64.9897384,4.40330659 64.8077036,4.5215 64.606782,4.59724138 C64.3624902,4.68406748 64.1037575,4.72355187 63.84455,4.71356322 Z" id="Path"></path>
                                <path d="M67.2491862,11.0783908 L70.3286034,10.4891954 C70.3286034,10.7926437 70.3286034,11.0606897 70.3463888,11.2933333 C70.3599363,11.547697 70.3887834,11.8010244 70.4327751,12.051954 C70.4682833,12.2833976 70.5331682,12.5094188 70.6258738,12.7245977 C70.7044501,12.8950134 70.8208616,13.0454584 70.9663374,13.1645977 C71.1143296,13.2835388 71.2995395,13.3470708 71.4897367,13.3441379 C72.0910531,13.3441379 72.3917112,12.9622989 72.3917112,12.1986207 C72.3917112,11.1517241 71.7988641,10.1098851 70.61317,9.07310345 L69.6705431,8.27655172 C69.3681911,8.02367816 69.1293584,7.81885057 68.9515043,7.65195402 C68.7287028,7.43992909 68.5183192,7.21534481 68.3213925,6.97931034 C68.1004576,6.72960839 67.9102489,6.45456067 67.7548001,6.16 C67.6021554,5.85728931 67.4845269,5.53831278 67.4041734,5.2091954 C67.30356,4.82448832 67.2540169,4.42832085 67.2568085,4.0308046 C67.2568085,2.81701149 67.643853,1.85693487 68.4179419,1.15057471 C69.1801739,0.445057471 70.2193501,0.0910344828 71.4973591,0.0910344828 C72.5207515,0.0743229136 73.5045727,0.484139886 74.2109049,1.22137931 C74.942618,1.939522 75.3466594,2.92473348 75.3288451,3.94735632 L75.3288451,4.05609195 L75.3288451,4.30896552 L72.1833678,4.73885057 C72.1833678,4.67816092 72.1833678,4.58206897 72.1833678,4.45310345 C72.1833678,4.32413793 72.1960717,4.2154023 72.1960717,4.13195402 C72.1962631,3.94064118 72.1818237,3.74959131 72.1528785,3.56045977 C72.12429,3.37371932 72.0783593,3.19002058 72.0156768,3.01172414 C71.960722,2.84057771 71.857543,2.68873676 71.7184063,2.57425287 C71.5820497,2.46470312 71.4108234,2.40730015 71.2356594,2.41241379 C70.9283343,2.39286547 70.6352264,2.54358709 70.4734274,2.80436782 C70.3003638,3.07996532 70.2120475,3.39991366 70.2193501,3.72482759 C70.2178265,4.02189233 70.2676755,4.31700279 70.366715,4.59724138 C70.4667889,4.87463493 70.6165772,5.13166714 70.8088095,5.35586207 C70.9799512,5.56123945 71.1623155,5.75709092 71.3550758,5.94252874 C71.5227668,6.09678161 71.7463548,6.28643678 72.0232991,6.51149425 C72.3002434,6.73655172 72.4984237,6.8983908 72.6152993,7.01724138 C72.9978294,7.34944842 73.3609087,7.70320891 73.7027502,8.07678161 C74.011394,8.4255497 74.2901587,8.79942238 74.5361239,9.19448276 C74.7980692,9.61159197 74.9966977,10.0649097 75.1255832,10.5397701 C75.2590594,11.0499566 75.3248318,11.575343 75.3212228,12.1025287 C75.3542431,13.0777625 74.9502441,14.0171958 74.2185272,14.6666667 C73.4690254,15.338235 72.4903704,15.6999874 71.4821144,15.6781609 C70.8430894,15.6890211 70.2096062,15.5586063 69.6273499,15.2963218 C69.1132686,15.0612536 68.6648796,14.7044155 68.3213925,14.2570115 C67.9899065,13.8165983 67.7324788,13.325533 67.5591605,12.8029885 C67.3756556,12.2452918 67.2713227,11.6648173 67.2491862,11.0783908 L67.2491862,11.0783908 Z" id="Path"></path>
                                <polygon id="Path" points="0.807965891 34.2643678 0.807965891 19.3094253 3.85689378 19.3094253 3.85689378 32.1882759 6.83468002 32.1882759 6.83468002 34.2643678"></polygon>
                                <polygon id="Path" points="7.80271463 34.2643678 7.80271463 19.3094253 14.0708022 19.3094253 14.0708022 21.3855172 10.8414794 21.3855172 10.8414794 25.4567816 13.1281753 25.4567816 13.1281753 27.5834483 10.8414794 27.5834483 10.8414794 32.1882759 14.0708022 32.1882759 14.0708022 34.2643678"></polygon>
                                <path d="M14.3401242,34.2643678 L17.5872324,19.3094253 L20.2753705,19.3094253 L23.5123156,34.2643678 L20.5167439,34.2643678 L19.899336,31.0655172 L17.9378591,31.0655172 L17.3534812,34.2643678 L14.3401242,34.2643678 Z M18.151284,29.2068966 L19.7036965,29.2068966 L18.9414645,23.6436782 L18.151284,29.2068966 Z" id="Shape"></path>
                                <path d="M24.482891,34.2643678 L24.482891,19.3094253 L27.6207459,19.3094253 C28.4539215,19.2896771 29.2860568,19.379809 30.0954591,19.5774713 C30.6791948,19.7217332 31.2085935,20.0308423 31.619923,20.4675862 C31.9937844,20.8917856 32.2557292,21.401896 32.382155,21.951954 C32.5396321,22.674436 32.6112649,23.4128321 32.5955799,24.151954 L32.5955799,29.0551724 C32.5955799,29.5862069 32.5777945,30.0489655 32.5447645,30.445977 C32.5120626,30.8379301 32.4492059,31.2268098 32.3567472,31.6091954 C32.2818743,31.9476633 32.155041,32.2726263 31.9807128,32.5726437 C31.8136998,32.8463007 31.6074127,33.0942059 31.3683865,33.3085057 C31.1029154,33.5440519 30.7951833,33.7276447 30.4613304,33.8496552 C30.0589748,33.9942812 29.6425846,34.0968262 29.2188923,34.1556322 C28.6753252,34.2330979 28.1266405,34.2694472 27.5775528,34.2643678 L24.482891,34.2643678 Z M27.6385313,32.1452874 C27.9256387,32.1452874 28.146686,32.1452874 28.3219993,32.1326437 C28.4928727,32.125875 28.6628642,32.1047268 28.830154,32.0694253 C28.9613324,32.0505585 29.086943,32.004001 29.1985661,31.9328736 C29.2861052,31.8630674 29.3594123,31.7772323 29.4145318,31.68 C29.483998,31.5585419 29.5280741,31.4243597 29.5441113,31.2855172 C29.5665441,31.0967108 29.5767283,30.9066618 29.5746005,30.7165517 L29.5746005,22.6650575 C29.5746005,22.171954 29.4272357,21.8457471 29.132506,21.683908 C28.6623464,21.4898566 28.1543824,21.4034365 27.6461537,21.4310345 L27.6385313,32.1452874 Z" id="Shape"></path>
                                <polygon id="Path" points="34.1988078 34.2643678 34.1988078 19.3094253 37.2477357 19.3094253 37.2477357 34.2643678"></polygon>
                                <polygon id="Path" points="39.0237362 34.2643678 39.0237362 19.2993103 41.211342 19.2993103 44.5143472 27.1383908 44.5143472 19.2993103 47.0347943 19.2993103 47.0347943 34.2643678 44.931034 34.2643678 41.6432734 25.9625287 41.6432734 34.2643678"></polygon>
                                <path d="M48.6253183,29.5862069 L48.6253183,24.3188506 C48.6253183,20.7786207 50.1023545,19.0085057 53.0564269,19.0085057 C53.6221558,19.001651 54.1851926,19.0870731 54.7231741,19.2613793 C55.6162612,19.5312435 56.3540131,20.1627041 56.7557927,21.0011494 C56.9708798,21.4351157 57.1255942,21.8962092 57.2156727,22.3717241 C57.3131034,22.9090443 57.3598875,23.4542481 57.3554152,24.0002299 L57.3554152,24.8802299 L54.4513114,24.8802299 L54.4513114,23.8333333 C54.4513114,23.5804598 54.4513114,23.3452874 54.4309852,23.148046 C54.4126639,22.9274585 54.3778434,22.7085376 54.3268135,22.4931034 C54.2833613,22.2844002 54.2070438,22.0838423 54.1006847,21.8988506 C53.9986951,21.7367841 53.8582124,21.6021775 53.6916202,21.5068966 C53.4979573,21.3986119 53.2784861,21.3444409 53.0564269,21.3501149 C52.1281977,21.3501149 51.6640831,22.0868199 51.6640831,23.5602299 L51.6640831,30.016092 C51.6640831,31.4827586 52.1281977,32.2169349 53.0564269,32.2186207 C53.984656,32.2203065 54.4470767,31.4616858 54.443689,29.9427586 L54.443689,28.7466667 L52.7235856,28.7466667 L52.7235856,26.5770115 L57.4824538,26.5770115 L57.4824538,34.2643678 L55.3888567,34.2643678 L55.0026592,33.2174713 C54.7305168,33.6304164 54.3536341,33.9645145 53.9101267,34.185977 C53.4606675,34.4257359 52.9591224,34.5524814 52.4491821,34.5551724 C51.9423972,34.5621675 51.4399616,34.4612943 50.9755336,34.2593103 C50.5587168,34.080811 50.1859159,33.8141837 49.8830011,33.477931 C49.5839368,33.1363144 49.3396839,32.7507731 49.1588807,32.3349425 C48.9673906,31.906108 48.8275239,31.4562411 48.7421939,30.9947126 C48.6606209,30.5296814 48.6215028,30.0582566 48.6253183,29.5862069 Z" id="Path"></path>
                                <path d="M62.3810647,29.345977 L62.3810647,24.3188506 C62.3810647,20.7786207 63.845397,19.0085057 66.7740616,19.0085057 C69.7027262,19.0085057 71.1687524,20.7786207 71.1721401,24.3188506 L71.1721401,29.2701149 C71.1760369,29.8258149 71.1318334,30.3808164 71.0400199,30.9289655 C70.9530034,31.4272971 70.8000751,31.9119684 70.5852215,32.3703448 C70.3847234,32.8022311 70.1075741,33.1945695 69.7670925,33.5285057 C69.4027546,33.8685487 68.9696251,34.1271951 68.4967059,34.2871264 C67.9390107,34.4797254 67.3515829,34.5730288 66.7613577,34.5627586 C66.1741293,34.5717139 65.5897202,34.480191 65.0336319,34.2921839 C64.5692506,34.1386469 64.1424879,33.889661 63.7810307,33.5613793 C63.442053,33.2379325 63.1663647,32.854655 62.9679833,32.4310345 C62.7504563,31.9794563 62.595741,31.500495 62.5081033,31.0073563 C62.4161173,30.4584351 62.373602,29.9024308 62.3810647,29.345977 Z M68.1333753,30.0262069 L68.1333753,23.5627586 C68.1333753,22.0876628 67.6802707,21.3509579 66.7740616,21.3526437 C66.5271144,21.3449124 66.2841271,21.4157802 66.0804305,21.5549425 C65.8881737,21.6952282 65.7429435,21.8900075 65.6637437,22.1137931 C65.5769742,22.3393347 65.5139641,22.573232 65.4757265,22.8117241 C65.4362312,23.0626452 65.4175359,23.3163738 65.4198295,23.5703448 L65.4198295,30.0337931 C65.4198295,31.5038314 65.8712402,32.2380077 66.7740616,32.2363247 C67.676883,32.234636 68.1299876,31.497931 68.1333753,30.0262069 Z" id="Shape"></path>
                                <polygon id="Path" points="72.7677457 34.2643678 72.7677457 19.2993103 74.9528107 19.2993103 78.2558159 27.1383908 78.2558159 19.2993103 80.7788037 19.2993103 80.7788037 34.2643678 78.6750435 34.2643678 75.3720382 25.9625287 75.3720382 34.2643678"></polygon>
                                <polygon id="Path" points="82.5598858 34.2643678 82.5598858 19.3094253 85.6088136 19.3094253 85.6088136 32.1882759 88.596763 32.1882759 88.596763 34.2643678"></polygon>
                                <polygon id="Path" points="89.5546345 34.2643678 89.5546345 19.3094253 92.6035624 19.3094253 92.6035624 34.2643678"></polygon>
                                <polygon id="Path" points="94.3795629 34.2643678 94.3795629 19.2993103 96.5671686 19.2993103 99.8701739 27.1383908 99.8701739 19.2993103 102.393162 19.2993103 102.393162 34.2643678 100.289401 34.2643678 96.9863962 25.9625287 96.9863962 34.2643678"></polygon>
                                <polygon id="Path" points="104.171703 34.2643678 104.171703 19.3094253 110.442331 19.3094253 110.442331 21.3855172 107.220631 21.3855172 107.220631 25.4567816 109.507327 25.4567816 109.507327 27.5834483 107.220631 27.5834483 107.220631 32.1882759 110.452494 32.1882759 110.452494 34.2643678"></polygon>
                                <polygon id="Path" points="2.23333968 53.1691954 2.23333968 40.4749425 0.0304892789 40.4749425 0.0304892789 38.2142529 7.43684328 38.2142529 7.43684328 40.4749425 5.27210448 40.4749425 5.27210448 53.1691954"></polygon>
                                <path d="M8.25243149,48.2508046 L8.25243149,43.2262069 C8.25243149,39.685977 9.7167638,37.9158621 12.6454284,37.9158621 C15.5740931,37.9158621 17.0401192,39.685977 17.0435069,43.2262069 L17.0435069,48.1774713 C17.047409,48.7323327 17.003205,49.2864948 16.9113867,49.8337931 C16.8251345,50.332309 16.6721748,50.8170796 16.4565883,51.2751724 C16.2567274,51.7088059 15.978558,52.1022264 15.6359185,52.4358621 C15.2766924,52.7749392 14.848734,53.0336016 14.3807766,53.1944828 C13.2548691,53.5552134 12.0436101,53.5552134 10.9177026,53.1944828 C10.4531679,53.0400582 10.0264159,52.790217 9.66510142,52.4611494 C9.32479364,52.1392567 9.04815056,51.7567076 8.8495132,51.3333333 C8.63394351,50.8803178 8.48013716,50.4006745 8.39217402,49.9071264 C8.29601807,49.3602765 8.24925051,48.8059562 8.25243149,48.2508046 Z M14.0047421,48.9335632 L14.0047421,42.4827586 C14.0047421,41.0093487 13.5516376,40.2726437 12.6454284,40.2726437 C12.3984812,40.2649124 12.1554939,40.3357802 11.9517973,40.4749425 C11.759611,40.6142181 11.6143337,40.808179 11.5351105,41.0312644 C11.4483411,41.256806 11.385331,41.4907033 11.3470933,41.7291954 C11.3089228,41.9802661 11.2902353,42.2338894 11.2911963,42.4878161 L11.2911963,48.9512644 C11.2911963,50.417931 11.742607,51.1512644 12.6454284,51.1512644 C13.5482499,51.1512644 14.0013544,50.4120307 14.0047421,48.9335632 Z" id="Shape"></path>
                                <path d="M18.4460137,48.2508046 L18.4460137,43.2262069 C18.4460137,39.685977 19.9094991,37.9158621 22.8364699,37.9158621 C25.7634407,37.9158621 27.2303138,39.685977 27.2370892,43.2262069 L27.2370892,48.1774713 C27.2402024,48.7324076 27.1951479,49.2865745 27.1024282,49.8337931 C27.0173878,50.3326001 26.8643778,50.8175303 26.6476298,51.2751724 C26.4486801,51.7086918 26.1713633,52.1021246 25.8295008,52.4358621 C25.4702746,52.7749392 25.0423163,53.0336016 24.5743588,53.1944828 C23.4475886,53.5552451 22.2355143,53.5552451 21.1087441,53.1944828 C20.6447695,53.0388353 20.2182592,52.7891355 19.8561429,52.4611494 C19.5212081,52.1380218 19.2497834,51.7555397 19.0557993,51.3333333 C18.8394106,50.8804209 18.6847509,50.4007809 18.5959194,49.9071264 C18.4964103,49.3605747 18.4462417,48.8062569 18.4460137,48.2508046 L18.4460137,48.2508046 Z M24.1983244,48.9335632 L24.1983244,42.4827586 C24.1983244,41.0093487 23.7443729,40.2726437 22.8364699,40.2726437 C22.5903604,40.2652772 22.3482924,40.3361363 22.1453796,40.4749425 C21.9524774,40.6140754 21.8063428,40.8079984 21.726152,41.0312644 C21.6405597,41.2571846 21.5775819,41.4909616 21.5381348,41.7291954 C21.5008745,41.9803379 21.4830367,42.2339563 21.4847785,42.4878161 L21.4847785,48.9512644 C21.4847785,50.417931 21.9353423,51.1512644 22.8364699,51.1512644 C23.7375975,51.1512644 24.191549,50.4120307 24.1983244,48.9335632 Z" id="Shape"></path>
                                <polygon id="Path" points="28.830154 53.1691954 28.830154 38.2142529 31.8790819 38.2142529 31.8790819 51.0931034 34.8594089 51.0931034 34.8594089 53.1691954"></polygon>
                                <path d="M39.2498651,53.1691954 L39.2498651,38.2142529 L42.5528703,38.2142529 C43.2196821,38.2048045 43.8851724,38.2761331 44.5346734,38.4266667 C45.0719585,38.552486 45.5805492,38.7781227 46.0337296,39.0917241 C46.4683771,39.3995487 46.8073341,39.8227711 47.0119273,40.3131034 C47.2470074,40.8979733 47.3602447,41.5242804 47.3447686,42.154023 C47.3447686,42.4625287 47.3320647,42.7406897 47.3117386,42.9834483 C47.2826126,43.2652911 47.2307835,43.5443497 47.1567514,43.817931 C47.0850724,44.1088749 46.9739531,44.3887598 46.8264509,44.6498851 C46.6647937,44.916246 46.4625028,45.1559682 46.2268284,45.3604598 C45.9508154,45.6022737 45.6377381,45.7986206 45.2994461,45.942069 C46.2022676,48.7894253 46.9865196,51.1984674 47.6522022,53.1691954 L44.5092657,53.1691954 L42.7891622,46.2758621 L42.2810075,46.2758621 L42.2810075,53.1616092 L39.2498651,53.1691954 Z M42.2987929,44.4374713 L43.1677374,44.4374713 C43.3906982,44.4421159 43.6063837,44.3584335 43.7673599,44.2048276 C43.9383424,44.0435812 44.0636531,43.840371 44.1306905,43.6156322 C44.2000572,43.4006456 44.2535557,43.180904 44.2907592,42.9581609 C44.3190667,42.7714679 44.3343479,42.5830477 44.3364931,42.3942529 C44.3360119,42.2107029 44.32328,42.0273874 44.2983815,41.8455172 C44.2674008,41.6337551 44.2224161,41.424258 44.1637205,41.2183908 C44.1095159,41.0058979 43.9999672,40.8113889 43.8461239,40.6544828 C43.7050564,40.5098948 43.5099317,40.4301994 43.3074799,40.4344828 L42.2911706,40.4344828 L42.2987929,44.4374713 Z" id="Shape"></path>
                                <polygon id="Path" points="48.617696 53.1691954 48.617696 38.2142529 54.880702 38.2142529 54.880702 40.2928736 51.65392 40.2928736 51.65392 44.3641379 53.9406159 44.3641379 53.9406159 46.4908046 51.65392 46.4908046 51.65392 51.0931034 54.880702 51.0931034 54.880702 53.1691954"></polygon>
                                <polygon id="Path" points="57.3986083 53.1691954 57.3986083 40.4749425 55.1932172 40.4749425 55.1932172 38.2142529 62.5995712 38.2142529 62.5995712 40.4749425 60.4373731 40.4749425 60.4373731 53.1691954"></polygon>
                                <path d="M62.7901291,53.1691954 L66.0397781,38.2142529 L68.7253754,38.2142529 L71.9648613,53.1691954 L68.9692897,53.1691954 L68.3468002,49.9728736 L66.3827825,49.9728736 L65.806027,53.1691954 L62.7901291,53.1691954 Z M66.601289,48.1117241 L68.1537015,48.1117241 L67.3914695,42.5636782 L66.601289,48.1117241 Z" id="Shape"></path>
                                <polygon id="Path" points="72.9328959 53.1691954 72.9328959 38.2142529 75.9818238 38.2142529 75.9818238 53.1691954"></polygon>
                                <polygon id="Path" points="77.7476612 53.1691954 77.7476612 38.2142529 80.7965891 38.2142529 80.7965891 51.0931034 83.7845385 51.0931034 83.7845385 53.1691954"></polygon>
                                <polygon id="Path" points="84.7551138 53.1691954 84.7551138 38.2142529 91.0232014 38.2142529 91.0232014 40.2928736 87.7938786 40.2928736 87.7938786 44.3641379 90.0805746 44.3641379 90.0805746 46.4908046 87.7938786 46.4908046 87.7938786 51.0931034 91.0232014 51.0931034 91.0232014 53.1691954"></polygon>
                                <path d="M92.1106524,53.1691954 L92.1106524,38.2142529 L95.4136576,38.2142529 C96.0804566,38.2050793 96.7459135,38.2764043 97.3954607,38.4266667 C97.9325901,38.5529454 98.4410973,38.7785451 98.8945169,39.0917241 C99.3276612,39.4004907 99.6655691,39.8235018 99.8701739,40.3131034 C100.107364,40.8974366 100.221513,41.524007 100.205556,42.154023 C100.205556,42.4625287 100.192852,42.7406897 100.169985,42.9834483 C100.140859,43.2652911 100.08903,43.5443497 100.014998,43.817931 C99.9443024,44.1088043 99.8340306,44.3887078 99.6872382,44.6498851 C99.5254255,44.9168672 99.3221922,45.1566899 99.0850749,45.3604598 C98.8099911,45.6022554 98.4977519,45.7986148 98.1602335,45.942069 C99.0596672,48.7894253 99.8439192,51.1984674 100.512989,53.1691954 L97.3649714,53.1691954 L95.6499495,46.2758621 L95.1417949,46.2758621 L95.1417949,53.1616092 L92.1106524,53.1691954 Z M95.1595803,44.4374713 L96.0285247,44.4374713 C96.2522604,44.4422336 96.4687793,44.3585824 96.630688,44.2048276 C96.8008417,44.0429138 96.926008,43.8399377 96.9940185,43.6156322 C97.0626395,43.4006116 97.1152906,43.1808627 97.1515465,42.9581609 C97.1811131,42.771615 97.1964017,42.5831035 97.1972804,42.3942529 C97.1967992,42.2107029 97.1840673,42.0273874 97.1591688,41.8455172 C97.1291399,41.6337923 97.0850025,41.4242883 97.0270486,41.2183908 C96.972844,41.0058979 96.8632953,40.8113889 96.7094519,40.6544828 C96.568036,40.5104083 96.3731453,40.4308085 96.170808,40.4344828 L95.1544987,40.4344828 L95.1595803,44.4374713 Z" id="Shape"></path>
                            </g>
                        </g>
                        <g id="Shape_477" fill="#000000">
                            <rect id="Rectangle" x="0.0842553191" y="0" width="1.29191489" height="65.9671264"></rect>
                        </g>
                    </g>
                </g>
            </g>
        </g>
    </g>
</svg>