<svg xmlns="http://www.w3.org/2000/svg" viewBox="0 0 220 100" width="220" height="100">
	<style>
		tspan { white-space:pre }
		.shp0 { opacity: 0.369;fill: #cce9ff } 
		.shp1 { fill: #0b4870 } 
		.shp2 { fill: #2a94f4 } 
		.shp3 { fill: #ffffff } 
		.shp4 { fill: #0e538c } 
		.shp5 { fill: #f7f7f7 } 
		.shp6 { fill: #0b4870;stroke: #ffffff;stroke-width: 0.075 } 
		.shp7 { fill: #f2f2f2 } 
		.shp8 { fill: #d3d3d3 } 
		.shp9 { fill: #ffb750 } 
		.shp10 { fill: #ffe3ca } 
		.shp11 { fill: #eb4747 } 
		.shp12 { fill: #fcd2b1 } 
		.shp13 { fill: #f2f0f0 } 
		.shp14 { fill: #fcbaa2 } 
		.shp15 { fill: #cce9ff } 
		.shp16 { fill: #ff957e } 
		.shp17 { fill: #e9d6b8 } 
	</style>
	<g id="Layer">
		<g id="Layer">
			<path id="Layer" class="shp0" d="M70.31 78.06C70.52 78.54 70.75 79.02 71.01 79.48C74.76 86.35 82.38 90.68 90.51 91.46C97.01 92.07 103.33 90.1 108.77 86.87C114.19 83.66 118.54 79.13 124.57 76.78C133.07 73.47 142.55 70.86 149.21 63.86C156.79 55.9 159.71 43.84 156.14 33.67C152.67 23.74 141.15 20.52 132.2 16.15C116.12 8.28 93.83 3.05 77.09 12.29C57.02 23.36 60.67 48.48 67.03 65.92C68.48 69.89 68.65 74.17 70.31 78.06Z" />
			<path id="Layer" fill-rule="evenodd" class="shp1" d="M74.85 40.28L74.74 40.33L74.63 40.28C68.06 37.15 68.92 31.05 68.93 30.99L68.96 30.79L69.17 30.79C73.25 30.79 74.55 29.57 74.56 29.56L74.74 29.38L74.91 29.56C74.92 29.57 76.24 30.79 80.31 30.79L80.51 30.79L80.55 30.99C80.55 31.05 81.44 37.15 74.85 40.28ZM80.08 31.25C76.69 31.21 75.19 30.36 74.73 30.02C74.27 30.37 72.76 31.21 69.38 31.25C69.34 31.75 69.3 33.16 69.9 34.76C70.71 36.95 72.33 38.65 74.73 39.82C77.12 38.65 78.75 36.95 79.56 34.76C80.15 33.16 80.12 31.76 80.08 31.25Z" />
			<g id="Layer">
				<path id="Layer" fill-rule="evenodd" class="shp1" d="M86.99 23.15L86.76 22.58C86.55 22.56 86.36 22.51 86.16 22.45L85.69 22.86L84.32 21.95L84.59 21.39C84.46 21.24 84.35 21.08 84.26 20.9L83.61 20.88L83.34 19.34L83.94 19.12C83.96 18.93 84.02 18.74 84.08 18.56L83.64 18.12L84.62 16.84L85.22 17.08C85.38 16.96 85.56 16.86 85.74 16.78L85.76 16.17L87.42 15.92L87.65 16.48C87.86 16.5 88.06 16.55 88.26 16.61L88.73 16.2L90.09 17.11L89.83 17.67C89.96 17.82 90.07 17.98 90.16 18.16L90.8 18.18L91.08 19.73L90.47 19.94C90.44 20.13 90.4 20.32 90.33 20.5L90.77 20.94L89.79 22.22L89.2 21.98C89.04 22.1 88.86 22.2 88.67 22.28L88.65 22.89L86.99 23.15ZM86.05 21.96L86.18 22.01C86.42 22.1 86.69 22.15 86.95 22.17L87.09 22.18L87.29 22.66L88.2 22.52L88.22 22.01L88.35 21.96C88.6 21.85 88.82 21.72 89.03 21.57L89.14 21.49L89.64 21.7L90.18 21L89.79 20.63L89.85 20.5C89.95 20.28 90 20.03 90.02 19.79L90.04 19.65L90.55 19.47L90.4 18.62L89.85 18.6L89.79 18.48C89.68 18.25 89.54 18.05 89.38 17.85L89.29 17.75L89.52 17.28L88.77 16.78L88.37 17.12L88.23 17.07C87.99 16.98 87.73 16.93 87.47 16.91L87.32 16.9L87.13 16.42L86.21 16.56L86.19 17.07L86.06 17.12C85.82 17.23 85.6 17.36 85.39 17.51L85.28 17.6L84.77 17.38L84.24 18.08L84.62 18.46L84.57 18.58C84.47 18.8 84.41 19.05 84.39 19.3L84.38 19.43L83.86 19.61L84.02 20.46L84.57 20.48L84.62 20.6C84.73 20.83 84.87 21.04 85.04 21.23L85.13 21.33L84.9 21.8L85.64 22.31L86.05 21.96ZM87.19 21.24C86.82 21.24 86.44 21.13 86.14 20.92C85.31 20.38 85.13 19.32 85.71 18.55C86.29 17.78 87.43 17.61 88.26 18.15C88.65 18.41 88.91 18.8 89 19.25C89.08 19.71 88.97 20.15 88.7 20.52C88.41 20.89 87.99 21.14 87.51 21.22C87.39 21.23 87.29 21.24 87.19 21.24ZM87.19 18.26C86.76 18.26 86.35 18.45 86.08 18.79C85.87 19.07 85.79 19.41 85.85 19.75C85.92 20.08 86.1 20.37 86.4 20.56C86.7 20.76 87.06 20.84 87.42 20.78C87.78 20.72 88.09 20.54 88.3 20.27C88.51 19.99 88.6 19.65 88.53 19.32C88.46 18.98 88.28 18.69 87.98 18.5C87.74 18.34 87.47 18.26 87.19 18.26Z" />
			</g>
			<g id="Layer">
				<path id="Layer" fill-rule="evenodd" class="shp1" d="M139.64 39.83L139.12 38.57C138.57 38.51 138.02 38.4 137.51 38.22L136.45 39.14L133.6 37.25L134.19 36.02C133.85 35.62 133.55 35.18 133.31 34.71L131.87 34.67L131.29 31.45L132.64 30.97C132.71 30.45 132.83 29.94 133.02 29.46L132.03 28.48L134.06 25.82L135.38 26.37C135.81 26.05 136.28 25.78 136.78 25.55L136.83 24.21L140.29 23.67L140.8 24.93C141.35 24.99 141.9 25.1 142.42 25.27L143.47 24.35L146.33 26.25L145.73 27.47C146.07 27.87 146.37 28.31 146.61 28.79L148.05 28.83L148.63 32.05L147.28 32.53C147.22 33.04 147.09 33.56 146.91 34.04L147.9 35.02L145.86 37.68L144.55 37.13C144.12 37.45 143.65 37.72 143.14 37.95L143.1 39.29L139.64 39.83ZM137.35 37.57L137.53 37.63C138.11 37.84 138.73 37.97 139.35 38.02L139.55 38.04L140.02 39.19L142.48 38.8L142.53 37.57L142.7 37.5C143.27 37.26 143.81 36.94 144.29 36.57L144.44 36.45L145.65 36.95L147.09 35.06L146.19 34.16L146.26 34C146.48 33.45 146.62 32.88 146.68 32.3L146.69 32.11L147.92 31.67L147.5 29.38L146.18 29.34L146.11 29.17C145.85 28.64 145.51 28.14 145.11 27.69L144.99 27.56L145.52 26.43L143.49 25.08L142.53 25.92L142.35 25.86C141.77 25.65 141.15 25.52 140.53 25.47L140.33 25.46L139.86 24.31L137.4 24.7L137.35 25.93L137.18 26C136.61 26.24 136.07 26.55 135.59 26.93L135.44 27.05L134.23 26.54L132.81 28.44L133.71 29.34L133.64 29.5C133.42 30.04 133.28 30.62 133.23 31.2L133.21 31.38L131.98 31.83L132.4 34.12L133.72 34.16L133.8 34.32C134.05 34.86 134.39 35.36 134.8 35.81L134.92 35.94L134.38 37.07L136.41 38.42L137.35 37.57ZM139.95 35.46C139.14 35.46 138.34 35.23 137.64 34.77C135.85 33.59 135.43 31.26 136.71 29.59C137.98 27.92 140.47 27.54 142.26 28.72C144.05 29.91 144.47 32.23 143.2 33.9C142.42 34.92 141.19 35.46 139.95 35.46ZM139.96 28.61C138.9 28.61 137.86 29.07 137.21 29.93C136.68 30.62 136.49 31.45 136.63 32.28C136.78 33.11 137.27 33.82 138 34.31C139.52 35.32 141.63 34.99 142.7 33.58C143.22 32.89 143.43 32.06 143.28 31.23C143.13 30.4 142.65 29.69 141.91 29.19C141.31 28.8 140.63 28.61 139.96 28.61Z" />
			</g>
			<path id="Layer" class="shp1" d="M86.17 62.87C85.64 61.48 85.04 59.93 85.71 58.33C86.61 56.18 84.7 55.08 83.02 54.08C81.57 53.24 80.21 52.44 80.67 51.12C81.17 49.69 81.14 48.58 80.57 47.86C80.09 47.24 79.23 46.92 78.09 46.93C77.18 46.94 76.36 45.89 75.5 44.8C74.47 43.51 73.43 42.17 72.11 42.47C71.88 42.52 71.7 42.65 71.59 42.84C71.13 43.65 71.85 45.57 72.63 47.62C73.46 49.83 74.42 52.33 73.79 53.4C73.11 54.56 74.34 55.63 75.65 56.76C77.03 57.96 78.6 59.32 78.19 61.03C77.79 62.63 77.7 63.22 77.94 63.57C78.13 63.85 78.52 63.91 79.1 64.01C79.49 64.08 80 64.16 80.61 64.35C83.26 65.12 84.03 66.71 84.04 66.73L84.07 66.81L84.15 66.8C85.42 66.61 86.17 66.27 86.52 65.73C86.54 65.7 86.55 65.67 86.58 65.64C86.95 64.91 86.59 63.96 86.17 62.87Z" />
			<path id="Layer" class="shp2" d="M79.41 59.81C79.84 60.45 80.16 61 80.13 61.78C80.11 62.51 79.99 63.22 79.92 63.94C79.91 64.09 79.9 64.24 79.89 64.38C79.67 64.21 79.46 64.03 79.24 63.86C79.14 63.85 79.04 63.85 78.93 63.85C79.24 64.08 79.56 64.34 79.87 64.6C79.83 65.1 79.82 65.6 79.82 66.1C79.82 66.4 79.81 66.71 79.83 67.01C79.55 66.85 79.25 66.68 78.98 66.52C78.12 66.03 77.32 65.57 76.7 65.32C76.23 65.14 75.7 64.97 75.2 64.82C73.88 64.42 72.53 64.01 72.08 63.14C71.85 62.69 71.87 62.15 72.15 61.49C72.84 59.8 72.19 59.52 71.1 59.03C70.31 58.67 69.24 58.19 68.16 56.97C67.69 56.44 67.27 55.97 66.9 55.58C65.79 54.36 65.17 53.69 65.25 53.3C65.27 53.21 65.33 53.13 65.44 53.05C65.49 53.01 65.56 52.97 65.65 52.92C66.06 52.71 66.48 52.87 66.95 53.06C67.59 53.3 68.37 53.62 69.46 53.1C70.31 52.69 71.27 52.31 71.84 52.62C72.23 52.82 72.46 53.35 72.54 54.22C72.56 54.5 72.66 54.7 72.83 54.81C73.07 54.97 73.44 54.95 73.87 54.87L73.87 54.87C74.17 55.25 74.55 55.43 75.01 55.59C75.66 55.8 76.14 56 76.62 56.49C77.63 57.55 78.6 58.64 79.41 59.81Z" />
			<path id="Layer" class="shp3" d="M75.9 61.5C75.24 61.09 74.67 60.1 74.12 59.14C73.38 57.83 72.6 56.48 71.53 56.51C69.82 56.55 68.29 54.67 68.27 54.66L68.13 54.76C68.19 54.84 69.73 56.72 71.53 56.68C72.49 56.66 73.25 57.96 73.96 59.23C74.52 60.2 75.1 61.22 75.79 61.66C76.21 61.91 76.98 62.44 77.89 63.1C77.89 63.03 77.89 62.96 77.89 62.89C77.09 62.26 76.37 61.79 75.9 61.5Z" />
			<path id="Layer" class="shp1" d="M133.77 74.19C133.77 74.19 134.76 71.89 132.96 68.64C131.15 65.38 129.69 65.89 134.05 63.38C138.41 60.87 134.07 52.99 137.78 51.98C141.49 50.98 144.71 38.21 147.53 39.84C150.36 41.47 146.59 47.72 148.61 49.61C150.62 51.49 150.89 53.88 146.73 55.81C142.57 57.75 149.69 65.14 144.04 67.39C138.4 69.64 140.02 78.48 133.77 74.19Z" />
			<g id="Layer">
				<path id="Layer" class="shp3" d="M135.5 76.61C135.49 76.58 134.88 73.66 136.81 69.87C138.76 66.01 139.69 61.79 139.31 58.58C139.1 56.83 140.3 56.16 141.45 55.51C142.59 54.86 143.77 54.18 143.7 52.47C143.65 50.93 144.35 47.3 144.37 47.15L144.62 47.19C144.61 47.23 143.9 50.95 143.95 52.46C144.02 54.32 142.78 55.02 141.58 55.7C140.44 56.34 139.37 56.96 139.56 58.55C139.96 61.79 139.01 66.06 137.04 69.96C135.16 73.68 135.74 76.53 135.75 76.56L135.5 76.61Z" />
			</g>
			<path id="Layer" class="shp4" d="M150.49 57.59C152.06 56.9 153.73 57.21 152.86 58.68C151.99 60.14 150.7 60.25 150.94 61.41C151.18 62.57 151.82 63.83 149.77 64.56C147.73 65.29 146.78 65.17 145.54 67.31C144.28 69.45 143.85 71.03 141.71 70.52C139.57 70 141.35 67.37 142.46 66.26C142.46 66.26 143.96 65.08 143.94 62.94C143.92 60.8 142.98 59.36 145.94 59.51C148.91 59.63 149.42 58.06 150.49 57.59Z" />
			<g id="Layer">
				<path id="Layer" class="shp3" d="M141.37 72.02C141.46 71.74 143.53 65.12 145.22 64.4C146.94 63.66 147.87 61.74 148.28 60.66C148.81 59.26 151.06 58.99 151.15 58.98L151.18 59.21C151.16 59.21 148.99 59.48 148.52 60.74C148.02 62.1 147.05 63.88 145.33 64.62C143.75 65.29 141.65 72.02 141.63 72.09L141.37 72.02Z" />
			</g>
			<path id="Layer" class="shp3" d="M86.98 66.68C83.6 65.9 83.56 64.2 83.51 62.56C83.48 61.22 83.45 59.95 81.61 59.17C79.19 58.14 79.13 56.22 79.08 54.53C79.03 53.27 79 52.09 77.99 51.44C75.56 49.89 73.51 46.15 73.49 46.11L73.67 46.01C73.7 46.06 75.72 49.75 78.11 51.28C79.21 51.97 79.25 53.21 79.29 54.52C79.34 56.23 79.39 58.01 81.7 58.99C83.64 59.81 83.69 61.21 83.72 62.55C83.77 64.19 83.81 65.74 87.04 66.49L86.98 66.68Z" />
			<g id="Layer">
				<g id="Layer">
					<path id="Layer" class="shp5" d="M82.42 65.17L137.98 65.17L137.98 27.78C137.98 27.25 137.52 26.81 136.94 26.81L83.47 26.81C82.9 26.81 82.42 27.24 82.42 27.78L82.42 65.17Z" />
				</g>
				<g id="Layer">
					<path id="Layer" class="shp6" d="M135.91 58.2L84.39 58.2L84.39 28.68L135.91 28.68L135.91 58.2Z" />
				</g>
				<path id="Layer" class="shp7" d="M137.98 59.63L110.21 59.63L82.45 59.63L76.36 80.81L110.39 80.81L144.05 80.81L137.98 59.63Z" />
				<path id="Layer" class="shp6" d="M84.54 63.35L87.96 63.35C88.1 63.35 88.21 63.45 88.18 63.56L87.85 64.94C87.83 65.03 87.74 65.09 87.63 65.09L84.16 65.09C84.02 65.09 83.91 64.98 83.94 64.86L84.32 63.48C84.35 63.41 84.43 63.35 84.54 63.35Z" />
				<path id="Layer" class="shp6" d="M89.52 63.35L92.1 63.35L91.76 65.1L89.12 65.1L89.52 63.35Z" />
				<path id="Layer" class="shp6" d="M93.39 63.35L95.97 63.35L95.7 65.1L93.07 65.1L93.39 63.35Z" />
				<path id="Layer" class="shp6" d="M97.26 63.35L99.84 63.35L99.64 65.1L97.01 65.1L97.26 63.35Z" />
				<path id="Layer" class="shp6" d="M101.13 63.35L103.71 63.35L103.59 65.1L100.95 65.1L101.13 63.35Z" />
				<path id="Layer" class="shp6" d="M104.99 63.35L107.57 63.35L107.53 65.1L104.89 65.1L104.99 63.35Z" />
				<path id="Layer" class="shp6" d="M135.96 63.35L132.08 63.35L132.5 65.1L136.44 65.1L135.96 63.35Z" />
				<path id="Layer" class="shp6" d="M130.8 63.35L128.22 63.35L128.56 65.1L131.19 65.1L130.8 63.35Z" />
				<path id="Layer" class="shp6" d="M126.93 63.35L124.35 63.35L124.62 65.1L127.25 65.1L126.93 63.35Z" />
				<path id="Layer" class="shp6" d="M123.06 63.35L120.48 63.35L120.67 65.1L123.31 65.1L123.06 63.35Z" />
				<path id="Layer" class="shp6" d="M119.19 63.35L116.61 63.35L116.73 65.1L119.37 65.1L119.19 63.35Z" />
				<path id="Layer" class="shp6" d="M115.33 63.35L112.75 63.35L112.79 65.1L115.42 65.1L115.33 63.35Z" />
				<path id="Layer" class="shp6" d="M108.87 63.35L111.45 63.35L111.48 65.1L108.87 65.1L108.87 63.35Z" />
				<path id="Layer" class="shp6" d="M83.41 66.4L88.79 66.4L88.49 68.2L83 68.2L83.41 66.4Z" />
				<path id="Layer" class="shp6" d="M136.79 66.4L130.14 66.4L130.51 68.2L137.31 68.2L136.79 66.4Z" />
				<path id="Layer" class="shp6" d="M128.8 66.4L126.14 66.4L126.44 68.2L129.16 68.2L128.8 66.4Z" />
				<path id="Layer" class="shp6" d="M124.8 66.4L122.14 66.4L122.36 68.2L125.09 68.2L124.8 66.4Z" />
				<path id="Layer" class="shp6" d="M120.81 66.4L118.15 66.4L118.3 68.2L121.01 68.2L120.81 66.4Z" />
				<path id="Layer" class="shp6" d="M116.81 66.4L114.15 66.4L114.23 68.2L116.94 68.2L116.81 66.4Z" />
				<path id="Layer" class="shp6" d="M82.6 69.6L88.11 69.6L87.71 71.39L82.1 71.39L82.6 69.6Z" />
				<path id="Layer" class="shp6" d="M89.49 69.6L92.24 69.6L91.92 71.39L89.11 71.39L89.49 69.6Z" />
				<path id="Layer" class="shp6" d="M93.63 69.6L96.38 69.6L114.28 69.6L114.36 71.39L93.32 71.39L93.63 69.6Z" />
				<path id="Layer" class="shp6" d="M115.67 69.6L118.42 69.6L118.58 71.39L115.76 71.39L115.67 69.6Z" />
				<path id="Layer" class="shp6" d="M119.79 69.6L122.55 69.6L122.78 71.39L119.97 71.39L119.79 69.6Z" />
				<path id="Layer" class="shp6" d="M123.93 69.6L126.69 69.6L126.99 71.39L124.19 71.39L123.93 69.6Z" />
				<path id="Layer" class="shp6" d="M128.06 69.6L130.82 69.6L131.19 71.39L128.39 71.39L128.06 69.6Z" />
				<path id="Layer" class="shp6" d="M132.19 69.6L137.71 69.6L138.21 71.39L132.6 71.39L132.19 69.6Z" />
				<path id="Layer" class="shp6" d="M112.82 66.4L110.17 66.4L110.17 68.2L112.87 68.2L112.82 66.4Z" />
				<path id="Layer" class="shp6" d="M108.83 66.4L106.16 66.4L106.08 68.2L108.8 68.2L108.83 66.4Z" />
				<path id="Layer" class="shp6" d="M104.83 66.4L102.16 66.4L102 68.2L104.73 68.2L104.83 66.4Z" />
				<path id="Layer" class="shp6" d="M100.83 66.4L98.16 66.4L97.93 68.2L100.65 68.2L100.83 66.4Z" />
				<path id="Layer" class="shp6" d="M96.83 66.4L94.16 66.4L93.86 68.2L96.58 68.2L96.83 66.4Z" />
				<path id="Layer" class="shp6" d="M92.83 66.4L90.17 66.4L89.79 68.2L92.51 68.2L92.83 66.4Z" />
				<path id="Layer" class="shp6" d="M84.66 62.25L85.11 60.69L86.36 60.69L85.95 62.25L84.66 62.25Z" />
				<path id="Layer" class="shp6" d="M87.61 60.69L90.11 60.69L89.77 62.25L87.21 62.25L87.61 60.69Z" />
				<path id="Layer" class="shp6" d="M91.38 60.69L93.88 60.69L93.59 62.25L91.05 62.25L91.38 60.69Z" />
				<path id="Layer" class="shp6" d="M95.13 60.69L97.63 60.69L97.42 62.25L94.87 62.25L95.13 60.69Z" />
				<path id="Layer" class="shp6" d="M98.89 60.69L101.39 60.69L101.24 62.25L98.69 62.25L98.89 60.69Z" />
				<path id="Layer" class="shp6" d="M102.64 60.69L105.15 60.69L105.06 62.25L102.51 62.25L102.64 60.69Z" />
				<path id="Layer" class="shp6" d="M106.4 60.69L108.9 60.69L108.88 62.25L106.33 62.25L106.4 60.69Z" />
				<path id="Layer" class="shp6" d="M110.15 60.69L112.66 60.69L112.7 62.25L110.15 62.25L110.15 60.69Z" />
				<path id="Layer" class="shp6" d="M113.91 60.69L116.41 60.69L116.52 62.25L113.97 62.25L113.91 60.69Z" />
				<path id="Layer" class="shp6" d="M117.66 60.69L120.18 60.69L120.34 62.25L117.8 62.25L117.66 60.69Z" />
				<path id="Layer" class="shp6" d="M121.43 60.69L123.93 60.69L124.18 62.25L121.63 62.25L121.43 60.69Z" />
				<path id="Layer" class="shp6" d="M125.19 60.69L127.69 60.69L128 62.25L125.45 62.25L125.19 60.69Z" />
				<path id="Layer" class="shp6" d="M128.94 60.69L131.45 60.69L131.82 62.25L129.27 62.25L128.94 60.69Z" />
				<path id="Layer" class="shp6" d="M132.7 60.69L135.2 60.69L135.64 62.25L133.09 62.25L132.7 60.69Z" />
				<path id="Layer" class="shp8" d="M142.28 82.46L78.13 82.46C77.15 82.46 76.36 81.72 76.36 80.81L76.36 80.81L144.05 80.81L144.05 80.81C144.05 81.72 143.26 82.46 142.28 82.46Z" />
				<path id="Layer" class="shp8" d="M118.08 73.96C118.02 73.59 117.66 73.32 117.27 73.32L110.22 73.32L103.16 73.32C102.75 73.32 102.41 73.59 102.35 73.96L101.47 78.93C101.38 79.4 101.77 79.83 102.28 79.83L110.21 79.83L118.14 79.83C118.65 79.83 119.04 79.4 118.95 78.93L118.08 73.96Z" />
				<g id="Layer">
					<g id="Layer">
						<path id="Layer" class="shp5" d="M87.86 31.19L93.6 31.19L93.6 31.74L87.86 31.74L87.86 31.19Z" />
					</g>
					<g id="Layer">
						<path id="Layer" class="shp5" d="M95.22 35.32L99.36 35.32L99.36 35.87L95.22 35.87L95.22 35.32Z" />
					</g>
					<g id="Layer">
						<path id="Layer" class="shp5" d="M100.01 35.32L102.75 35.32L102.75 35.87L100.01 35.87L100.01 35.32Z" />
					</g>
					<g id="Layer">
						<path id="Layer" class="shp5" d="M87.93 45.7L90.67 45.7L90.67 46.25L87.93 46.25L87.93 45.7Z" />
					</g>
					<g id="Layer">
						<path id="Layer" class="shp5" d="M103.3 35.32L109.94 35.32L109.94 35.87L103.3 35.87L103.3 35.32Z" />
					</g>
					<g id="Layer">
						<path id="Layer" class="shp5" d="M87.93 43.62L92.2 43.62L92.2 44.17L87.93 44.17L87.93 43.62Z" />
					</g>
					<g id="Layer">
						<path id="Layer" class="shp5" d="M93.88 47.76L96.48 47.76L96.48 48.31L93.88 48.31L93.88 47.76Z" />
					</g>
					<g id="Layer">
						<path id="Layer" class="shp5" d="M87.93 47.76L93.09 47.76L93.09 48.31L87.93 48.31L87.93 47.76Z" />
					</g>
					<g id="Layer">
						<path id="Layer" class="shp5" d="M87.93 49.82L90.77 49.82L90.77 50.38L87.93 50.38L87.93 49.82Z" />
					</g>
					<g id="Layer">
						<path id="Layer" class="shp5" d="M94.72 31.19L98.8 31.19L98.8 31.74L94.72 31.74L94.72 31.19Z" />
					</g>
					<g id="Layer">
						<path id="Layer" class="shp5" d="M94.72 37.39L98.8 37.39L98.8 37.94L94.72 37.94L94.72 37.39Z" />
					</g>
					<g id="Layer">
						<path id="Layer" class="shp5" d="M92.68 39.44L94.43 39.44L94.43 40L92.68 40L92.68 39.44Z" />
					</g>
					<g id="Layer">
						<path id="Layer" class="shp5" d="M90.95 41.54L94.86 41.54L94.86 42.09L90.95 42.09L90.95 41.54Z" />
					</g>
					<g id="Layer">
						<path id="Layer" class="shp5" d="M95.45 41.54L100.85 41.54L100.85 42.09L95.45 42.09L95.45 41.54Z" />
					</g>
					<g id="Layer">
						<path id="Layer" class="shp5" d="M87.93 39.46L92 39.46L92 40.02L87.93 40.02L87.93 39.46Z" />
					</g>
					<g id="Layer">
						<path id="Layer" class="shp5" d="M87.93 41.54L90.34 41.54L90.34 42.09L87.93 42.09L87.93 41.54Z" />
					</g>
					<g id="Layer">
						<path id="Layer" class="shp5" d="M95.25 39.46L97.54 39.46L97.54 40.02L95.25 40.02L95.25 39.46Z" />
					</g>
					<g id="Layer">
						<path id="Layer" class="shp5" d="M88 51.88L90.29 51.88L90.29 52.43L88 52.43L88 51.88Z" />
					</g>
					<g id="Layer">
						<path id="Layer" class="shp5" d="M87.92 35.32L91.99 35.32L91.99 35.87L87.92 35.87L87.92 35.32Z" />
					</g>
					<g id="Layer">
						<path id="Layer" class="shp5" d="M91.52 45.7L95.59 45.7L95.59 46.25L91.52 46.25L91.52 45.7Z" />
					</g>
					<g id="Layer">
						<path id="Layer" class="shp5" d="M91.57 49.82L95.65 49.82L95.65 50.38L91.57 50.38L91.57 49.82Z" />
					</g>
					<g id="Layer">
						<path id="Layer" class="shp5" d="M98.81 49.82L102.88 49.82L102.88 50.38L98.81 50.38L98.81 49.82Z" />
					</g>
					<g id="Layer">
						<path id="Layer" class="shp5" d="M87.92 37.39L93.73 37.39L93.73 37.94L87.92 37.94L87.92 37.39Z" />
					</g>
					<g id="Layer">
						<path id="Layer" class="shp5" d="M115.14 31.19L119.21 31.19L119.21 31.74L115.14 31.74L115.14 31.19Z" />
					</g>
					<g id="Layer">
						<path id="Layer" class="shp5" d="M100.62 51.88L104.69 51.88L104.69 52.43L100.62 52.43L100.62 51.88Z" />
					</g>
					<g id="Layer">
						<path id="Layer" class="shp5" d="M120.48 31.19L123.2 31.19L123.2 31.74L120.48 31.74L120.48 31.19Z" />
					</g>
					<g id="Layer">
						<path id="Layer" class="shp5" d="M129.71 33.26L132.43 33.26L132.43 33.81L129.71 33.81L129.71 33.26Z" />
					</g>
					<g id="Layer">
						<path id="Layer" class="shp5" d="M99.9 31.19L105.09 31.19L105.09 31.74L99.9 31.74L99.9 31.19Z" />
					</g>
					<g id="Layer">
						<path id="Layer" class="shp5" d="M120.12 33.26L125.32 33.26L125.32 33.81L120.12 33.81L120.12 33.26Z" />
					</g>
					<g id="Layer">
						<path id="Layer" class="shp5" d="M113.76 35.32L118.95 35.32L118.95 35.87L113.76 35.87L113.76 35.32Z" />
					</g>
					<g id="Layer">
						<path id="Layer" class="shp5" d="M107 37.39L112.2 37.39L112.2 37.94L107 37.94L107 37.39Z" />
					</g>
					<g id="Layer">
						<path id="Layer" class="shp5" d="M119.6 35.32L123.29 35.32L123.29 35.87L119.6 35.87L119.6 35.32Z" />
					</g>
					<g id="Layer">
						<path id="Layer" class="shp5" d="M108.92 31.19L114.12 31.19L114.12 31.74L108.92 31.74L108.92 31.19Z" />
					</g>
					<g id="Layer">
						<path id="Layer" class="shp5" d="M103 37.39L106.05 37.39L106.05 37.94L103 37.94L103 37.39Z" />
					</g>
					<g id="Layer">
						<path id="Layer" class="shp5" d="M100.62 45.73L103.66 45.73L103.66 46.28L100.62 46.28L100.62 45.73Z" />
					</g>
					<g id="Layer">
						<path id="Layer" class="shp5" d="M106.05 31.19L107.95 31.19L107.95 31.74L106.05 31.74L106.05 31.19Z" />
					</g>
					<g id="Layer">
						<path id="Layer" class="shp5" d="M99.9 37.39L101.8 37.39L101.8 37.94L99.9 37.94L99.9 37.39Z" />
					</g>
					<g id="Layer">
						<path id="Layer" class="shp5" d="M126.57 33.26L128.47 33.26L128.47 33.81L126.57 33.81L126.57 33.26Z" />
					</g>
					<g id="Layer">
						<path id="Layer" class="shp5" d="M87.86 33.26L90.84 33.26L90.84 33.81L87.86 33.81L87.86 33.26Z" />
					</g>
					<g id="Layer">
						<path id="Layer" class="shp5" d="M95.8 43.63L98.15 43.63L98.15 44.18L95.8 44.18L95.8 43.63Z" />
					</g>
					<g id="Layer">
						<path id="Layer" class="shp5" d="M91.57 33.26L92.53 33.26L92.53 33.81L91.57 33.81L91.57 33.26Z" />
					</g>
					<g id="Layer">
						<path id="Layer" class="shp5" d="M111.27 33.26L119.21 33.26L119.21 33.81L111.27 33.81L111.27 33.26Z" />
					</g>
					<g id="Layer">
						<path id="Layer" class="shp5" d="M103.66 49.82L111.6 49.82L111.6 50.38L103.66 50.38L103.66 49.82Z" />
					</g>
					<g id="Layer">
						<path id="Layer" class="shp5" d="M93.23 33.26L94.21 33.26L94.21 33.81L93.23 33.81L93.23 33.26Z" />
					</g>
					<g id="Layer">
						<path id="Layer" class="shp5" d="M107.95 33.26L110.54 33.26L110.54 33.81L107.95 33.81L107.95 33.26Z" />
					</g>
					<g id="Layer">
						<path id="Layer" class="shp5" d="M110.55 35.32L113.14 35.32L113.14 35.87L110.55 35.87L110.55 35.32Z" />
					</g>
					<g id="Layer">
						<path id="Layer" class="shp5" d="M97.2 51.88L99.79 51.88L99.79 52.43L97.2 52.43L97.2 51.88Z" />
					</g>
					<g id="Layer">
						<path id="Layer" class="shp5" d="M101.74 33.26L107.27 33.26L107.27 33.81L101.74 33.81L101.74 33.26Z" />
					</g>
					<g id="Layer">
						<path id="Layer" class="shp5" d="M96.59 45.73L99.82 45.73L99.82 46.28L96.59 46.28L96.59 45.73Z" />
					</g>
					<g id="Layer">
						<path id="Layer" class="shp5" d="M96.39 49.82L98.01 49.82L98.01 50.38L96.39 50.38L96.39 49.82Z" />
					</g>
					<g id="Layer">
						<path id="Layer" class="shp5" d="M99.05 33.26L100.95 33.26L100.95 33.81L99.05 33.81L99.05 33.26Z" />
					</g>
					<g id="Layer">
						<path id="Layer" class="shp5" d="M92.66 35.32L94.56 35.32L94.56 35.87L92.66 35.87L92.66 35.32Z" />
					</g>
					<g id="Layer">
						<path id="Layer" class="shp5" d="M93.03 43.63L94.93 43.63L94.93 44.18L93.03 44.18L93.03 43.63Z" />
					</g>
					<g id="Layer">
						<path id="Layer" class="shp5" d="M95.02 33.26L98.34 33.26L98.34 33.81L95.02 33.81L95.02 33.26Z" />
					</g>
				</g>
			</g>
			<g id="Layer">
				<g id="Layer">
					<g id="Layer">
						<path id="Layer" class="shp9" d="M122.83 37.41C122.83 37.41 123.79 38.93 124.2 39.18C124.75 39.51 124.41 39.85 124.14 39.86C123.88 39.86 122.54 39.95 122.24 39.64C121.95 39.32 121.8 38.39 121.53 38.14C121.26 37.9 120.97 36.92 121.66 36.69C122.27 36.47 122.83 37.41 122.83 37.41Z" />
					</g>
				</g>
			</g>
			<g id="Layer">
				<g id="Layer">
					<g id="Layer">
						<path id="Layer" class="shp10" d="M122.4 36.74C122.4 36.74 123.51 38.53 123.69 38.79C123.88 39.05 123.33 39.05 122.99 38.93C122.65 38.81 121.79 37.53 121.67 37.29C121.53 37.02 121.65 36.7 121.65 36.7L122.4 36.74Z" />
					</g>
				</g>
			</g>
			<g id="Layer">
				<g id="Layer">
					<g id="Layer">
						<path id="Layer" class="shp9" d="M121.28 37.69L121.54 39.52L121.67 39.53L121.63 38.21L121.28 37.69Z" />
					</g>
				</g>
			</g>
			<g id="Layer">
				<g id="Layer">
					<g id="Layer">
						<path id="Layer" class="shp9" d="M113.24 37.41C113.24 37.41 114.21 38.93 114.61 39.18C115.16 39.51 114.82 39.85 114.56 39.86C114.29 39.86 112.95 39.95 112.66 39.64C112.36 39.32 112.22 38.39 111.94 38.14C111.67 37.9 111.37 36.89 112.07 36.69C112.69 36.5 113.24 37.41 113.24 37.41Z" />
					</g>
				</g>
			</g>
			<g id="Layer">
				<g id="Layer">
					<g id="Layer">
						<path id="Layer" class="shp10" d="M112.88 36.74C112.88 36.74 113.92 38.52 114.12 38.79C114.3 39.05 113.76 39.05 113.41 38.93C113.07 38.81 112.22 37.53 112.1 37.29C111.95 37.02 112.07 36.7 112.07 36.7L112.88 36.74Z" />
					</g>
				</g>
			</g>
			<g id="Layer">
				<g id="Layer">
					<g id="Layer">
						<path id="Layer" class="shp9" d="M111.7 37.69L111.95 39.52L112.1 39.53L112.05 38.21L111.7 37.69Z" />
					</g>
				</g>
			</g>
			<g id="Layer">
				<g id="Layer">
					<g id="Layer">
						<path id="Layer" class="shp10" d="M108.96 23.51L117.7 27.23C117.7 27.23 118.68 27.53 118.79 28.54C119.13 31.69 121.65 36.69 121.65 36.69C122.46 37.06 122.4 36.74 122.4 36.74C121.88 35.2 121.27 28.9 121.04 26.37C120.99 25.84 120.96 25.47 120.95 25.35C120.95 25.26 120.85 25.16 120.69 25.04C119.49 24.13 114.55 22.25 114.55 22.25C110.87 22.16 108.96 23.51 108.96 23.51Z" />
					</g>
				</g>
			</g>
			<g id="Layer">
				<g id="Layer">
					<g id="Layer">
						<path id="Layer" class="shp10" d="M107.31 25.11C107.58 27.31 110.96 27.07 110.96 27.07L115.04 27.07C115.04 27.07 113.96 29.3 113.55 31.17C113.11 33.17 112.06 36.69 112.06 36.69C112.06 36.69 112.13 36.81 112.88 36.74C112.88 36.74 116.08 30.78 117.31 29.28C117.58 28.96 118.33 27.2 118.47 26.15C118.51 25.81 118.49 25.53 118.34 25.42C118.2 25.3 117.87 25.1 117.45 24.84C116.16 24.09 113.94 22.93 112.7 22.67C111.04 22.33 108.42 21.67 108.42 21.67C108.42 21.67 107.04 22.91 107.31 25.11Z" />
					</g>
				</g>
			</g>
			<g id="Layer">
				<path id="Layer" class="shp4" d="M110.09 8.14C110.09 8.14 109.47 7.05 109.77 5.9C110.07 4.75 111.22 3.6 112.9 4.13C114.58 4.67 115.94 5.87 114.93 7.29C113.92 8.69 115.84 9.33 115.35 10C114.85 10.66 115.04 11.37 115.25 11.53C115.46 11.68 116.13 12.23 116.05 12.9C115.97 13.55 112.79 10.98 112.79 10.98C112.79 10.98 111.07 7.72 110.09 8.14Z" />
			</g>
			<g id="Layer">
				<path id="Layer" class="shp11" d="M115.22 21.98C115.22 21.98 114.96 23.12 108.43 21.68C108.43 21.68 110.61 21 115.22 21.98Z" />
			</g>
			<g id="Layer">
				<g id="Layer">
					<path id="Layer" class="shp3" d="M108.35 22C108.25 22.18 108.15 22.36 108.04 22.54C110.43 22.6 112.82 22.67 115.21 22.74C114.83 21.56 114.95 19.96 115.02 18.75C115.1 17.27 115.97 16.25 115.89 14.75C116.36 14.82 116.43 14.83 116.91 14.9C116.18 12.98 115.94 12.03 113.69 11.29C112.95 11.04 112.48 11 111.69 11.06C109.09 11.27 108.31 11.29 107.02 13.49C109.02 13.79 108.69 14.45 109.3 16.32C109.59 17.22 109.9 18.23 109.75 19.18C109.59 20.11 108.35 21.15 108.35 22Z" />
				</g>
			</g>
			<g id="Layer">
				<g id="Layer">
					<path id="Layer" class="shp10" d="M112.5 11.75C111.44 11.57 111.67 11.01 111.67 11.01C111.67 11.01 111.71 10.71 111.73 10.31C111.73 10.2 111.75 10.1 111.75 9.99C111.75 9.82 111.73 9.66 111.71 9.5C111.62 8.83 113.65 9.23 113.65 9.23C113.65 9.23 113.52 10.58 113.81 10.98C114.08 11.39 113.57 11.95 112.5 11.75Z" />
				</g>
			</g>
			<g id="Layer">
				<g id="Layer">
					<path id="Layer" class="shp10" d="M110.47 11.01C110.47 11.01 112.62 13.33 113.41 13.86C113.41 13.86 114.33 13.09 113.77 11.06C113.77 11.06 112.73 10.57 110.47 11.01Z" />
				</g>
			</g>
			<g id="Layer">
				<path id="Layer" class="shp10" d="M110.54 5.44C110.54 5.44 109.42 7.45 110.53 9.34C111.64 11.24 113.81 8.52 113.94 8.2C114.08 7.88 114.83 6.07 113.35 5.53C111.87 4.97 110.86 4.9 110.54 5.44Z" />
			</g>
			<g id="Layer">
				<path id="Layer" class="shp12" d="M112.69 9.55C112.69 9.55 112.49 9.95 111.73 10.31C111.73 10.2 111.75 10.1 111.75 9.99C111.75 9.99 112.26 9.94 112.69 9.55Z" />
			</g>
			<g id="Layer">
				<path id="Layer" class="shp10" d="M101.41 20.2C101.41 20.2 100.89 20.41 100.63 20.32C100.38 20.22 100 20.2 99.87 20.2C99.71 20.2 99.19 20.02 99.21 20.22C99.22 20.4 100.04 20.53 100.2 20.59C100.37 20.66 99.7 20.99 99.63 21.15C99.57 21.3 100.34 22.31 100.76 22.02C101.19 21.73 101.42 21.16 101.51 21.12C101.6 21.08 101.83 20.92 101.83 20.92L101.41 20.2Z" />
			</g>
			<g id="Layer">
				<path id="Layer" class="shp10" d="M99.72 21.06C99.72 21.06 98.48 22.02 98.46 22.15C98.44 22.28 98.5 22.35 98.62 22.25C98.74 22.17 99.85 21.35 99.85 21.35C99.85 21.35 98.61 22.73 98.57 22.83C98.55 22.89 98.67 23.01 98.73 22.97C98.8 22.93 100.13 21.64 100.13 21.64C100.13 21.64 98.96 22.92 98.96 23.02C98.95 23.1 99.1 23.2 99.19 23.1C99.29 23.01 100.45 21.89 100.45 21.89C100.45 21.89 99.67 22.87 99.72 22.96C99.75 23.01 99.85 23.12 100.04 22.87C100.23 22.61 100.75 22.04 100.75 22.04L99.72 21.06Z" />
			</g>
			<g id="Layer">
				<g id="Layer">
					<path id="Layer" class="shp4" d="M114.61 27.06L110.96 27.06C110.96 27.06 107.58 27.31 107.31 25.1C107.04 22.9 108.42 21.67 108.42 21.67C108.42 21.67 110.2 22.11 111.76 22.46C112.54 22.31 113.47 22.2 114.57 22.23C114.57 22.23 121.16 24.26 120.96 25.34C120.96 25.35 118.2 23.97 114.61 27.06Z" />
				</g>
			</g>
			<g id="Layer">
				<path id="Layer" class="shp7" d="M112.23 23.25L119.21 23.15L115.69 24.81L112.23 23.25Z" />
			</g>
			<g id="Layer">
				<path id="Layer" class="shp3" d="M114.4 22.41C114.4 22.41 112.83 22.97 110.91 22.46L110.82 21.79L114.79 22L114.4 22.41Z" />
			</g>
			<g id="Layer">
				<path id="Layer" class="shp8" d="M115.69 24.81L112.23 23.56L112.23 23.25L115.96 24.5L115.69 24.81Z" />
			</g>
			<g id="Layer">
				<g id="Layer">
					<path id="Layer" class="shp1" d="M114.37 22.73C114.35 22.96 114.61 23.13 114.85 23.04L115.26 22.88C115.38 22.83 115.46 22.71 115.44 22.59C115.27 21.61 114.91 17.78 115.44 17.11C115.63 16.87 115.75 16.65 115.82 16.47C116.17 17.31 116.6 18.39 116.78 18.98L120.07 23.07L121.18 23.34C119.79 20.24 118.69 18.6 118.69 18.6C118.47 18.06 117.85 16.42 117.3 14.96C116.95 14.04 116.64 13.19 116.47 12.74C116.38 12.51 116.21 12.31 115.98 12.19C115.47 11.9 114.62 11.45 113.85 11.11L113.84 11.11C113.82 11.1 113.8 11.08 113.77 11.07L113.77 11.07L113.77 11.07C115.24 13.13 114.67 18.98 114.37 22.73C114.37 22.71 114.37 22.71 114.37 22.73Z" />
				</g>
				<g id="Layer">
					<path id="Layer" class="shp1" d="M108.92 11.24C108.45 11.31 107.29 12.37 106.67 13.43C105.97 14.65 105.25 16.03 104.71 16.48C103.72 17.32 100.94 20.28 100.81 20.21C100.75 20.18 101.57 21.09 101.68 21.13C101.73 21.15 106.23 17.5 106.67 16.95C107.08 16.43 108.18 14.22 108.51 14.27L108.51 14.27L108.51 14.27C108.53 14.32 108.93 15.13 109.31 16.31C109.32 16.33 109.32 16.35 109.33 16.37C109.59 17.19 109.57 18.09 109.43 19.09C109.32 19.85 108.72 21.09 108.35 21.69C108.31 21.76 108.32 21.91 108.36 22.01L108.36 22.01C108.4 22.07 108.43 22.12 108.48 22.14L109.81 22.6L110.12 22.7C110.34 22.79 110.58 22.75 110.76 22.62C110.9 22.53 111.01 22.38 111.03 22.19C111.33 20.08 111.7 17.92 112 17.11C113.31 13.55 111.49 10.87 111.49 10.87C111.49 10.87 109.34 11.1 108.92 11.24Z" />
				</g>
			</g>
			<g id="Layer">
				<path id="Layer" class="shp1" d="M115.69 24.81L117.76 19.53L124.45 19.63L122.47 24.51L115.69 24.81Z" />
			</g>
			<g id="Layer">
				<path id="Layer" class="shp13" d="M119.9 21.86C119.7 22.24 119.76 22.66 120.05 22.79C120.33 22.92 120.72 22.71 120.93 22.34C121.14 21.96 121.07 21.54 120.78 21.41C120.5 21.28 120.1 21.49 119.9 21.86Z" />
			</g>
			<path id="Layer" class="shp4" d="M115.84 11.88C115.35 11.19 115 10.63 114.95 9.64C114.92 8.99 114.76 8.1 114.28 7.66C114.79 6.43 114.19 6.06 113.95 5.66C113.66 5.16 111.46 3.95 110.59 5.22C109.73 6.48 110.03 7.8 110.03 7.8C110.12 7.1 110.89 6.16 110.89 6.16C111.01 6.89 112.62 8.08 113.33 8.56C113.32 8.57 113.31 8.59 113.31 8.6C112.91 9.13 113.4 9.66 113.49 10.22C113.58 10.79 111.83 12.3 113.78 13.06C115.72 13.83 116.34 12.57 115.84 11.88Z" />
			<g id="Layer">
				<g id="Layer">
					<path id="Layer" class="shp4" d="M80.49 71.52C80.49 71.52 80.45 71.95 78.3 71.95C76.14 71.95 73.01 71.42 73.01 71.42L78.01 70.97C78.01 70.97 79.93 70.88 80.49 71.52Z" />
					<path id="Layer" class="shp4" d="M75.01 71.67C73.79 71.67 73.28 72.25 72.79 72.44C72.31 72.62 71.83 72.9 71.83 72.89C72.1 72.39 72.49 72.38 72.68 72.21C72.88 72.05 72.83 72.13 72.4 72.1C72.16 72.08 71.72 72.5 71.41 72.73C71.14 72.93 70.97 72.95 70.97 72.95C70.97 72.95 71.29 72.53 71.69 72.19C72.17 71.78 72.77 71.44 72.91 71.38C73.18 71.28 73.99 71.26 74.56 71.33C75.22 71.41 75.89 71.67 75.01 71.67Z" />
					<path id="Layer" class="shp4" d="M72.99 71.4C72.99 71.4 72.06 71.63 71.89 71.75C71.78 71.83 71.3 72.31 71.3 72.31C71.3 72.31 71.65 72.26 71.85 72.08C72.06 71.88 72.99 71.4 72.99 71.4Z" />
				</g>
				<path id="Layer" class="shp4" d="M78.72 70.63C78.72 70.63 81.08 70.78 80.91 72.13C80.82 72.9 80.28 73.16 79.57 73.1C78.25 73 76.76 72.82 76.76 72.82L76.09 70.72L78.72 70.63Z" />
				<path id="Layer" class="shp4" d="M79.22 70.82L81.53 63.89C81.53 63.89 81.87 62.88 82.42 63.06C83.23 63.34 82.83 64.16 82.77 64.66C82.62 65.66 82.72 66.1 81.98 68.52C81.51 70.01 81.12 71.73 80.72 72.71C80.45 73.39 79.98 72.42 79.26 72.15C77.92 71.65 79.22 70.82 79.22 70.82Z" />
			</g>
			<path id="Layer" class="shp4" d="M79.39 60.12C79.84 61.33 81.24 61.95 82.52 61.51C83.8 61.07 84.48 59.73 84.03 58.53C83.58 57.32 82.18 56.69 80.9 57.13C79.63 57.57 78.94 58.91 79.39 60.12Z" />
			<path id="Layer" class="shp4" d="M76.87 60.23C77.57 61.22 78.98 61.46 80 60.79L79.86 59.63C80.88 58.95 81.13 57.59 80.43 56.61L79.94 55.94C79.24 54.96 77.84 54.72 76.81 55.39L76.35 55.7C75.33 56.38 75.08 57.74 75.78 58.72L76.87 60.23Z" />
			<path id="Layer" class="shp10" d="M75.95 57.01C76.07 57.17 76.2 57.33 76.35 57.48C77.36 58.5 78.71 58.89 79.57 58.47C79.97 58.98 80.42 59.37 80.82 59.68C81.29 60.04 82.5 60.18 82.5 60.18C83.21 60.9 80.57 65.09 80.38 65.07C80 65.04 79.5 62.72 79.87 61.88C80.03 61.5 80.29 61.05 80.22 60.85C79.94 60.14 79.56 60.26 79.56 60.26C79.56 60.26 79.05 60.82 78.66 60.8C78.25 60.77 77.55 60.17 77.52 60.16C77.4 60.07 77.29 59.96 77.19 59.82L76.13 58.35C75.86 57.94 75.79 57.45 75.95 57.01Z" />
			<path id="Layer" class="shp13" d="M84.01 74.65C84.01 74.65 83.15 75.61 82.89 75.71C82.53 75.86 81.46 75.55 81.46 75.55C81.46 75.55 81.17 71.14 80.84 69.42C80.51 67.7 80.03 67.25 80.01 66.7C79.98 65.83 79.2 65.49 79.33 64.81C79.46 64.13 79.69 61.72 79.77 62.04C80.44 64.78 81.26 62.5 81.45 62.14C81.55 61.94 84.01 74.65 84.01 74.65Z" />
			<path id="Layer" class="shp4" d="M80.11 61.22C80.11 61.22 79.07 62.28 79.14 62.7C79.21 63.12 78.69 64.43 79.21 66.25C79.79 68.33 80.1 69.75 80.21 71.11C80.32 72.47 79.82 73.72 80.02 75.39C80.17 76.7 80.49 76.77 80.49 76.77C80.49 76.77 81.12 76.91 81.56 76.4C82 75.9 81.34 71.43 81.12 70.33C80.9 69.21 80.2 66.61 80.01 65.84C79.78 64.9 79.82 63.94 79.83 63.66C79.89 62.69 80.02 62.09 80.13 61.72C80.14 61.67 80.2 61.09 80.11 61.22Z" />
			<path id="Layer" class="shp4" d="M81.93 62.47C82.5 64 84.28 64.79 85.91 64.23C87.53 63.66 88.39 61.96 87.82 60.43C87.25 58.89 85.47 58.11 83.84 58.67C82.22 59.22 81.36 60.93 81.93 62.47Z" />
			<path id="Layer" class="shp14" d="M76.34 88.86L76.92 93.19L74.4 94.3L73 94.59L75.49 92.8L74.67 88.89L76.34 88.86Z" />
			<path id="Layer" class="shp4" d="M77.09 93.84L76.54 93.98L76.17 93.66L74.15 94.6L72.36 95C72.36 95 72.33 94.87 72.39 94.8C72.61 94.52 73.87 93.92 73.87 93.92C73.87 93.92 73.89 94.31 74.07 94.32C74.24 94.34 75.79 93.58 76.15 93.37C76.77 93.01 76.89 92.78 76.94 92.81C77.07 92.87 77.09 93.84 77.09 93.84Z" />
			<path id="Layer" class="shp14" d="M70.25 82.84L68.24 86.52L65.47 86.4L64.09 86.02L67.15 85.54L68.82 82.39L70.25 82.84Z" />
			<path id="Layer" class="shp4" d="M68.07 87.18L67.52 87.06L67.35 86.61L64.85 86.57L63.37 86.25C63.37 86.25 63.55 86.06 63.66 86.01C63.99 85.88 65.16 85.82 65.16 85.82C65.16 85.82 65.04 86.13 65.2 86.22C65.35 86.31 67.06 86.36 67.48 86.33C68.2 86.28 68.41 86.13 68.43 86.18C68.51 86.32 68.07 87.18 68.07 87.18Z" />
			<path id="Layer" class="shp9" d="M84.91 71.81L83.41 72.44L83.42 74.35L73.14 72.79C73.14 72.79 72.16 72.49 71.53 73.99C70.64 76.12 68.38 82.75 68.38 82.75L69.81 84.19L74.3 76.71C74.3 76.71 83.5 80.87 86.53 79.97C87.7 79.62 88.59 77.64 88.42 75.63C88.29 74.05 87.96 72.61 87.96 72.61L84.91 71.81Z" />
			<path id="Layer" class="shp9" d="M83.6 79.93L76.23 79.42L76.87 90.39L74.69 90.47L73.09 77.61C73.09 77.61 73.52 75.69 74.92 75.98C76.34 76.28 79.75 78.79 83.6 79.93Z" />
			<path id="Layer" class="shp2" d="M88.56 82.68C88.56 82.68 84.7 78.64 83.7 76.36C82.5 73.62 82.6 70.19 82.38 69.06C81.98 66.97 81.48 62.92 81.39 62.42C81.29 61.91 81.63 61.35 81.63 61.35C81.63 61.35 81.38 59.83 82.11 60C83.15 60.23 84.18 60.77 84.54 60.93C85.23 61.22 86.62 68.85 86.7 69.22C86.98 70.55 88.03 71.76 88.77 73C90.53 75.94 90.98 79.41 90.98 79.41C90.98 79.41 90.76 81.95 88.56 82.68Z" />
			<g id="Layer">
				<path id="Layer" class="shp10" d="M84.58 72.11C84.58 72.11 84.54 72.6 82.08 72.49C79.63 72.37 76.02 71.6 76.02 71.6L81.72 71.35C81.72 71.35 83.91 71.36 84.58 72.11Z" />
				<path id="Layer" class="shp10" d="M77.96 71.86C76.78 71.84 76.28 72.41 75.81 72.58C75.35 72.75 74.88 73.01 74.88 73.01C75.15 72.53 75.52 72.52 75.72 72.37C75.9 72.21 75.86 72.29 75.44 72.25C75.2 72.23 74.78 72.63 74.49 72.86C74.22 73.05 74.06 73.06 74.06 73.06C74.06 73.06 74.36 72.65 74.75 72.32C75.22 71.94 75.79 71.61 75.94 71.56C76.19 71.46 76.97 71.45 77.53 71.54C78.15 71.62 78.8 71.88 77.96 71.86Z" />
				<path id="Layer" class="shp10" d="M75.99 71.57C75.99 71.57 75.09 71.77 74.94 71.88C74.83 71.97 74.36 72.43 74.36 72.43C74.36 72.43 74.69 72.38 74.89 72.2C75.09 72.04 75.99 71.57 75.99 71.57Z" />
			</g>
			<path id="Layer" class="shp4" d="M82.61 71.57L86.26 69.78C86.26 69.78 86.27 71.95 86.29 72.78C86.31 73.6 86.69 74.77 85.98 74.94C85.28 75.12 84.92 75.03 85.64 75.43C86.37 75.82 86.2 76.23 85.93 76.56C85.65 76.9 86.85 80.34 86.56 80.54C85.43 79.2 84.22 77.55 83.69 76.36C83.02 74.8 82.75 73.02 82.61 71.57Z" />
			<path id="Layer" class="shp2" d="M83.79 70.7L83.64 63.78C83.64 63.78 83.66 61.62 83.7 60.98C83.74 60.33 84.94 61.09 84.94 61.09C84.94 61.09 86.62 63.21 86.65 68.32C86.67 71.74 86.48 73.52 84.79 73.38C83.22 73.25 81.43 73.02 81.43 73.02L80.65 71.13L83.79 70.7Z" />
			<g id="Layer">
				<path id="Layer" class="shp8" d="M83.41 74.35L70.86 72.89L70.89 72.64L83.45 74.1L83.41 74.35Z" />
				<path id="Layer" class="shp8" d="M77.91 73.45C77.89 73.64 77.73 73.79 77.55 73.77L71.12 73.02C70.94 73 70.72 72.85 70.57 72.33L68.08 66.35C68.12 66.1 68.33 65.98 68.5 66.04L75.08 67C75.25 67.06 75.38 67.21 75.44 67.47L77.91 73.45Z" />
				<path id="Layer" class="shp8" d="M77.1 73.61L77.17 73.62L83.45 74.36C83.21 74.45 82.82 74.48 82.39 74.43L77.13 73.82L77.07 73.81L71.81 73.2C71.38 73.14 71.01 73.02 70.8 72.89L77.1 73.61Z" />
			</g>
			<path id="Layer" class="shp4" d="M83.79 70.7L83.64 63.78C83.64 63.78 83.75 63.19 83.97 62.67C84.03 63.43 84.4 68.89 84.45 69.6C84.5 70.38 85.18 70.46 85.32 70.72C85.48 70.96 85.35 71.01 84.84 70.92C84.35 70.82 84.52 70.9 84.63 71.15C84.74 71.4 84.47 71.33 83.5 71C82.8 70.77 81.45 71 80.77 71.15L83.79 70.7Z" />
			<path id="Layer" class="shp15" d="M127.19 53.71C125.98 54.01 123.75 55.05 123.28 56.85C122.57 59.54 123.98 63.48 121.76 67.35C121.05 68.58 134.03 70.24 134.03 70.24L136.53 56.64C136.53 56.64 133.4 53.69 132.76 53.49C131.44 53.08 129.6 53.12 127.19 53.71Z" />
			<path id="Layer" class="shp2" d="M136.54 56.65C136.99 57.74 138.13 64.2 136.86 65.72C136.72 65.9 137.52 66.17 137.38 66.97C137.35 67.1 137.11 67.75 137.11 67.75L136.08 68L133.83 65.58C133.83 65.58 134.74 64.26 135.94 59.25C136.29 57.78 136.44 56.4 136.54 56.65Z" />
			<path id="Layer" class="shp12" d="M128.02 64.37C128.02 64.37 129.11 67.04 131.73 67.76C132.18 67.88 132.47 68.35 132.25 68.51C131.96 68.7 131.59 68.74 130.93 68.74C129.56 68.74 127.69 68.33 126.41 67.12C124.49 65.34 123.89 64.52 124.09 63.63C124.26 62.72 128.02 64.37 128.02 64.37Z" />
			<path id="Layer" class="shp2" d="M123.65 55.94C123.09 56.82 122.77 58.24 122.78 60.26C122.78 61.83 124.19 64.4 124.4 65.19C124.43 65.32 124.52 65.89 124.52 65.89L126.07 67.36L129.17 65.32L128.23 63.92L127.94 63.95C127.94 63.95 127.77 63.17 127.81 62.88C127.86 62.58 126.96 58.54 126.5 55.94C126.25 54.44 124.2 55.08 123.65 55.94Z" />
			<path id="Layer" class="shp4" d="M126.44 63.89L127.35 63.62L127.72 63.53C127.75 63.78 127.96 63.94 127.96 63.94L127.25 64.02L126.43 64.27L125.46 64.91L126.44 63.89Z" />
			<path id="Layer" class="shp12" d="M131.53 67.75L133.12 67.33C133.12 67.33 133.57 67.91 133.48 68.06C133.39 68.2 133.48 69.06 133.48 69.06L132.71 69.69L132.08 69.49C132.08 69.49 132.04 69.22 132.25 69.2C132.47 69.17 132.1 69.03 131.99 68.97C131.89 68.9 130.97 68.44 131.53 67.75Z" />
			<path id="Layer" class="shp16" d="M129.1 53.58C128.92 54.06 129.18 54.6 129.69 54.77L130.59 55.08C131.1 55.25 131.64 54.98 131.82 54.5L132.62 52.29C132.8 51.81 132.53 51.27 132.03 51.09L131.13 50.79C130.62 50.61 130.07 50.88 129.9 51.36L129.1 53.58Z" />
			<path id="Layer" class="shp12" d="M133.03 55.53C132.94 55.84 132.59 56.04 132.26 55.94L129.55 55.22C129.22 55.13 129.02 54.8 129.11 54.47L130.22 50.59C130.3 50.27 130.65 50.08 130.99 50.17L133.7 50.89C134.03 50.98 134.22 51.31 134.14 51.64L133.03 55.53Z" />
			<path id="Layer" class="shp1" d="M134.43 51.25L134.43 51.25C134.45 51.23 134.18 50.94 134.32 50.38C134.51 49.62 133.91 49.31 133.46 49.3C133.19 49.29 132.3 49.69 131.83 49.82C131.36 49.96 131.4 49.78 130.55 49.64C129.97 49.54 129.84 49.83 129.65 50.24C129.45 50.66 129.43 52.26 129.43 52.26C129.5 52.36 129.62 52.44 129.7 52.36C129.78 52.28 130.08 51 130.34 50.62C130.58 50.24 131.57 50.85 132.1 51.14C132.63 51.44 133.1 51.49 133.95 51.33C134.05 51.43 134.14 51.54 134.14 51.59C134.14 51.7 133.89 52.42 133.89 52.42C133.89 52.42 134.37 52.15 134.5 51.93C134.57 51.86 134.59 51.51 134.43 51.25Z" />
			<path id="Layer" class="shp12" d="M129.96 53.66C129.93 53.76 129.82 53.84 129.71 53.81L129.13 53.65C129.02 53.62 128.95 53.51 128.99 53.41L129.28 52.37C129.32 52.27 129.43 52.2 129.54 52.23L130.12 52.38C130.23 52.41 130.29 52.52 130.26 52.63L129.96 53.66Z" />
			<path id="Layer" class="shp1" d="M129.6 52.68C129.6 52.68 129.16 54.2 129.02 54.72C128.89 55.18 128.79 56.24 131.48 56.96C133.07 57.38 133.34 56.23 133.44 55.86C133.52 55.58 133.43 54.64 133.31 54.44C133.31 54.43 133.14 55.08 133.14 55.08C133.14 55.08 132.98 54.37 132.23 54.17C131.01 53.85 130.52 54.47 130 54.31C129.58 54.17 129.46 53.44 129.6 52.68Z" />
			<path id="Layer" class="shp12" d="M131.44 55.02L132.27 55.25C132.38 55.28 132.5 55.22 132.52 55.11L132.55 54.99L131.31 54.67L131.28 54.78C131.26 54.89 131.33 54.99 131.44 55.02Z" />
			<path id="Layer" class="shp1" d="M144.67 70.53C144.28 71.57 137.52 75.36 135.25 75.14L128.4 75.46C122.59 74.77 119.84 66.05 119.84 66.05C120.07 63.86 125.8 67.03 127.84 68.01C131.07 69.57 133.13 69.65 133.13 69.65C135.29 69.87 137.79 68.25 140.53 68.2C143.53 68.13 145.28 68.91 144.67 70.53Z" />
			<g id="Layer">
				<path id="Layer" class="shp8" d="M129.8 69.49C129.8 69.48 129.8 69.48 129.8 69.49L129.8 69.2L141.56 69L141.56 69.27L141.56 69.28L141.53 69.34C141.38 69.58 141.11 69.62 140.8 69.63L130.57 69.82C130.26 69.83 129.99 69.79 129.83 69.55L129.8 69.49Z" />
				<path id="Layer" class="shp8" d="M132.63 69.48C132.63 69.48 132.63 69.49 132.63 69.48L132.6 69.53C132.55 69.59 132.5 69.64 132.43 69.67L130.65 69.7C130.35 69.71 130.08 69.68 129.93 69.49L129.9 69.45C129.9 69.45 129.9 69.45 129.89 69.44L129.89 69.3L132.61 69.25L132.63 69.48Z" />
				<g id="Layer">
					<path id="Layer" class="shp8" d="M134.22 69.38L140.1 69.27L140.1 69.08L134.21 69.19L134.22 69.38Z" />
				</g>
				<g id="Layer">
					<path id="Layer" class="shp8" d="M132.7 69.14L134.11 63.53C134.15 63.39 134.3 63.26 134.45 63.25L142.71 63.11C142.87 63.11 142.96 63.22 142.92 63.38L141.51 68.99L132.7 69.14Z" />
				</g>
			</g>
			<path id="Layer" class="shp12" d="M127.37 76.9C128.18 77.03 128.81 76.12 128.81 76.12L130.92 74.52L130.47 73.44L126.36 75.22C126.36 75.22 126.55 76.77 127.37 76.9Z" />
			<path id="Layer" class="shp9" d="M128.8 76.06C128.8 76.06 128.8 76.15 128.65 76.57C128.49 76.99 128.29 77.14 128.1 77.2C127.31 77.42 126.75 77.31 124.86 77.66C122.97 78.01 122.4 77.74 121.85 76.9C121.3 76.06 121.87 75.4 122.79 75.33C124.12 75.24 124.87 75.39 125.56 75.28C126.28 75.18 126.33 75.02 126.76 74.76C127.15 74.52 127.53 75.94 127.15 76.27C126.81 76.55 128.52 76.59 128.8 76.06Z" />
			<path id="Layer" class="shp3" d="M128.4 76.87C127.62 77.1 127.05 76.98 125.17 77.33C123.28 77.68 122.71 77.41 122.16 76.57C121.9 76.18 121.89 75.84 122.03 75.57C121.62 75.85 121.48 76.33 121.85 76.9C122.4 77.74 122.97 78.01 124.86 77.66C126.75 77.31 127.32 77.42 128.1 77.2C128.25 77.16 128.4 77.05 128.54 76.82C128.49 76.84 128.45 76.86 128.4 76.87Z" />
			<path id="Layer" class="shp17" d="M128.8 76.09C128.8 76.07 128.8 76.07 128.8 76.07C128.8 76.08 128.79 76.09 128.78 76.1C128.79 76.09 128.8 76.09 128.8 76.09Z" />
			<g id="Layer">
				<path id="Layer" class="shp3" d="M124.73 76.72C124.67 76.74 124.62 76.62 124.59 76.47C124.56 76.15 124.48 75.85 124.37 75.53C124.32 75.38 124.32 75.24 124.38 75.22C124.45 75.2 124.56 75.31 124.61 75.47C124.72 75.77 124.78 76.09 124.81 76.4C124.84 76.55 124.78 76.7 124.73 76.72Z" />
				<path id="Layer" class="shp3" d="M125.31 76.61C125.24 76.62 125.19 76.52 125.17 76.38C125.13 76.08 125.06 75.78 124.95 75.5C124.89 75.35 124.89 75.23 124.97 75.22C125.03 75.21 125.14 75.32 125.2 75.47C125.3 75.75 125.37 76.05 125.41 76.34C125.42 76.48 125.37 76.6 125.31 76.61Z" />
				<path id="Layer" class="shp3" d="M125.92 76.59C125.86 76.6 125.79 76.49 125.77 76.34C125.71 76.03 125.64 75.73 125.52 75.43C125.46 75.27 125.46 75.15 125.53 75.15C125.6 75.15 125.71 75.26 125.77 75.42C125.89 75.71 125.97 76.02 126.01 76.32C126.03 76.46 125.99 76.58 125.92 76.59Z" />
			</g>
			<path id="Layer" class="shp4" d="M127.51 74.29C127.51 74.29 141.98 68.55 142.8 68.54C145.59 68.52 144.95 71.24 143.54 72.53C141.87 74.04 129.17 76.82 129.17 76.82L127.51 74.29Z" />
			<path id="Layer" class="shp12" d="M133.25 75.29L129.29 71.67L130.99 70.06L135.29 74.44L133.25 75.29Z" />
			<path id="Layer" class="shp4" d="M134.06 72.45C134.06 72.45 124.01 63.55 123.34 63.28C121.05 62.38 119.63 64.83 119.71 65.68C119.82 66.77 130.02 75.68 130.02 75.68L134.06 72.45Z" />
			<g id="Layer">
				<path id="Layer" class="shp9" d="M140.01 75.57C140.24 75.77 140.29 76.4 140.29 76.4C140.29 76.4 136.94 77.63 135.76 77.65C135.45 77.66 134.91 77.53 134.38 77.39C134.29 77.37 134.08 77.15 133.99 77.13C133.83 77.08 133.8 77.23 133.66 77.19C133.31 77.07 133.05 76.98 133.04 76.96C132.32 75.51 132.57 74.79 132.57 74.79C132.57 74.79 134.1 75.22 133.84 74.88C133.28 74.17 134.89 73.44 135.25 73.82C136.7 75.34 139.33 74.97 140.01 75.57Z" />
				<path id="Layer" class="shp3" d="M140.2 75.88C139.17 76.28 137 77.08 136.58 77.12C134.81 77.24 133.58 76.64 132.75 76.28C132.83 76.48 132.92 76.72 133.04 76.96C133.05 76.98 133.3 77.07 133.66 77.19C133.81 77.23 133.84 77.07 133.99 77.13C134.08 77.15 134.28 77.37 134.38 77.39C134.91 77.53 135.45 77.65 135.76 77.65C136.94 77.63 140.29 76.4 140.29 76.4C140.29 76.4 140.29 76.11 140.2 75.88Z" />
				<g id="Layer">
					<path id="Layer" class="shp3" d="M137.84 74.93C137.87 75 137.74 75.06 137.55 75.1C137.17 75.17 136.79 75.28 136.42 75.43C136.23 75.5 136.07 75.52 136.05 75.46C136.03 75.4 136.15 75.28 136.33 75.21C136.7 75.07 137.08 74.97 137.45 74.89C137.63 74.84 137.8 74.87 137.84 74.93Z" />
					<path id="Layer" class="shp3" d="M137.08 74.68C137.11 74.74 136.98 74.82 136.79 74.87C136.42 74.98 136.06 75.12 135.7 75.29C135.52 75.38 135.36 75.41 135.33 75.34C135.31 75.28 135.43 75.15 135.61 75.07C135.96 74.9 136.32 74.76 136.7 74.67C136.88 74.6 137.06 74.62 137.08 74.68Z" />
					<path id="Layer" class="shp3" d="M136.35 74.45C136.38 74.51 136.26 74.61 136.08 74.67C135.72 74.8 135.37 74.97 135.03 75.16C134.86 75.26 134.71 75.29 134.69 75.22C134.66 75.16 134.77 75.02 134.95 74.91C135.29 74.72 135.64 74.56 135.99 74.43C136.17 74.38 136.33 74.39 136.35 74.45Z" />
				</g>
			</g>
		</g>
	</g>
</svg>